<svg width="320" height="320" viewBox="0 0 320 320" fill="none" preserveAspectRatio="none" xmlns="http://www.w3.org/2000/svg">
<path d="M0 84.48C0 50.3155 0 33.2333 8.30013 21.02C11.7006 16.0163 16.0163 11.7006 21.02 8.30013C33.2333 0 50.3155 0 84.48 0H235.52C269.684 0 286.767 0 298.98 8.30013C303.984 11.7006 308.299 16.0163 311.7 21.02C320 33.2333 320 50.3155 320 84.48V235.52C320 269.684 320 286.767 311.7 298.98C308.299 303.984 303.984 308.299 298.98 311.7C286.767 320 269.684 320 235.52 320H84.48C50.3155 320 33.2333 320 21.02 311.7C16.0163 308.299 11.7006 303.984 8.30013 298.98C0 286.767 0 269.684 0 235.52V84.48Z" fill="#292929"/>
</svg>
