<svg width="578" height="578" viewBox="0 0 578 578" fill="none" xmlns="http://www.w3.org/2000/svg">
<circle cx="289" cy="289" r="277" stroke="#EEEEEE" stroke-width="24"/>
<path fill-rule="evenodd" clip-rule="evenodd" d="M48 288.5C48 320.083 54.2207 351.357 66.307 380.535C78.3932 409.714 96.1083 436.227 118.441 458.559C140.773 480.892 167.286 498.607 196.465 510.693C225.643 522.779 256.917 529 288.5 529C320.083 529 351.357 522.779 380.535 510.693C409.714 498.607 436.227 480.892 458.559 458.559C480.892 436.227 498.607 409.714 510.693 380.535C522.779 351.357 529 320.083 529 288.5C529 224.715 503.662 163.543 458.559 118.441C413.457 73.3383 352.285 48 288.5 48C224.715 48 163.543 73.3383 118.441 118.441C73.3383 163.543 48 224.715 48 288.5ZM447.907 428.574C444.906 431.99 441.787 435.318 438.552 438.552C407.866 469.239 368.749 489.556 326.646 497.25C347.048 477.936 363.241 443.256 373.386 399.6C399.353 405.353 422.962 414.142 442.705 425.469C444.476 426.487 446.21 427.522 447.907 428.574ZM465.189 406.028C485.167 375.992 497.244 341.22 500.065 304.98H384.995C384.319 328.415 382.206 350.892 378.819 371.847C407.766 378.204 434.282 388.059 456.722 400.918C459.59 402.547 462.413 404.251 465.189 406.028ZM351.467 366.99C354.595 347.748 356.651 326.891 357.344 304.98H219.727C220.467 328.361 222.759 350.541 226.248 370.84C249.631 366.058 274.546 363.527 300.139 363.527C317.647 363.527 334.847 364.709 351.467 366.99ZM232.019 398.523C245.128 451.366 266.778 485.918 288.536 485.918C310.803 485.918 332.957 449.73 345.958 394.782C331.144 392.828 315.791 391.811 300.139 391.811C276.432 391.811 253.45 394.152 232.019 398.523ZM205.065 405.333C215.273 446.302 230.934 478.808 250.443 497.266C208.306 489.585 169.156 469.26 138.448 438.552C138.388 438.492 138.328 438.432 138.268 438.372C138.959 437.837 139.659 437.307 140.369 436.782C157.777 423.696 179.897 413.004 205.065 405.333ZM199.215 377.57C195.265 355.004 192.815 330.563 192.077 304.98H76.9345C80.1086 345.748 94.9953 384.658 119.668 417.059C120.905 416.073 122.165 415.096 123.447 414.127C144.09 398.618 170.009 386.215 199.215 377.57ZM76.6223 276.697H191.961C192.485 251.207 194.704 226.795 198.411 204.175C169.533 195.537 143.9 183.213 123.447 167.833C121.38 166.281 119.35 164.68 117.359 163.032C93.1482 196.055 78.9143 235.524 76.6223 276.697ZM135.535 141.418C137.096 142.698 138.706 143.962 140.369 145.206C157.517 158.097 179.237 168.664 203.94 176.309C214.102 133.157 230.199 98.8872 250.436 79.7349C208.301 87.4176 169.154 107.742 138.448 138.448C137.466 139.429 136.495 140.419 135.535 141.418ZM225.447 210.982C222.188 231.322 220.126 253.446 219.6 276.697H357.471C356.979 254.927 355.14 234.146 352.233 214.891C335.375 217.243 317.916 218.461 300.139 218.461C274.254 218.461 249.062 215.871 225.447 210.982ZM347.069 187.053C331.912 189.106 316.183 190.177 300.139 190.177C276.009 190.177 252.63 187.752 230.874 183.23C243.842 127.712 266.131 91.0766 288.536 91.0766C311.451 91.0766 334.245 129.4 347.069 187.053ZM379.572 209.971C382.732 230.946 384.631 253.37 385.111 276.697H500.378C498.344 240.169 486.911 204.982 467.452 174.447C464.003 176.718 460.425 178.916 456.722 181.041C434.477 193.804 408.226 203.607 379.572 209.971ZM450.697 151.665C448.083 153.361 445.417 154.98 442.705 156.519C423.234 167.675 400.002 176.379 374.457 182.138C364.401 136.258 347.785 99.7615 326.653 79.7511C368.753 87.4461 407.868 107.763 438.552 138.448C442.801 142.697 446.852 147.108 450.697 151.665Z" fill="black" fill-opacity="0.04"/>
</svg>
