<svg width="1920" height="803" viewBox="0 0 1920 803" fill="none" xmlns="http://www.w3.org/2000/svg">
<path d="M121.004 735.5L121.125 734.508L121.004 735.5ZM1297.59 -387.319L1296.85 -387.993L1297.59 -387.319ZM-345.609 801.27C-346.012 801.648 -346.033 802.281 -345.655 802.684C-345.277 803.087 -344.644 803.107 -344.242 802.729L-345.609 801.27ZM-339.753 798.641C-339.339 798.275 -339.301 797.643 -339.667 797.229C-340.033 796.816 -340.665 796.777 -341.078 797.143L-339.753 798.641ZM-328.431 786.773C-328.871 787.107 -328.956 787.734 -328.622 788.174C-328.288 788.614 -327.661 788.699 -327.221 788.365L-328.431 786.773ZM-317.346 781.274C-316.889 780.963 -316.769 780.342 -317.08 779.885C-317.39 779.428 -318.012 779.308 -318.469 779.619L-317.346 781.274ZM-304.654 770.917C-305.131 771.195 -305.292 771.808 -305.013 772.285C-304.734 772.761 -304.122 772.922 -303.645 772.643L-304.654 770.917ZM-293.004 766.761C-292.514 766.506 -292.325 765.902 -292.58 765.412C-292.836 764.923 -293.44 764.733 -293.93 764.989L-293.004 766.761ZM-279.229 757.856C-279.733 758.083 -279.957 758.675 -279.731 759.178C-279.504 759.682 -278.912 759.906 -278.408 759.68L-279.229 757.856ZM-267.213 754.917C-266.701 754.711 -266.452 754.128 -266.658 753.616C-266.864 753.103 -267.447 752.855 -267.959 753.061L-267.213 754.917ZM-252.64 747.35C-253.162 747.531 -253.439 748.1 -253.259 748.622C-253.079 749.144 -252.51 749.421 -251.988 749.241L-252.64 747.35ZM-240.413 745.471C-239.885 745.309 -239.588 744.75 -239.75 744.222C-239.912 743.694 -240.472 743.397 -241 743.56L-240.413 745.471ZM-225.315 739.108C-225.85 739.248 -226.169 739.794 -226.03 740.329C-225.89 740.863 -225.343 741.183 -224.809 741.043L-225.315 739.108ZM-212.972 738.13C-212.434 738.006 -212.098 737.469 -212.222 736.931C-212.347 736.393 -212.884 736.057 -213.422 736.182L-212.972 738.13ZM-197.48 732.799C-198.022 732.904 -198.376 733.429 -198.271 733.971C-198.165 734.513 -197.641 734.868 -197.098 734.762L-197.48 732.799ZM-185.097 732.585C-184.552 732.493 -184.185 731.977 -184.277 731.433C-184.369 730.888 -184.885 730.521 -185.43 730.613L-185.097 732.585ZM-169.322 728.141C-169.869 728.216 -170.251 728.721 -170.175 729.268C-170.099 729.815 -169.594 730.197 -169.047 730.122L-169.322 728.141ZM-156.939 728.572C-156.391 728.507 -155.998 728.01 -156.063 727.462C-156.127 726.913 -156.624 726.521 -157.173 726.585L-156.939 728.572ZM-140.967 724.888C-141.517 724.938 -141.921 725.425 -141.871 725.975C-141.82 726.525 -141.333 726.93 -140.783 726.879L-140.967 724.888ZM-128.617 725.865C-128.066 725.824 -127.653 725.344 -127.694 724.793C-127.735 724.242 -128.215 723.829 -128.766 723.87L-128.617 725.865ZM-112.492 722.833C-113.043 722.862 -113.466 723.333 -113.437 723.885C-113.408 724.436 -112.937 724.859 -112.385 724.83L-112.492 722.833ZM-100.233 724.276C-99.6812 724.255 -99.2509 723.79 -99.272 723.238C-99.2932 722.686 -99.7577 722.256 -100.31 722.277L-100.233 724.276ZM-84.0184 721.806C-84.5706 721.817 -85.0093 722.274 -84.9984 722.826C-84.9874 723.378 -84.5309 723.817 -83.9787 723.806L-84.0184 721.806ZM-71.7941 723.643C-71.2418 723.639 -70.7973 723.188 -70.8011 722.636C-70.805 722.084 -71.2559 721.639 -71.8082 721.643L-71.7941 723.643ZM-55.5124 721.659C-56.0646 721.655 -56.5163 722.098 -56.5212 722.651C-56.5261 723.203 -56.0823 723.655 -55.5301 723.659L-55.5124 721.659ZM-43.3154 723.836C-42.7632 723.847 -42.3067 723.408 -42.2957 722.856C-42.2846 722.304 -42.7233 721.847 -43.2755 721.836L-43.3154 723.836ZM-26.9803 722.276C-27.5323 722.257 -27.9949 722.689 -28.0135 723.241C-28.0322 723.793 -27.5998 724.256 -27.0478 724.274L-26.9803 722.276ZM-14.8664 724.745C-14.3147 724.769 -13.848 724.341 -13.824 723.789C-13.8 723.237 -14.2279 722.771 -14.7797 722.747L-14.8664 724.745ZM1.48444 723.552C0.932983 723.521 0.461151 723.944 0.430573 724.495C0.399994 725.047 0.822235 725.518 1.37366 725.549L1.48444 723.552ZM13.5486 726.276C14.0998 726.312 14.5752 725.893 14.6104 725.342C14.6456 724.791 14.2274 724.316 13.6762 724.28L13.5486 726.276ZM29.9345 725.407C29.3837 725.366 28.904 725.779 28.8629 726.33C28.8219 726.881 29.2351 727.36 29.7859 727.401L29.9345 725.407ZM41.9702 728.355C42.5206 728.401 43.0034 727.991 43.0486 727.441C43.0937 726.89 42.6841 726.407 42.1336 726.362L41.9702 728.355ZM58.3461 727.768C57.7961 727.718 57.3096 728.123 57.2593 728.673C57.2091 729.223 57.6142 729.71 58.1642 729.76L58.3461 727.768ZM70.3025 730.909C70.8521 730.963 71.3414 730.561 71.3952 730.011C71.449 729.461 71.0471 728.972 70.4974 728.918L70.3025 730.909ZM86.7098 730.574C86.1606 730.516 85.6681 730.913 85.6097 731.463C85.5514 732.012 85.9494 732.504 86.4986 732.563L86.7098 730.574ZM98.6428 733.888C99.1917 733.95 99.6865 733.555 99.748 733.006C99.8095 732.457 99.4144 731.962 98.8655 731.901L98.6428 733.888ZM115.029 733.772C114.48 733.706 113.983 734.098 113.917 734.646C113.852 735.194 114.243 735.692 114.792 735.758L115.029 733.772ZM127.082 737.244C127.631 737.31 128.129 736.918 128.195 736.37C128.261 735.822 127.869 735.324 127.321 735.258L127.082 737.244ZM143.711 737.186C143.162 737.123 142.666 737.517 142.603 738.065C142.54 738.614 142.934 739.11 143.482 739.173L143.711 737.186ZM155.655 740.551C156.204 740.613 156.699 740.217 156.76 739.668C156.821 739.119 156.425 738.625 155.876 738.564L155.655 740.551ZM171.929 740.309C171.379 740.25 170.887 740.648 170.829 741.198C170.771 741.747 171.169 742.239 171.718 742.297L171.929 740.309ZM183.639 743.539C184.189 743.595 184.679 743.195 184.736 742.645C184.792 742.096 184.392 741.605 183.842 741.549L183.639 743.539ZM199.561 743.112C199.011 743.059 198.522 743.462 198.469 744.011C198.416 744.561 198.818 745.05 199.368 745.103L199.561 743.112ZM211.041 746.208C211.591 746.26 212.078 745.855 212.129 745.305C212.18 744.755 211.775 744.268 211.225 744.217L211.041 746.208ZM226.614 745.601C226.064 745.553 225.579 745.96 225.531 746.51C225.483 747.06 225.89 747.545 226.44 747.593L226.614 745.601ZM237.867 748.565C238.417 748.61 238.901 748.201 238.946 747.651C238.992 747.1 238.583 746.617 238.032 746.571L237.867 748.565ZM254.43 747.88C253.88 747.838 253.399 748.25 253.357 748.801C253.314 749.351 253.727 749.832 254.277 749.874L254.43 747.88ZM266.56 750.786C267.11 750.826 267.589 750.411 267.629 749.861C267.668 749.31 267.254 748.831 266.703 748.792L266.56 750.786ZM282.872 749.901C282.321 749.865 281.845 750.282 281.809 750.833C281.773 751.385 282.191 751.861 282.742 751.896L282.872 749.901ZM294.734 752.65C295.285 752.683 295.759 752.263 295.792 751.712C295.825 751.161 295.405 750.687 294.854 750.654L294.734 752.65ZM310.638 751.553C310.087 751.524 309.616 751.947 309.586 752.498C309.557 753.05 309.98 753.521 310.531 753.55L310.638 751.553ZM322.237 754.147C322.788 754.174 323.257 753.748 323.284 753.197C323.31 752.645 322.885 752.176 322.333 752.15L322.237 754.147ZM337.737 752.841C337.186 752.818 336.72 753.247 336.697 753.799C336.674 754.351 337.103 754.817 337.655 754.84L337.737 752.841ZM349.22 755.287C349.772 755.307 350.235 754.875 350.255 754.323C350.275 753.772 349.844 753.308 349.292 753.288L349.22 755.287ZM365.848 753.817C365.296 753.802 364.836 754.237 364.82 754.789C364.805 755.341 365.24 755.801 365.792 755.817L365.848 753.817ZM378.052 756.121C378.604 756.133 379.061 755.695 379.073 755.143C379.085 754.591 378.647 754.134 378.095 754.122L378.052 756.121ZM394.202 754.405C393.65 754.398 393.196 754.839 393.189 755.391C393.181 755.944 393.623 756.397 394.175 756.405L394.202 754.405ZM406.101 756.526C406.653 756.53 407.104 756.085 407.108 755.533C407.112 754.981 406.667 754.53 406.115 754.526L406.101 756.526ZM421.779 754.567C421.227 754.568 420.78 755.017 420.781 755.569C420.782 756.121 421.23 756.568 421.782 756.567L421.779 754.567ZM433.38 756.508C433.932 756.503 434.376 756.052 434.371 755.5C434.366 754.947 433.915 754.504 433.363 754.508L433.38 756.508ZM448.863 754.306C448.31 754.315 447.871 754.771 447.88 755.323C447.89 755.875 448.346 756.315 448.898 756.305L448.863 754.306ZM461.336 756.037C461.889 756.023 462.325 755.564 462.311 755.012C462.297 754.46 461.838 754.023 461.286 754.037L461.336 756.037ZM477.589 753.537C477.037 753.557 476.606 754.021 476.626 754.573C476.645 755.125 477.109 755.556 477.661 755.536L477.589 753.537ZM489.711 755.054C490.263 755.029 490.69 754.562 490.666 754.011C490.642 753.459 490.174 753.031 489.623 753.056L489.711 755.054ZM505.412 752.273C504.86 752.303 504.438 752.775 504.468 753.326C504.499 753.878 504.97 754.3 505.522 754.27L505.412 752.273ZM517.19 753.577C517.741 753.542 518.16 753.067 518.125 752.516C518.089 751.965 517.614 751.546 517.063 751.581L517.19 753.577ZM532.347 750.521C531.796 750.562 531.383 751.042 531.424 751.593C531.466 752.144 531.946 752.557 532.497 752.515L532.347 750.521ZM544.711 751.538C545.261 751.491 545.669 751.007 545.623 750.457C545.576 749.906 545.092 749.498 544.542 749.545L544.711 751.538ZM560.846 748.052C560.297 748.106 559.895 748.595 559.949 749.145C560.003 749.695 560.493 750.096 561.042 750.042L560.846 748.052ZM573.068 748.797C573.617 748.737 574.013 748.244 573.954 747.695C573.894 747.146 573.4 746.749 572.851 746.809L573.068 748.797ZM588.562 744.989C588.014 745.056 587.625 745.555 587.692 746.103C587.759 746.651 588.258 747.041 588.807 746.974L588.562 744.989ZM600.392 745.485C600.939 745.411 601.324 744.908 601.25 744.361C601.177 743.813 600.674 743.429 600.126 743.502L600.392 745.485ZM615.305 741.354C614.758 741.435 614.381 741.944 614.463 742.49C614.544 743.037 615.053 743.413 615.6 743.332L615.305 741.354ZM627.901 741.418C628.447 741.33 628.817 740.816 628.729 740.271C628.64 739.726 628.127 739.356 627.582 739.444L627.901 741.418ZM643.606 736.707C643.063 736.805 642.701 737.324 642.799 737.868C642.897 738.412 643.417 738.773 643.96 738.675L643.606 736.707ZM655.749 736.476C656.291 736.371 656.646 735.847 656.541 735.305C656.436 734.762 655.911 734.408 655.369 734.513L655.749 736.476ZM670.716 731.401C670.176 731.516 669.831 732.047 669.946 732.587C670.06 733.127 670.591 733.472 671.132 733.357L670.716 731.401ZM682.42 730.879C682.958 730.757 683.296 730.221 683.174 729.683C683.051 729.144 682.516 728.807 681.977 728.929L682.42 730.879ZM697.683 725.198C697.147 725.331 696.82 725.874 696.953 726.41C697.086 726.946 697.629 727.272 698.165 727.139L697.683 725.198ZM710.014 724.094C710.547 723.953 710.865 723.405 710.724 722.871C710.582 722.337 710.034 722.02 709.5 722.161L710.014 724.094ZM724.87 717.898C724.34 718.051 724.034 718.606 724.188 719.136C724.341 719.667 724.896 719.972 725.426 719.819L724.87 717.898ZM736.7 716.452C737.228 716.289 737.524 715.73 737.362 715.202C737.199 714.674 736.64 714.378 736.112 714.541L736.7 716.452ZM750.778 709.837C750.254 710.012 749.971 710.579 750.146 711.102C750.321 711.626 750.887 711.909 751.411 711.734L750.778 709.837ZM763.113 707.703C763.633 707.518 763.905 706.946 763.72 706.426C763.535 705.906 762.963 705.634 762.443 705.819L763.113 707.703ZM777.56 700.218C777.045 700.417 776.788 700.995 776.987 701.511C777.186 702.026 777.765 702.283 778.28 702.084L777.56 700.218ZM789.335 697.688C789.846 697.479 790.09 696.895 789.881 696.384C789.672 695.873 789.088 695.628 788.577 695.837L789.335 697.688ZM802.844 689.761C802.339 689.985 802.11 690.575 802.334 691.08C802.558 691.585 803.148 691.814 803.653 691.59L802.844 689.761ZM814.63 686.584C815.13 686.349 815.344 685.753 815.11 685.253C814.875 684.754 814.279 684.539 813.779 684.774L814.63 686.584ZM828.296 677.673C827.804 677.924 827.608 678.526 827.859 679.018C828.109 679.51 828.711 679.706 829.203 679.456L828.296 677.673ZM839.783 673.911C840.269 673.649 840.45 673.042 840.188 672.556C839.926 672.07 839.319 671.889 838.833 672.151L839.783 673.911ZM852.424 664.53C851.947 664.808 851.785 665.42 852.063 665.897C852.341 666.374 852.953 666.536 853.431 666.258L852.424 664.53ZM863.745 660.069C864.215 659.779 864.36 659.163 864.07 658.693C863.78 658.223 863.163 658.078 862.694 658.368L863.745 660.069ZM876.229 649.667C875.77 649.974 875.647 650.595 875.954 651.055C876.261 651.514 876.882 651.637 877.341 651.33L876.229 649.667ZM887.169 644.565C887.619 644.245 887.726 643.621 887.406 643.171C887.087 642.72 886.463 642.614 886.012 642.933L887.169 644.565ZM898.577 633.681C898.138 634.016 898.055 634.644 898.39 635.083C898.726 635.521 899.353 635.605 899.792 635.269L898.577 633.681ZM909.324 627.757C909.753 627.409 909.818 626.779 909.47 626.351C909.122 625.922 908.492 625.856 908.063 626.204L909.324 627.757ZM920.269 615.899C919.854 616.263 919.813 616.895 920.177 617.31C920.542 617.725 921.174 617.766 921.589 617.402L920.269 615.899ZM930.416 609.422C930.821 609.045 930.843 608.412 930.467 608.008C930.091 607.604 929.458 607.581 929.054 607.957L930.416 609.422ZM940.397 596.982C940.008 597.373 940.01 598.006 940.401 598.396C940.793 598.785 941.426 598.783 941.816 598.392L940.397 596.982ZM950.195 589.709C950.573 589.306 950.552 588.673 950.149 588.296C949.746 587.918 949.114 587.939 948.736 588.342L950.195 589.709ZM959.37 576.54C959.008 576.958 959.053 577.589 959.471 577.951C959.888 578.313 960.52 578.267 960.881 577.85L959.37 576.54ZM968.541 568.749C968.891 568.321 968.827 567.691 968.4 567.342C967.972 566.992 967.342 567.056 966.992 567.483L968.541 568.749ZM976.825 554.974C976.492 555.414 976.579 556.042 977.02 556.375C977.461 556.708 978.088 556.62 978.421 556.18L976.825 554.974ZM985.515 546.514C985.835 546.064 985.73 545.44 985.281 545.119C984.831 544.799 984.207 544.904 983.886 545.353L985.515 546.514ZM992.859 532.264C992.555 532.725 992.682 533.345 993.143 533.649C993.604 533.953 994.224 533.826 994.528 533.365L992.859 532.264ZM1000.97 523.299C1001.27 522.83 1001.12 522.213 1000.65 521.922C1000.18 521.63 999.567 521.774 999.275 522.243L1000.97 523.299ZM1007.43 508.605C1007.16 509.084 1007.32 509.695 1007.8 509.97C1008.28 510.246 1008.89 510.081 1009.17 509.602L1007.43 508.605ZM1015.01 499.15C1015.27 498.664 1015.09 498.057 1014.61 497.794C1014.12 497.53 1013.52 497.71 1013.25 498.196L1015.01 499.15ZM1020.62 484.091C1020.37 484.584 1020.57 485.185 1021.07 485.433C1021.56 485.681 1022.16 485.482 1022.41 484.989L1020.62 484.091ZM1027.64 474.268C1027.88 473.769 1027.67 473.173 1027.17 472.936C1026.67 472.699 1026.07 472.911 1025.84 473.41L1027.64 474.268ZM1032.44 458.955C1032.22 459.46 1032.45 460.05 1032.96 460.273C1033.46 460.495 1034.05 460.266 1034.27 459.76L1032.44 458.955ZM1038.99 448.724C1039.2 448.214 1038.96 447.629 1038.45 447.417C1037.94 447.205 1037.36 447.447 1037.14 447.957L1038.99 448.724ZM1043.05 433.211C1042.85 433.727 1043.1 434.305 1043.62 434.504C1044.13 434.703 1044.71 434.446 1044.91 433.931L1043.05 433.211ZM1049.1 422.756C1049.29 422.237 1049.02 421.663 1048.5 421.474C1047.99 421.285 1047.41 421.552 1047.22 422.071L1049.1 422.756ZM1052.51 407.036C1052.33 407.56 1052.61 408.127 1053.13 408.305C1053.66 408.482 1054.22 408.201 1054.4 407.678L1052.51 407.036ZM1058.17 396.258C1058.33 395.732 1058.04 395.169 1057.52 395.001C1056.99 394.832 1056.43 395.122 1056.26 395.647L1058.17 396.258ZM1060.94 380.531C1060.78 381.06 1061.08 381.617 1061.61 381.776C1062.14 381.934 1062.7 381.633 1062.86 381.104L1060.94 380.531ZM1066.2 369.624C1066.35 369.092 1066.04 368.54 1065.51 368.389C1064.98 368.238 1064.43 368.547 1064.28 369.078L1066.2 369.624ZM1068.5 353.66C1068.36 354.194 1068.68 354.742 1069.21 354.883C1069.75 355.024 1070.29 354.706 1070.43 354.172L1068.5 353.66ZM1073.42 342.614C1073.55 342.078 1073.23 341.535 1072.69 341.4C1072.16 341.265 1071.61 341.59 1071.48 342.125L1073.42 342.614ZM1075.24 326.711C1075.11 327.248 1075.44 327.787 1075.98 327.914C1076.52 328.041 1077.06 327.708 1077.18 327.17L1075.24 326.711ZM1079.88 315.497C1080 314.959 1079.66 314.423 1079.12 314.302C1078.58 314.181 1078.05 314.519 1077.93 315.058L1079.88 315.497ZM1081.34 299.433C1081.23 299.973 1081.57 300.504 1082.11 300.618C1082.65 300.733 1083.18 300.388 1083.3 299.848L1081.34 299.433ZM1085.71 288.204C1085.82 287.663 1085.47 287.135 1084.93 287.025C1084.39 286.915 1083.86 287.265 1083.75 287.806L1085.71 288.204ZM1086.84 272.204C1086.74 272.747 1087.09 273.271 1087.63 273.375C1088.18 273.48 1088.7 273.125 1088.8 272.582L1086.84 272.204ZM1091.03 260.798C1091.13 260.255 1090.77 259.733 1090.23 259.632C1089.69 259.531 1089.16 259.89 1089.06 260.433L1091.03 260.798ZM1091.9 244.746C1091.81 245.289 1092.17 245.808 1092.71 245.905C1093.26 246.001 1093.78 245.638 1093.87 245.094L1091.9 244.746ZM1095.92 233.355C1096.01 232.811 1095.64 232.294 1095.1 232.201C1094.56 232.108 1094.04 232.473 1093.94 233.018L1095.92 233.355ZM1096.58 217.308C1096.49 217.853 1096.86 218.367 1097.41 218.457C1097.95 218.547 1098.47 218.178 1098.56 217.633L1096.58 217.308ZM1100.49 205.793C1100.57 205.248 1100.2 204.734 1099.66 204.647C1099.11 204.559 1098.6 204.93 1098.51 205.475L1100.49 205.793ZM1101 189.76C1100.92 190.306 1101.29 190.817 1101.84 190.903C1102.38 190.988 1102.89 190.615 1102.98 190.069L1101 189.76ZM1104.81 178.278C1104.89 177.732 1104.52 177.221 1103.97 177.138C1103.42 177.054 1102.91 177.428 1102.83 177.974L1104.81 178.278ZM1105.23 162.211C1105.15 162.758 1105.52 163.267 1106.07 163.35C1106.62 163.432 1107.13 163.056 1107.21 162.51L1105.23 162.211ZM1108.99 150.654C1109.07 150.108 1108.7 149.599 1108.15 149.517C1107.6 149.435 1107.09 149.812 1107.01 150.358L1108.99 150.654ZM1109.36 134.63C1109.28 135.176 1109.66 135.685 1110.2 135.766C1110.75 135.848 1111.26 135.471 1111.34 134.924L1109.36 134.63ZM1113.1 123.113C1113.18 122.566 1112.8 122.058 1112.26 121.976C1111.71 121.895 1111.2 122.272 1111.12 122.818L1113.1 123.113ZM1113.47 107.045C1113.39 107.591 1113.77 108.1 1114.31 108.182C1114.86 108.263 1115.37 107.887 1115.45 107.341L1113.47 107.045ZM1117.23 95.5077C1117.31 94.9616 1116.94 94.4521 1116.39 94.3696C1115.84 94.2871 1115.33 94.663 1115.25 95.209L1117.23 95.5077ZM1117.65 79.4698C1117.56 80.0157 1117.94 80.5262 1118.48 80.61C1119.03 80.6939 1119.54 80.3193 1119.63 79.7734L1117.65 79.4698ZM1121.45 67.9684C1121.54 67.4227 1121.16 66.9113 1120.62 66.826C1120.07 66.7409 1119.56 67.1142 1119.48 67.6599L1121.45 67.9684ZM1121.97 51.9111C1121.88 52.4564 1122.25 52.9694 1122.8 53.0568C1123.34 53.1442 1123.85 52.7731 1123.94 52.2278L1121.97 51.9111ZM1125.86 40.431C1125.95 39.886 1125.58 39.3716 1125.03 39.2822C1124.49 39.1927 1123.97 39.562 1123.88 40.1069L1125.86 40.431ZM1126.51 24.3856C1126.42 24.9301 1126.78 25.4465 1127.33 25.5392C1127.87 25.6318 1128.39 25.2655 1128.48 24.7211L1126.51 24.3856ZM1130.51 12.9508C1130.61 12.4068 1130.24 11.8885 1129.7 11.7932C1129.16 11.6978 1128.64 12.0615 1128.54 12.6055L1130.51 12.9508ZM1131.35 -3.08112C1131.25 -2.53784 1131.61 -2.01685 1132.16 -1.91748C1132.7 -1.81805 1133.22 -2.17786 1133.32 -2.72113L1131.35 -3.08112ZM1135.51 -14.4692C1135.61 -15.0119 1135.25 -15.5351 1134.71 -15.6379C1134.17 -15.7407 1133.64 -15.3841 1133.54 -14.8415L1135.51 -14.4692ZM1136.58 -30.4995C1136.47 -29.9578 1136.82 -29.4313 1137.37 -29.3235C1137.91 -29.2158 1138.43 -29.5675 1138.54 -30.1092L1136.58 -30.4995ZM1140.91 -41.8102C1141.03 -42.3511 1140.68 -42.8802 1140.14 -42.992C1139.6 -43.1038 1139.07 -42.756 1138.96 -42.2152L1140.91 -41.8102ZM1142.26 -57.7938C1142.15 -57.2542 1142.49 -56.7213 1143.03 -56.6036C1143.57 -56.4859 1144.1 -56.8279 1144.22 -57.3675L1142.26 -57.7938ZM1146.82 -69.0392C1146.94 -69.5778 1146.6 -70.1136 1146.07 -70.2361C1145.53 -70.3586 1144.99 -70.0214 1144.87 -69.4828L1146.82 -69.0392ZM1148.5 -85.0169C1148.37 -84.48 1148.71 -83.9399 1149.24 -83.8105C1149.78 -83.6812 1150.32 -84.0117 1150.45 -84.5486L1148.5 -85.0169ZM1153.3 -96.1347C1153.44 -96.6703 1153.11 -97.2137 1152.58 -97.3485C1152.04 -97.4833 1151.5 -97.1584 1151.36 -96.6228L1153.3 -96.1347ZM1155.36 -112.044C1155.22 -111.51 1155.53 -110.962 1156.07 -110.82C1156.6 -110.677 1157.15 -110.994 1157.29 -111.528L1155.36 -112.044ZM1160.44 -123.059C1160.59 -123.591 1160.28 -124.143 1159.75 -124.292C1159.22 -124.44 1158.67 -124.13 1158.52 -123.598L1160.44 -123.059ZM1162.94 -138.926C1162.78 -138.397 1163.08 -137.84 1163.61 -137.683C1164.14 -137.525 1164.7 -137.827 1164.85 -138.356L1162.94 -138.926ZM1168.33 -149.766C1168.49 -150.293 1168.2 -150.853 1167.67 -151.018C1167.14 -151.182 1166.58 -150.888 1166.42 -150.36L1168.33 -149.766ZM1171.3 -165.538C1171.12 -165.014 1171.41 -164.448 1171.93 -164.274C1172.45 -164.1 1173.02 -164.384 1173.19 -164.909L1171.3 -165.538ZM1177.03 -176.217C1177.22 -176.739 1176.94 -177.309 1176.42 -177.49C1175.9 -177.672 1175.33 -177.396 1175.15 -176.874L1177.03 -176.217ZM1180.53 -191.888C1180.34 -191.37 1180.61 -190.795 1181.12 -190.603C1181.64 -190.411 1182.22 -190.675 1182.41 -191.193L1180.53 -191.888ZM1186.64 -202.344C1186.84 -202.859 1186.59 -203.438 1186.07 -203.638C1185.56 -203.838 1184.98 -203.583 1184.78 -203.068L1186.64 -202.344ZM1190.71 -217.868C1190.5 -217.358 1190.74 -216.773 1191.25 -216.562C1191.76 -216.35 1192.35 -216.593 1192.56 -217.103L1190.71 -217.868ZM1197.22 -228.085C1197.44 -228.591 1197.21 -229.18 1196.7 -229.4C1196.19 -229.62 1195.6 -229.388 1195.38 -228.881L1197.22 -228.085ZM1201.91 -243.442C1201.68 -242.941 1201.9 -242.346 1202.4 -242.114C1202.9 -241.882 1203.5 -242.1 1203.73 -242.602L1201.91 -243.442ZM1208.84 -253.391C1209.08 -253.888 1208.88 -254.486 1208.38 -254.727C1207.88 -254.969 1207.29 -254.761 1207.04 -254.264L1208.84 -253.391ZM1214.18 -268.501C1213.93 -268.01 1214.12 -267.407 1214.61 -267.153C1215.1 -266.899 1215.7 -267.091 1215.96 -267.582L1214.18 -268.501ZM1221.53 -278.112C1221.8 -278.598 1221.62 -279.205 1221.13 -279.468C1220.65 -279.731 1220.04 -279.551 1219.78 -279.066L1221.53 -278.112ZM1227.58 -293.007C1227.31 -292.529 1227.47 -291.917 1227.95 -291.641C1228.43 -291.364 1229.04 -291.528 1229.32 -292.006L1227.58 -293.007ZM1235.41 -302.297C1235.69 -302.769 1235.54 -303.384 1235.07 -303.67C1234.6 -303.957 1233.98 -303.806 1233.69 -303.333L1235.41 -302.297ZM1242.11 -316.797C1241.81 -316.333 1241.95 -315.714 1242.41 -315.414C1242.88 -315.115 1243.49 -315.249 1243.79 -315.713L1242.11 -316.797ZM1250.36 -325.655C1250.67 -326.113 1250.55 -326.734 1250.09 -327.044C1249.63 -327.353 1249.01 -327.233 1248.7 -326.775L1250.36 -325.655ZM1257.86 -339.915C1257.54 -339.466 1257.64 -338.842 1258.09 -338.519C1258.54 -338.197 1259.16 -338.299 1259.49 -338.747L1257.86 -339.915ZM1266.57 -348.36C1266.9 -348.801 1266.81 -349.428 1266.37 -349.761C1265.93 -350.093 1265.3 -350.005 1264.97 -349.564L1266.57 -348.36ZM1274.69 -362.075C1274.34 -361.644 1274.41 -361.014 1274.84 -360.669C1275.28 -360.324 1275.9 -360.393 1276.25 -360.824L1274.69 -362.075ZM1283.81 -370.043C1284.16 -370.466 1284.11 -371.097 1283.68 -371.452C1283.26 -371.807 1282.63 -371.751 1282.27 -371.328L1283.81 -370.043ZM1292.79 -383.488C1292.42 -383.075 1292.46 -382.443 1292.87 -382.076C1293.28 -381.708 1293.91 -381.744 1294.28 -382.157L1292.79 -383.488ZM1302.3 -390.928C1302.68 -391.329 1302.66 -391.962 1302.26 -392.341C1301.86 -392.72 1301.22 -392.702 1300.85 -392.3L1302.3 -390.928ZM1312.09 -403.728C1311.7 -403.342 1311.69 -402.709 1312.08 -402.314C1312.46 -401.918 1313.09 -401.91 1313.49 -402.296L1312.09 -403.728ZM1322.14 -410.496C1322.55 -410.87 1322.57 -411.503 1322.2 -411.909C1321.82 -412.315 1321.19 -412.341 1320.78 -411.966L1322.14 -410.496ZM1332.76 -422.629C1332.35 -422.269 1332.3 -421.638 1332.66 -421.219C1333.02 -420.801 1333.65 -420.753 1334.07 -421.113L1332.76 -422.629ZM1343.21 -428.788C1343.64 -429.139 1343.7 -429.769 1343.35 -430.196C1343 -430.623 1342.37 -430.685 1341.94 -430.335L1343.21 -428.788ZM1354.46 -440.301C1354.02 -439.964 1353.94 -439.336 1354.28 -438.899C1354.62 -438.462 1355.25 -438.381 1355.68 -438.719L1354.46 -440.301ZM1365.24 -445.954C1365.69 -446.283 1365.78 -446.909 1365.45 -447.353C1365.12 -447.796 1364.49 -447.889 1364.05 -447.56L1365.24 -445.954ZM1376.98 -456.895C1376.53 -456.577 1376.42 -455.954 1376.73 -455.502C1377.05 -455.05 1377.68 -454.942 1378.13 -455.26L1376.98 -456.895ZM1388.06 -462.115C1388.51 -462.425 1388.63 -463.047 1388.32 -463.504C1388.01 -463.961 1387.39 -464.081 1386.94 -463.771L1388.06 -462.115ZM1400.17 -472.533C1399.71 -472.233 1399.58 -471.614 1399.88 -471.15C1400.18 -470.686 1400.8 -470.554 1401.26 -470.853L1400.17 -472.533ZM1411.45 -477.33C1411.92 -477.622 1412.06 -478.239 1411.77 -478.708C1411.48 -479.176 1410.86 -479.319 1410.39 -479.026L1411.45 -477.33ZM1423.95 -487.311C1423.48 -487.027 1423.32 -486.413 1423.61 -485.939C1423.89 -485.465 1424.51 -485.311 1424.98 -485.594L1423.95 -487.311ZM1435.32 -491.68C1435.8 -491.956 1435.96 -492.568 1435.69 -493.046C1435.41 -493.524 1434.8 -493.687 1434.32 -493.41L1435.32 -491.68ZM1448.23 -501.302C1447.75 -501.034 1447.58 -500.425 1447.85 -499.942C1448.11 -499.459 1448.72 -499.285 1449.21 -499.554L1448.23 -501.302ZM1459.67 -505.282C1460.16 -505.544 1460.34 -506.151 1460.08 -506.637C1459.82 -507.123 1459.21 -507.304 1458.72 -507.042L1459.67 -505.282ZM1472.95 -514.563C1472.46 -514.309 1472.27 -513.705 1472.53 -513.215C1472.78 -512.725 1473.38 -512.533 1473.87 -512.787L1472.95 -514.563ZM1484.45 -518.187C1484.94 -518.435 1485.14 -519.036 1484.89 -519.53C1484.64 -520.023 1484.04 -520.222 1483.55 -519.973L1484.45 -518.187ZM1497.92 -527.07C1497.42 -526.829 1497.22 -526.231 1497.46 -525.734C1497.7 -525.237 1498.3 -525.029 1498.79 -525.27L1497.92 -527.07ZM1509.6 -530.432C1510.1 -530.667 1510.32 -531.263 1510.08 -531.762C1509.85 -532.262 1509.25 -532.477 1508.75 -532.241L1509.6 -530.432ZM1523.22 -538.928C1522.72 -538.699 1522.49 -538.107 1522.72 -537.604C1522.95 -537.101 1523.54 -536.878 1524.05 -537.106L1523.22 -538.928ZM1535.03 -542.019C1535.54 -542.242 1535.77 -542.832 1535.55 -543.338C1535.32 -543.843 1534.73 -544.072 1534.23 -543.849L1535.03 -542.019ZM1548.85 -550.177C1548.34 -549.961 1548.1 -549.374 1548.32 -548.866C1548.54 -548.357 1549.12 -548.12 1549.63 -548.336L1548.85 -550.177ZM1560.67 -552.961C1561.18 -553.172 1561.43 -553.757 1561.22 -554.267C1561 -554.778 1560.42 -555.021 1559.91 -554.81L1560.67 -552.961ZM1574.77 -560.833C1574.25 -560.629 1574 -560.047 1574.21 -559.534C1574.41 -559.021 1574.99 -558.77 1575.51 -558.974L1574.77 -560.833ZM1586.61 -563.328C1587.12 -563.527 1587.38 -564.106 1587.18 -564.621C1586.98 -565.136 1586.4 -565.393 1585.89 -565.193L1586.61 -563.328ZM1600.86 -570.874C1600.34 -570.681 1600.08 -570.106 1600.27 -569.588C1600.46 -569.07 1601.04 -568.807 1601.56 -569L1600.86 -570.874ZM1612.8 -573.125C1613.32 -573.312 1613.59 -573.886 1613.4 -574.405C1613.21 -574.924 1612.64 -575.193 1612.12 -575.005L1612.8 -573.125ZM1627.16 -580.338C1626.64 -580.156 1626.36 -579.586 1626.54 -579.065C1626.72 -578.543 1627.29 -578.267 1627.82 -578.449L1627.16 -580.338ZM1639.17 -582.337C1639.69 -582.513 1639.97 -583.081 1639.8 -583.604C1639.62 -584.127 1639.05 -584.408 1638.53 -584.232L1639.17 -582.337ZM1653.69 -589.245C1653.17 -589.075 1652.88 -588.511 1653.05 -587.985C1653.22 -587.46 1653.78 -587.172 1654.31 -587.342L1653.69 -589.245ZM1665.71 -590.977C1666.23 -591.142 1666.53 -591.703 1666.36 -592.23C1666.2 -592.757 1665.63 -593.05 1665.11 -592.885L1665.71 -590.977ZM1680.42 -597.59C1679.89 -597.431 1679.59 -596.873 1679.75 -596.344C1679.91 -595.816 1680.47 -595.516 1681 -595.675L1680.42 -597.59ZM1692.45 -599.063C1692.98 -599.217 1693.29 -599.772 1693.13 -600.302C1692.98 -600.832 1692.42 -601.137 1691.89 -600.983L1692.45 -599.063ZM1707.27 -605.355C1706.74 -605.207 1706.43 -604.656 1706.57 -604.124C1706.72 -603.592 1707.27 -603.28 1707.81 -603.428L1707.27 -605.355ZM1719.37 -606.585C1719.9 -606.728 1720.22 -607.276 1720.08 -607.809C1719.93 -608.343 1719.38 -608.659 1718.85 -608.516L1719.37 -606.585ZM1734.3 -612.559C1733.77 -612.423 1733.44 -611.878 1733.58 -611.343C1733.72 -610.808 1734.26 -610.485 1734.8 -610.621L1734.3 -612.559ZM1746.41 -613.529C1746.95 -613.66 1747.28 -614.202 1747.14 -614.738C1747.01 -615.275 1746.47 -615.603 1745.93 -615.471L1746.41 -613.529ZM1761.49 -619.188C1760.95 -619.063 1760.61 -618.526 1760.74 -617.988C1760.86 -617.45 1761.4 -617.115 1761.94 -617.24L1761.49 -619.188ZM1773.61 -619.898C1774.15 -620.018 1774.49 -620.553 1774.37 -621.092C1774.25 -621.631 1773.72 -621.97 1773.18 -621.85L1773.61 -619.898ZM1788.8 -625.229C1788.26 -625.115 1787.91 -624.585 1788.02 -624.045C1788.14 -623.504 1788.67 -623.158 1789.21 -623.271L1788.8 -625.229ZM1800.94 -625.675C1801.48 -625.783 1801.83 -626.31 1801.72 -626.851C1801.61 -627.393 1801.09 -627.744 1800.55 -627.636L1800.94 -625.675ZM1816.25 -630.671C1815.7 -630.57 1815.35 -630.047 1815.45 -629.504C1815.55 -628.962 1816.07 -628.604 1816.61 -628.705L1816.25 -630.671ZM1828.38 -630.842C1828.92 -630.939 1829.29 -631.457 1829.19 -632.001C1829.09 -632.545 1828.57 -632.908 1828.03 -632.812L1828.38 -630.842ZM1843.8 -635.492C1843.26 -635.403 1842.89 -634.889 1842.98 -634.344C1843.07 -633.799 1843.58 -633.429 1844.13 -633.518L1843.8 -635.492ZM1855.95 -635.386C1856.5 -635.47 1856.87 -635.98 1856.79 -636.526C1856.71 -637.072 1856.2 -637.447 1855.65 -637.363L1855.95 -635.386ZM1871.44 -639.666C1870.89 -639.59 1870.51 -639.085 1870.58 -638.538C1870.66 -637.991 1871.16 -637.609 1871.71 -637.685L1871.44 -639.666ZM1883.61 -639.275C1884.16 -639.345 1884.55 -639.846 1884.48 -640.394C1884.41 -640.942 1883.9 -641.329 1883.36 -641.259L1883.61 -639.275ZM1899.22 -643.18C1898.67 -643.117 1898.28 -642.622 1898.34 -642.073C1898.41 -641.524 1898.9 -641.13 1899.45 -641.193L1899.22 -643.18ZM1911.32 -642.478C1911.87 -642.535 1912.27 -643.026 1912.21 -643.575C1912.15 -644.125 1911.66 -644.524 1911.11 -644.468L1911.32 -642.478ZM1927.07 -645.989C1926.52 -645.941 1926.12 -645.456 1926.17 -644.905C1926.21 -644.355 1926.7 -643.948 1927.25 -643.997L1927.07 -645.989ZM1939.16 -644.973C1939.71 -645.015 1940.12 -645.495 1940.08 -646.046C1940.04 -646.596 1939.56 -647.009 1939.01 -646.967L1939.16 -644.973ZM1954.96 -648.056C1954.4 -648.022 1953.98 -647.548 1954.02 -646.997C1954.05 -646.446 1954.53 -646.026 1955.08 -646.059L1954.96 -648.056ZM1967.05 -646.709C1967.6 -646.735 1968.03 -647.204 1968 -647.755C1967.98 -648.307 1967.51 -648.733 1966.96 -648.706L1967.05 -646.709ZM1982.88 -649.34C1982.33 -649.322 1981.9 -648.861 1981.91 -648.309C1981.93 -647.757 1982.39 -647.323 1982.94 -647.341L1982.88 -649.34ZM1994.94 -647.64C1995.5 -647.65 1995.94 -648.106 1995.93 -648.658C1995.92 -649.21 1995.46 -649.649 1994.91 -649.639L1994.94 -647.64ZM2010.91 -649.791C2010.35 -649.791 2009.91 -649.343 2009.91 -648.79C2009.91 -648.238 2010.35 -647.791 2010.91 -647.791L2010.91 -649.791ZM2022.8 -647.715C2023.35 -647.708 2023.81 -648.149 2023.81 -648.702C2023.82 -649.254 2023.38 -649.707 2022.83 -649.715L2022.8 -647.715ZM2038.9 -649.346C2038.35 -649.364 2037.89 -648.932 2037.87 -648.38C2037.85 -647.828 2038.28 -647.365 2038.83 -647.347L2038.9 -649.346ZM2050.76 -646.869C2051.32 -646.843 2051.78 -647.269 2051.81 -647.82C2051.84 -648.372 2051.41 -648.841 2050.86 -648.867L2050.76 -646.869ZM2066.82 -647.942C2066.27 -647.979 2065.79 -647.563 2065.76 -647.012C2065.72 -646.461 2066.14 -645.984 2066.69 -645.946L2066.82 -647.942ZM2078.65 -645.03C2079.2 -644.984 2079.68 -645.392 2079.73 -645.942C2079.77 -646.493 2079.37 -646.977 2078.81 -647.023L2078.65 -645.03ZM2094.64 -645.503C2094.09 -645.562 2093.6 -645.165 2093.54 -644.616C2093.48 -644.066 2093.88 -643.573 2094.43 -643.514L2094.64 -645.503ZM2106.39 -642.121C2106.94 -642.052 2107.44 -642.44 2107.51 -642.988C2107.58 -643.536 2107.19 -644.036 2106.64 -644.105L2106.39 -642.121ZM2122.47 -641.921C2121.92 -642.004 2121.41 -641.628 2121.33 -641.081C2121.25 -640.535 2121.62 -640.026 2122.17 -639.944L2122.47 -641.921ZM2133.96 -638.05C2134.5 -637.958 2135.02 -638.324 2135.11 -638.868C2135.2 -639.412 2134.84 -639.929 2134.29 -640.022L2133.96 -638.05ZM2150.08 -637.11C2149.54 -637.217 2149.01 -636.866 2148.9 -636.324C2148.79 -635.782 2149.15 -635.256 2149.69 -635.148L2150.08 -637.11ZM2161.31 -632.711C2161.85 -632.591 2162.38 -632.932 2162.5 -633.471C2162.62 -634.011 2162.28 -634.544 2161.74 -634.663L2161.31 -632.711ZM2177.39 -630.958C2176.86 -631.093 2176.32 -630.769 2176.18 -630.234C2176.04 -629.698 2176.37 -629.154 2176.9 -629.019L2177.39 -630.958ZM2188.42 -625.962C2188.96 -625.815 2189.51 -626.126 2189.66 -626.658C2189.8 -627.19 2189.49 -627.741 2188.96 -627.889L2188.42 -625.962ZM2204.32 -623.343C2203.8 -623.509 2203.23 -623.216 2203.07 -622.689C2202.9 -622.162 2203.2 -621.601 2203.72 -621.435L2204.32 -623.343ZM2215.09 -617.701C2215.61 -617.521 2216.18 -617.799 2216.36 -618.322C2216.54 -618.844 2216.26 -619.413 2215.74 -619.592L2215.09 -617.701ZM2230.74 -614.132C2230.22 -614.33 2229.65 -614.074 2229.45 -613.558C2229.25 -613.043 2229.5 -612.464 2230.02 -612.266L2230.74 -614.132ZM2241.15 -607.793C2241.66 -607.579 2242.24 -607.819 2242.46 -608.328C2242.67 -608.838 2242.43 -609.424 2241.92 -609.637L2241.15 -607.793ZM2256.49 -603.183C2255.99 -603.417 2255.39 -603.201 2255.16 -602.701C2254.93 -602.201 2255.14 -601.606 2255.64 -601.372L2256.49 -603.183ZM2266.44 -596.105C2266.93 -595.855 2267.53 -596.051 2267.78 -596.544C2268.03 -597.036 2267.84 -597.638 2267.35 -597.888L2266.44 -596.105ZM2281.4 -590.344C2280.92 -590.616 2280.31 -590.447 2280.04 -589.967C2279.77 -589.486 2279.94 -588.876 2280.42 -588.604L2281.4 -590.344ZM2290.74 -582.514C2291.21 -582.225 2291.83 -582.372 2292.12 -582.842C2292.41 -583.313 2292.26 -583.929 2291.79 -584.218L2290.74 -582.514ZM2305.2 -575.512C2304.75 -575.824 2304.13 -575.708 2303.81 -575.252C2303.5 -574.797 2303.62 -574.174 2304.07 -573.862L2305.2 -575.512ZM2313.8 -566.923C2314.24 -566.594 2314.87 -566.686 2315.2 -567.129C2315.53 -567.572 2315.43 -568.199 2314.99 -568.528L2313.8 -566.923ZM2327.59 -558.631C2327.16 -558.983 2326.53 -558.925 2326.18 -558.5C2325.82 -558.075 2325.88 -557.445 2326.31 -557.092L2327.59 -558.631ZM-344.242 802.729C-342.766 801.346 -341.27 799.983 -339.753 798.641L-341.078 797.143C-342.61 798.498 -344.12 799.874 -345.609 801.27L-344.242 802.729ZM-327.221 788.365C-324.008 785.924 -320.716 783.561 -317.346 781.274L-318.469 779.619C-321.868 781.926 -325.19 784.31 -328.431 786.773L-327.221 788.365ZM-303.645 772.643C-300.171 770.613 -296.623 768.653 -293.004 766.761L-293.93 764.989C-297.577 766.895 -301.152 768.87 -304.654 770.917L-303.645 772.643ZM-278.408 759.68C-274.742 758.03 -271.01 756.443 -267.213 754.917L-267.959 753.061C-271.781 754.597 -275.538 756.195 -279.229 757.856L-278.408 759.68ZM-251.988 749.241C-248.188 747.93 -244.33 746.674 -240.413 745.471L-241 743.56C-244.938 744.769 -248.818 746.032 -252.64 747.35L-251.988 749.241ZM-224.809 741.043C-220.916 740.024 -216.97 739.054 -212.972 738.13L-213.422 736.182C-217.438 737.109 -221.403 738.084 -225.315 739.108L-224.809 741.043ZM-197.098 734.762C-193.145 733.995 -189.144 733.269 -185.097 732.585L-185.43 730.613C-189.493 731.3 -193.509 732.028 -197.48 732.799L-197.098 734.762ZM-169.047 730.122C-165.053 729.568 -161.017 729.052 -156.939 728.572L-157.173 726.585C-161.264 727.067 -165.314 727.585 -169.322 728.141L-169.047 730.122ZM-140.783 726.879C-136.765 726.508 -132.709 726.171 -128.617 725.865L-128.766 723.87C-132.87 724.177 -136.937 724.516 -140.967 724.888L-140.783 726.879ZM-112.385 724.83C-108.368 724.617 -104.317 724.432 -100.233 724.276L-100.31 722.277C-104.404 722.434 -108.464 722.619 -112.492 722.833L-112.385 724.83ZM-83.9787 723.806C-79.9478 723.726 -75.8861 723.672 -71.7941 723.643L-71.8082 721.643C-75.9085 721.672 -79.9787 721.726 -84.0184 721.806L-83.9787 723.806ZM-55.5301 723.659C-51.4865 723.695 -47.4149 723.754 -43.3154 723.836L-43.2755 721.836C-47.3822 721.754 -51.4613 721.695 -55.5124 721.659L-55.5301 723.659ZM-27.0478 724.274C-23.0129 724.411 -18.9524 724.568 -14.8664 724.745L-14.7797 722.747C-18.8719 722.569 -22.9389 722.412 -26.9803 722.276L-27.0478 724.274ZM1.37366 725.549C5.40845 725.773 9.46683 726.015 13.5486 726.276L13.6762 724.28C9.58896 724.019 5.52493 723.776 1.48444 723.552L1.37366 725.549ZM29.7859 727.401C33.8254 727.703 37.887 728.021 41.9702 728.355L42.1336 726.362C38.0456 726.027 33.9791 725.708 29.9345 725.407L29.7859 727.401ZM58.1642 729.76C62.1902 730.128 66.2363 730.511 70.3025 730.909L70.4974 728.918C66.427 728.52 62.3765 728.136 58.3461 727.768L58.1642 729.76ZM86.4986 732.563C90.5278 732.991 94.576 733.432 98.6428 733.888L98.8655 731.901C94.795 731.444 90.743 731.002 86.7098 730.574L86.4986 732.563ZM114.792 735.758C116.818 736 118.848 736.245 120.883 736.493L121.125 734.508C119.088 734.259 117.056 734.014 115.029 733.772L114.792 735.758ZM120.883 736.493C122.954 736.746 125.02 736.996 127.082 737.244L127.321 735.258C125.26 735.01 123.195 734.76 121.125 734.508L120.883 736.493ZM143.482 739.173C147.558 739.642 151.616 740.102 155.655 740.551L155.876 738.564C151.839 738.114 147.784 737.655 143.711 737.186L143.482 739.173ZM171.718 742.297C175.709 742.721 179.683 743.135 183.639 743.539L183.842 741.549C179.889 741.145 175.918 740.732 171.929 740.309L171.718 742.297ZM199.368 745.103C203.277 745.481 207.168 745.85 211.041 746.208L211.225 744.217C207.355 743.858 203.467 743.49 199.561 743.112L199.368 745.103ZM226.44 747.593C230.267 747.927 234.076 748.25 237.867 748.565L238.032 746.571C234.244 746.257 230.437 745.934 226.614 745.601L226.44 747.593ZM254.277 749.874C258.392 750.19 262.486 750.494 266.56 750.786L266.703 748.792C262.633 748.499 258.542 748.195 254.43 747.88L254.277 749.874ZM282.742 751.896C286.76 752.159 290.757 752.41 294.734 752.65L294.854 750.654C290.881 750.414 286.887 750.163 282.872 749.901L282.742 751.896ZM310.531 753.55C314.453 753.76 318.355 753.959 322.237 754.147L322.333 752.15C318.455 751.962 314.557 751.763 310.638 751.553L310.531 753.55ZM337.655 754.84C341.53 755 345.385 755.149 349.22 755.287L349.292 753.288C345.461 753.151 341.609 753.002 337.737 752.841L337.655 754.84ZM365.792 755.817C369.903 755.931 373.989 756.033 378.052 756.121L378.095 754.122C374.037 754.033 369.954 753.932 365.848 753.817L365.792 755.817ZM394.175 756.405C398.174 756.458 402.149 756.499 406.101 756.526L406.115 754.526C402.168 754.499 398.197 754.458 394.202 754.405L394.175 756.405ZM421.782 756.567C425.672 756.56 429.537 756.541 433.38 756.508L433.363 754.508C429.525 754.541 425.664 754.56 421.779 754.567L421.782 756.567ZM448.898 756.305C453.072 756.231 457.218 756.142 461.336 756.037L461.286 754.037C457.173 754.142 453.032 754.232 448.863 754.306L448.898 756.305ZM477.661 755.536C481.705 755.39 485.722 755.23 489.711 755.054L489.623 753.056C485.639 753.231 481.628 753.392 477.589 753.537L477.661 755.536ZM505.522 754.27C509.438 754.054 513.328 753.823 517.19 753.577L517.063 751.581C513.206 751.827 509.323 752.057 505.412 752.273L505.522 754.27ZM532.497 752.515C536.599 752.207 540.67 751.881 544.711 751.538L544.542 749.545C540.508 749.887 536.443 750.213 532.347 750.521L532.497 752.515ZM561.042 750.042C565.083 749.645 569.091 749.23 573.068 748.797L572.851 746.809C568.882 747.241 564.88 747.655 560.846 748.052L561.042 750.042ZM588.807 746.974C592.7 746.495 596.561 745.998 600.392 745.485L600.126 743.502C596.303 744.015 592.448 744.51 588.562 744.989L588.807 746.974ZM615.6 743.332C619.737 742.715 623.838 742.077 627.901 741.418L627.582 739.444C623.526 740.101 619.434 740.738 615.305 741.354L615.6 743.332ZM643.96 738.675C647.926 737.963 651.855 737.229 655.749 736.476L655.369 734.513C651.484 735.264 647.564 735.996 643.606 736.707L643.96 738.675ZM671.132 733.357C674.93 732.551 678.692 731.725 682.42 730.879L681.977 728.929C678.259 729.773 674.505 730.597 670.716 731.401L671.132 733.357ZM698.165 727.139C702.156 726.148 706.106 725.133 710.014 724.094L709.5 722.161C705.603 723.197 701.664 724.209 697.683 725.198L698.165 727.139ZM725.426 719.819C729.225 718.719 732.983 717.597 736.7 716.452L736.112 714.541C732.405 715.682 728.658 716.801 724.87 717.898L725.426 719.819ZM751.411 711.734C755.359 710.417 759.259 709.073 763.113 707.703L762.443 705.819C758.602 707.185 754.714 708.524 750.778 709.837L751.411 711.734ZM778.28 702.084C782.011 700.644 785.695 699.179 789.335 697.688L788.577 695.837C784.95 697.323 781.278 698.783 777.56 700.218L778.28 702.084ZM803.653 691.59C807.361 689.949 811.02 688.28 814.63 686.584L813.779 684.774C810.183 686.463 806.538 688.126 802.844 689.761L803.653 691.59ZM829.203 679.456C832.78 677.636 836.306 675.788 839.783 673.911L838.833 672.151C835.37 674.02 831.858 675.861 828.296 677.673L829.203 679.456ZM853.431 666.258C856.921 664.225 860.359 662.162 863.745 660.069L862.694 658.368C859.322 660.451 855.899 662.505 852.424 664.53L853.431 666.258ZM877.341 651.33C880.669 649.105 883.945 646.849 887.169 644.565L886.012 642.933C882.803 645.207 879.542 647.452 876.229 649.667L877.341 651.33ZM899.792 635.269C903.024 632.797 906.201 630.292 909.324 627.757L908.063 626.204C904.955 628.728 901.793 631.22 898.577 633.681L899.792 635.269ZM921.589 617.402C924.584 614.772 927.526 612.112 930.416 609.422L929.054 607.957C926.177 610.635 923.25 613.282 920.269 615.899L921.589 617.402ZM941.816 598.392C944.662 595.528 947.455 592.634 950.195 589.709L948.736 588.342C946.009 591.252 943.23 594.132 940.397 596.982L941.816 598.392ZM960.881 577.85C963.485 574.846 966.037 571.812 968.541 568.749L966.992 567.483C964.501 570.531 961.961 573.551 959.37 576.54L960.881 577.85ZM978.421 556.18C980.834 552.986 983.198 549.764 985.515 546.514L983.886 545.353C981.58 548.589 979.227 551.796 976.825 554.974L978.421 556.18ZM994.528 533.365C996.723 530.036 998.87 526.681 1000.97 523.299L999.275 522.243C997.181 525.61 995.043 528.951 992.859 532.264L994.528 533.365ZM1009.17 509.602C1011.16 506.144 1013.1 502.659 1015.01 499.15L1013.25 498.196C1011.35 501.691 1009.42 505.161 1007.43 508.605L1009.17 509.602ZM1022.41 484.989C1024.19 481.439 1025.94 477.865 1027.64 474.268L1025.84 473.41C1024.14 476.994 1022.4 480.554 1020.62 484.091L1022.41 484.989ZM1034.27 459.76C1035.88 456.103 1037.45 452.424 1038.99 448.724L1037.14 447.957C1035.61 451.645 1034.05 455.311 1032.44 458.955L1034.27 459.76ZM1044.91 433.931C1046.34 430.225 1047.74 426.5 1049.1 422.756L1047.22 422.071C1045.86 425.804 1044.47 429.518 1043.05 433.211L1044.91 433.931ZM1054.4 407.678C1055.68 403.89 1056.94 400.083 1058.17 396.258L1056.26 395.647C1055.04 399.462 1053.79 403.258 1052.51 407.036L1054.4 407.678ZM1062.86 381.104C1064 377.293 1065.11 373.466 1066.2 369.624L1064.28 369.078C1063.19 372.912 1062.08 376.73 1060.94 380.531L1062.86 381.104ZM1070.43 354.172C1071.45 350.334 1072.44 346.481 1073.42 342.614L1071.48 342.125C1070.51 345.985 1069.51 349.83 1068.5 353.66L1070.43 354.172ZM1077.18 327.17C1078.1 323.292 1079 319.401 1079.88 315.497L1077.93 315.058C1077.05 318.955 1076.15 322.839 1075.24 326.711L1077.18 327.17ZM1083.3 299.848C1084.12 295.977 1084.92 292.096 1085.71 288.204L1083.75 287.806C1082.96 291.692 1082.16 295.568 1081.34 299.433L1083.3 299.848ZM1088.8 272.582C1089.56 268.664 1090.3 264.735 1091.03 260.798L1089.06 260.433C1088.33 264.366 1087.59 268.29 1086.84 272.204L1088.8 272.582ZM1093.87 245.094C1094.56 241.189 1095.24 237.276 1095.92 233.355L1093.94 233.018C1093.27 236.935 1092.59 240.845 1091.9 244.746L1093.87 245.094ZM1098.56 217.633C1099.21 213.693 1099.85 209.746 1100.49 205.793L1098.51 205.475C1097.88 209.426 1097.23 213.37 1096.58 217.308L1098.56 217.633ZM1102.98 190.069C1103.59 186.144 1104.2 182.213 1104.81 178.278L1102.83 177.974C1102.22 181.908 1101.62 185.837 1101 189.76L1102.98 190.069ZM1107.21 162.51C1107.8 158.562 1108.4 154.61 1108.99 150.654L1107.01 150.358C1106.42 154.313 1105.83 158.265 1105.23 162.211L1107.21 162.51ZM1111.34 134.924C1111.92 130.992 1112.51 127.051 1113.1 123.113L1111.12 122.818C1110.53 126.76 1109.95 130.694 1109.36 134.63L1111.34 134.924ZM1115.45 107.341C1116.04 103.398 1116.63 99.4535 1117.23 95.5077L1115.25 95.209C1114.66 99.1558 1114.06 103.101 1113.47 107.045L1115.45 107.341ZM1119.63 79.7734C1120.23 75.8389 1120.84 71.9037 1121.45 67.9684L1119.48 67.6599C1118.86 71.5969 1118.25 75.5338 1117.65 79.4698L1119.63 79.7734ZM1123.94 52.2278C1124.57 48.2947 1125.21 44.3623 1125.86 40.431L1123.88 40.1069C1123.24 44.0409 1122.6 47.9758 1121.97 51.9111L1123.94 52.2278ZM1128.48 24.7211C1129.15 20.7957 1129.83 16.8721 1130.51 12.9508L1128.54 12.6055C1127.86 16.5303 1127.18 20.4572 1126.51 24.3856L1128.48 24.7211ZM1133.32 -2.72113C1134.04 -6.64032 1134.76 -10.5565 1135.51 -14.4692L1133.54 -14.8415C1132.8 -10.9245 1132.07 -7.00421 1131.35 -3.08112L1133.32 -2.72113ZM1138.54 -30.1092C1139.32 -34.0139 1140.11 -37.9144 1140.91 -41.8102L1138.96 -42.2152C1138.15 -38.3143 1137.36 -34.4089 1136.58 -30.4995L1138.54 -30.1092ZM1144.22 -57.3675C1145.07 -61.2637 1145.93 -65.1544 1146.82 -69.0392L1144.87 -69.4828C1143.98 -65.592 1143.12 -61.6955 1142.26 -57.7938L1144.22 -57.3675ZM1150.45 -84.5486C1151.38 -88.4174 1152.33 -92.2796 1153.3 -96.1347L1151.36 -96.6228C1150.39 -92.7609 1149.44 -88.8922 1148.5 -85.0169L1150.45 -84.5486ZM1157.29 -111.528C1158.32 -115.38 1159.37 -119.224 1160.44 -123.059L1158.52 -123.598C1157.44 -119.755 1156.39 -115.903 1155.36 -112.044L1157.29 -111.528ZM1164.85 -138.356C1165.99 -142.169 1167.14 -145.972 1168.33 -149.766L1166.42 -150.36C1165.23 -146.558 1164.07 -142.747 1162.94 -138.926L1164.85 -138.356ZM1173.19 -164.909C1174.45 -168.689 1175.73 -172.458 1177.03 -176.217L1175.15 -176.874C1173.84 -173.106 1172.55 -169.327 1171.3 -165.538L1173.19 -164.909ZM1182.41 -191.193C1183.79 -194.922 1185.2 -198.639 1186.64 -202.344L1184.78 -203.068C1183.33 -199.353 1181.92 -195.626 1180.53 -191.888L1182.41 -191.193ZM1192.56 -217.103C1194.08 -220.777 1195.63 -224.437 1197.22 -228.085L1195.38 -228.881C1193.79 -225.223 1192.24 -221.552 1190.71 -217.868L1192.56 -217.103ZM1203.73 -242.602C1205.4 -246.212 1207.1 -249.809 1208.84 -253.391L1207.04 -254.264C1205.3 -250.671 1203.59 -247.063 1201.91 -243.442L1203.73 -242.602ZM1215.96 -267.582C1217.78 -271.107 1219.64 -274.618 1221.53 -278.112L1219.78 -279.066C1217.87 -275.56 1216.01 -272.038 1214.18 -268.501L1215.96 -267.582ZM1229.32 -292.006C1231.31 -295.453 1233.34 -298.883 1235.41 -302.297L1233.69 -303.333C1231.62 -299.908 1229.58 -296.465 1227.58 -293.007L1229.32 -292.006ZM1243.79 -315.713C1245.94 -319.044 1248.13 -322.359 1250.36 -325.655L1248.7 -326.775C1246.46 -323.466 1244.27 -320.14 1242.11 -316.797L1243.79 -315.713ZM1259.49 -338.747C1261.81 -341.969 1264.16 -345.174 1266.57 -348.36L1264.97 -349.564C1262.56 -346.366 1260.19 -343.149 1257.86 -339.915L1259.49 -338.747ZM1276.25 -360.824C1278.73 -363.916 1281.24 -366.989 1283.81 -370.043L1282.27 -371.328C1279.7 -368.263 1277.17 -365.178 1274.69 -362.075L1276.25 -360.824ZM1294.28 -382.157C1295.62 -383.658 1296.97 -385.154 1298.33 -386.645L1296.85 -387.993C1295.48 -386.496 1294.13 -384.994 1292.79 -383.488L1294.28 -382.157ZM1298.33 -386.645C1299.63 -388.074 1300.96 -389.502 1302.3 -390.928L1300.85 -392.3C1299.49 -390.866 1298.16 -389.43 1296.85 -387.993L1298.33 -386.645ZM1313.49 -402.296C1316.3 -405.037 1319.18 -407.771 1322.14 -410.496L1320.78 -411.966C1317.82 -409.229 1314.92 -406.482 1312.09 -403.728L1313.49 -402.296ZM1334.07 -421.113C1337.05 -423.681 1340.1 -426.239 1343.21 -428.788L1341.94 -430.335C1338.82 -427.776 1335.76 -425.207 1332.76 -422.629L1334.07 -421.113ZM1355.68 -438.719C1358.82 -441.141 1362 -443.552 1365.24 -445.954L1364.05 -447.56C1360.8 -445.151 1357.6 -442.731 1354.46 -440.301L1355.68 -438.719ZM1378.13 -455.26C1381.39 -457.556 1384.7 -459.841 1388.06 -462.115L1386.94 -463.771C1383.57 -461.49 1380.25 -459.198 1376.98 -456.895L1378.13 -455.26ZM1401.26 -470.853C1404.62 -473.023 1408.02 -475.182 1411.45 -477.33L1410.39 -479.026C1406.95 -476.873 1403.54 -474.709 1400.17 -472.533L1401.26 -470.853ZM1424.98 -485.594C1428.39 -487.634 1431.84 -489.663 1435.32 -491.68L1434.32 -493.41C1430.83 -491.389 1427.37 -489.356 1423.95 -487.311L1424.98 -485.594ZM1449.21 -499.554C1452.66 -501.475 1456.15 -503.385 1459.67 -505.282L1458.72 -507.042C1455.2 -505.141 1451.7 -503.227 1448.23 -501.302L1449.21 -499.554ZM1473.87 -512.787C1477.37 -514.599 1480.9 -516.399 1484.45 -518.187L1483.55 -519.973C1479.99 -518.182 1476.46 -516.379 1472.95 -514.563L1473.87 -512.787ZM1498.79 -525.27C1502.37 -527.003 1505.98 -528.724 1509.6 -530.432L1508.75 -532.241C1505.12 -530.53 1501.51 -528.806 1497.92 -527.07L1498.79 -525.27ZM1524.05 -537.106C1527.69 -538.757 1531.35 -540.395 1535.03 -542.019L1534.23 -543.849C1530.54 -542.222 1526.87 -540.581 1523.22 -538.928L1524.05 -537.106ZM1549.63 -548.336C1553.29 -549.892 1556.97 -551.433 1560.67 -552.961L1559.91 -554.81C1556.2 -553.279 1552.52 -551.735 1548.85 -550.177L1549.63 -548.336ZM1575.51 -558.974C1579.19 -560.44 1582.89 -561.891 1586.61 -563.328L1585.89 -565.193C1582.16 -563.754 1578.46 -562.3 1574.77 -560.833L1575.51 -558.974ZM1601.56 -569C1605.29 -570.389 1609.04 -571.764 1612.8 -573.125L1612.12 -575.005C1608.35 -573.643 1604.6 -572.266 1600.86 -570.874L1601.56 -569ZM1627.82 -578.449C1631.59 -579.76 1635.37 -581.056 1639.17 -582.337L1638.53 -584.232C1634.73 -582.949 1630.94 -581.651 1627.16 -580.338L1627.82 -578.449ZM1654.31 -587.342C1658.1 -588.569 1661.9 -589.781 1665.71 -590.977L1665.11 -592.885C1661.29 -591.687 1657.49 -590.474 1653.69 -589.245L1654.31 -587.342ZM1681 -595.675C1684.81 -596.82 1688.63 -597.949 1692.45 -599.063L1691.89 -600.983C1688.06 -599.868 1684.24 -598.737 1680.42 -597.59L1681 -595.675ZM1707.81 -603.428C1711.65 -604.497 1715.51 -605.549 1719.37 -606.585L1718.85 -608.516C1714.98 -607.479 1711.12 -606.425 1707.27 -605.355L1707.81 -603.428ZM1734.8 -610.621C1738.66 -611.608 1742.53 -612.577 1746.41 -613.529L1745.93 -615.471C1742.05 -614.518 1738.17 -613.547 1734.3 -612.559L1734.8 -610.621ZM1761.94 -617.24C1765.83 -618.144 1769.72 -619.03 1773.61 -619.898L1773.18 -621.85C1769.28 -620.981 1765.38 -620.094 1761.49 -619.188L1761.94 -617.24ZM1789.21 -623.271C1793.11 -624.091 1797.02 -624.892 1800.94 -625.675L1800.55 -627.636C1796.63 -626.852 1792.71 -626.05 1788.8 -625.229L1789.21 -623.271ZM1816.61 -628.705C1820.53 -629.437 1824.46 -630.15 1828.38 -630.842L1828.03 -632.812C1824.1 -632.118 1820.17 -631.404 1816.25 -630.671L1816.61 -628.705ZM1844.13 -633.518C1848.07 -634.161 1852.01 -634.784 1855.95 -635.386L1855.65 -637.363C1851.7 -636.76 1847.75 -636.136 1843.8 -635.492L1844.13 -633.518ZM1871.71 -637.685C1875.68 -638.237 1879.65 -638.767 1883.61 -639.275L1883.36 -641.259C1879.39 -640.75 1875.41 -640.219 1871.44 -639.666L1871.71 -637.685ZM1899.45 -641.193C1903.41 -641.643 1907.36 -642.072 1911.32 -642.478L1911.11 -644.468C1907.15 -644.061 1903.19 -643.631 1899.22 -643.18L1899.45 -641.193ZM1927.25 -643.997C1931.23 -644.345 1935.2 -644.671 1939.16 -644.973L1939.01 -646.967C1935.04 -646.664 1931.06 -646.338 1927.07 -645.989L1927.25 -643.997ZM1955.08 -646.059C1959.08 -646.3 1963.07 -646.517 1967.05 -646.709L1966.96 -648.706C1962.96 -648.514 1958.96 -648.297 1954.96 -648.056L1955.08 -646.059ZM1982.94 -647.341C1986.95 -647.467 1990.95 -647.566 1994.94 -647.64L1994.91 -649.639C1990.91 -649.566 1986.9 -649.466 1982.88 -649.34L1982.94 -647.341ZM2010.91 -647.791C2014.88 -647.793 2018.85 -647.768 2022.8 -647.715L2022.83 -649.715C2018.86 -649.768 2014.89 -649.793 2010.91 -649.791L2010.91 -647.791ZM2038.83 -647.347C2042.83 -647.217 2046.8 -647.058 2050.76 -646.869L2050.86 -648.867C2046.89 -649.056 2042.9 -649.216 2038.9 -649.346L2038.83 -647.347ZM2066.69 -645.946C2070.69 -645.672 2074.68 -645.367 2078.65 -645.03L2078.81 -647.023C2074.83 -647.361 2070.84 -647.667 2066.82 -647.942L2066.69 -645.946ZM2094.43 -643.514C2098.44 -643.083 2102.43 -642.619 2106.39 -642.121L2106.64 -644.105C2102.66 -644.605 2098.66 -645.071 2094.64 -645.503L2094.43 -643.514ZM2122.17 -639.944C2126.12 -639.348 2130.05 -638.717 2133.96 -638.05L2134.29 -640.022C2130.37 -640.691 2126.43 -641.324 2122.47 -641.921L2122.17 -639.944ZM2149.69 -635.148C2153.59 -634.373 2157.46 -633.561 2161.31 -632.711L2161.74 -634.663C2157.88 -635.517 2153.99 -636.332 2150.08 -637.11L2149.69 -635.148ZM2176.9 -629.019C2180.77 -628.041 2184.61 -627.022 2188.42 -625.962L2188.96 -627.889C2185.14 -628.953 2181.28 -629.976 2177.39 -630.958L2176.9 -629.019ZM2203.72 -621.435C2207.54 -620.234 2211.33 -618.99 2215.09 -617.701L2215.74 -619.592C2211.97 -620.887 2208.16 -622.137 2204.32 -623.343L2203.72 -621.435ZM2230.02 -612.266C2233.77 -610.822 2237.48 -609.331 2241.15 -607.793L2241.92 -609.637C2238.23 -611.183 2234.51 -612.681 2230.74 -614.132L2230.02 -612.266ZM2255.64 -601.372C2259.28 -599.667 2262.88 -597.912 2266.44 -596.105L2267.35 -597.888C2263.77 -599.705 2260.15 -601.469 2256.49 -603.183L2255.64 -601.372ZM2280.42 -588.604C2283.91 -586.628 2287.35 -584.598 2290.74 -582.514L2291.79 -584.218C2288.38 -586.315 2284.91 -588.357 2281.4 -590.344L2280.42 -588.604ZM2304.07 -573.862C2307.37 -571.606 2310.61 -569.293 2313.8 -566.923L2314.99 -568.528C2311.78 -570.914 2308.52 -573.242 2305.2 -575.512L2304.07 -573.862ZM2326.31 -557.092C2327.83 -555.824 2329.35 -554.542 2330.85 -553.244L2332.15 -554.756C2330.65 -556.063 2329.12 -557.354 2327.59 -558.631L2326.31 -557.092Z" fill="white" fill-opacity="0.3"/>
</svg>
