<svg width="1920" height="648" viewBox="0 0 1920 648" fill="none" xmlns="http://www.w3.org/2000/svg">
<path d="M2344.09 540.306C2344.54 539.979 2344.63 539.353 2344.31 538.908C2343.98 538.463 2343.35 538.367 2342.91 538.693L2344.09 540.306ZM-121.5 527.875L-121.002 527.008C-121.015 527 -121.028 526.993 -121.042 526.986L-121.5 527.875ZM491.5 557.885L491.65 556.896L491.5 557.885ZM1448.5 519.385L1448.86 520.317L1448.5 519.385ZM2009.5 527.452L2009.09 528.362L2009.5 527.452ZM-455.7 527.161C-456.094 527.547 -456.101 528.18 -455.714 528.575C-455.328 528.969 -454.695 528.976 -454.3 528.59L-455.7 527.161ZM2337.85 542.259C2337.39 542.568 2337.27 543.19 2337.58 543.647C2337.89 544.105 2338.51 544.225 2338.96 543.916L2337.85 542.259ZM2324.69 552.546C2325.17 552.284 2325.35 551.677 2325.09 551.191C2324.83 550.705 2324.22 550.523 2323.74 550.785L2324.69 552.546ZM2312.64 556.255C2312.14 556.482 2311.91 557.074 2312.14 557.577C2312.37 558.081 2312.96 558.306 2313.46 558.079L2312.64 556.255ZM2297.96 564.233C2298.48 564.052 2298.75 563.482 2298.57 562.961C2298.39 562.439 2297.82 562.163 2297.3 562.344L2297.96 564.233ZM2285.48 566.044C2284.95 566.193 2284.64 566.745 2284.79 567.277C2284.93 567.809 2285.49 568.119 2286.02 567.97L2285.48 566.044ZM2269.82 571.853C2270.36 571.744 2270.71 571.217 2270.6 570.675C2270.49 570.134 2269.96 569.784 2269.42 569.893L2269.82 571.853ZM2257.21 572.025C2256.66 572.106 2256.29 572.615 2256.37 573.161C2256.45 573.707 2256.96 574.084 2257.51 574.003L2257.21 572.025ZM2240.96 575.936C2241.51 575.889 2241.92 575.404 2241.87 574.854C2241.82 574.304 2241.34 573.896 2240.79 573.944L2240.96 575.936ZM2228.41 574.744C2227.86 574.769 2227.43 575.236 2227.46 575.787C2227.48 576.339 2227.95 576.767 2228.5 576.743L2228.41 574.744ZM2211.85 577.038C2212.4 577.042 2212.86 576.597 2212.86 576.045C2212.86 575.493 2212.42 575.042 2211.87 575.038L2211.85 577.038ZM2199.46 574.723C2198.9 574.7 2198.44 575.128 2198.41 575.68C2198.39 576.232 2198.82 576.698 2199.37 576.722L2199.46 574.723ZM2182.77 575.646C2183.32 575.694 2183.8 575.286 2183.85 574.736C2183.9 574.186 2183.49 573.701 2182.94 573.654L2182.77 575.646ZM2170.58 572.4C2170.04 572.336 2169.54 572.729 2169.48 573.278C2169.41 573.827 2169.8 574.323 2170.35 574.387L2170.58 572.4ZM2153.87 572.152C2154.42 572.236 2154.93 571.862 2155.01 571.316C2155.09 570.77 2154.72 570.26 2154.17 570.175L2153.87 572.152ZM2141.92 568.12C2141.38 568.021 2140.86 568.382 2140.76 568.926C2140.66 569.469 2141.02 569.989 2141.57 570.088L2141.92 568.12ZM2125.25 566.852C2125.79 566.968 2126.32 566.625 2126.44 566.085C2126.55 565.545 2126.21 565.013 2125.67 564.897L2125.25 566.852ZM2113.55 562.139C2113.02 562.011 2112.48 562.342 2112.35 562.879C2112.22 563.416 2112.55 563.956 2113.09 564.084L2113.55 562.139ZM2096.99 559.967C2097.52 560.112 2098.07 559.797 2098.22 559.264C2098.36 558.731 2098.05 558.182 2097.51 558.037L2096.99 559.967ZM2085.56 554.65C2085.03 554.494 2084.47 554.797 2084.31 555.327C2084.16 555.856 2084.46 556.412 2084.99 556.569L2085.56 554.65ZM2069.1 551.636C2069.62 551.807 2070.19 551.52 2070.36 550.995C2070.53 550.47 2070.24 549.906 2069.72 549.735L2069.1 551.636ZM2057.95 545.763C2057.42 545.581 2056.85 545.856 2056.67 546.377C2056.49 546.898 2056.77 547.469 2057.29 547.651L2057.95 545.763ZM2041.66 541.948C2042.18 542.145 2042.75 541.886 2042.95 541.37C2043.15 540.854 2042.89 540.276 2042.37 540.079L2041.66 541.948ZM2030.81 535.53C2030.29 535.322 2029.71 535.569 2029.5 536.08C2029.3 536.592 2029.54 537.175 2030.05 537.383L2030.81 535.53ZM2014.74 530.9C2015.25 531.123 2015.84 530.894 2016.06 530.389C2016.28 529.884 2016.05 529.293 2015.55 529.07L2014.74 530.9ZM2004.57 524.136C2004.06 523.912 2003.47 524.139 2003.25 524.644C2003.02 525.149 2003.25 525.739 2003.75 525.964L2004.57 524.136ZM1989.38 519.807C1989.89 520.017 1990.47 519.774 1990.68 519.264C1990.9 518.753 1990.65 518.169 1990.14 517.958L1989.38 519.807ZM1979.21 513.567C1978.7 513.366 1978.12 513.621 1977.92 514.135C1977.71 514.649 1977.97 515.229 1978.48 515.43L1979.21 513.567ZM1963.84 509.924C1964.36 510.112 1964.94 509.843 1965.12 509.324C1965.31 508.804 1965.04 508.231 1964.52 508.043L1963.84 509.924ZM1953.43 504.145C1952.91 503.966 1952.34 504.245 1952.16 504.768C1951.98 505.291 1952.26 505.859 1952.79 506.037L1953.43 504.145ZM1937.92 501.167C1938.45 501.333 1939.01 501.04 1939.18 500.513C1939.34 499.986 1939.05 499.425 1938.52 499.259L1937.92 501.167ZM1927.27 495.831C1926.74 495.674 1926.19 495.977 1926.03 496.507C1925.87 497.037 1926.18 497.593 1926.71 497.749L1927.27 495.831ZM1911.65 493.499C1912.19 493.643 1912.73 493.327 1912.88 492.794C1913.02 492.261 1912.71 491.712 1912.17 491.568L1911.65 493.499ZM1900.78 488.599C1900.24 488.464 1899.7 488.789 1899.56 489.325C1899.43 489.861 1899.75 490.404 1900.29 490.538L1900.78 488.599ZM1885.07 486.898C1885.61 487.021 1886.15 486.683 1886.27 486.145C1886.39 485.606 1886.05 485.07 1885.52 484.948L1885.07 486.898ZM1874.04 482.44C1873.49 482.326 1872.96 482.673 1872.85 483.213C1872.74 483.754 1873.08 484.284 1873.62 484.397L1874.04 482.44ZM1858.28 481.357C1858.82 481.459 1859.35 481.101 1859.45 480.558C1859.55 480.015 1859.19 479.493 1858.65 479.391L1858.28 481.357ZM1847.06 477.327C1846.52 477.235 1846 477.601 1845.91 478.146C1845.82 478.69 1846.18 479.207 1846.73 479.299L1847.06 477.327ZM1831.27 476.85C1831.82 476.93 1832.33 476.553 1832.41 476.006C1832.49 475.46 1832.11 474.952 1831.57 474.871L1831.27 476.85ZM1819.91 473.25C1819.37 473.178 1818.86 473.564 1818.79 474.112C1818.72 474.659 1819.11 475.161 1819.65 475.233L1819.91 473.25ZM1804.13 473.369C1804.68 473.429 1805.17 473.033 1805.23 472.484C1805.29 471.935 1804.89 471.441 1804.34 471.381L1804.13 473.369ZM1792.64 470.198C1792.09 470.146 1791.6 470.551 1791.55 471.1C1791.5 471.65 1791.91 472.138 1792.46 472.189L1792.64 470.198ZM1776.86 470.903C1777.41 470.943 1777.89 470.528 1777.93 469.977C1777.97 469.427 1777.56 468.948 1777.01 468.908L1776.86 470.903ZM1765.26 468.157C1764.71 468.127 1764.23 468.549 1764.2 469.1C1764.17 469.651 1764.59 470.123 1765.15 470.154L1765.26 468.157ZM1749.52 469.443C1750.08 469.463 1750.54 469.031 1750.56 468.479C1750.58 467.927 1750.15 467.464 1749.59 467.445L1749.52 469.443ZM1737.84 467.125C1737.29 467.114 1736.83 467.553 1736.82 468.105C1736.81 468.657 1737.25 469.113 1737.8 469.124L1737.84 467.125ZM1722.15 468.983C1722.71 468.982 1723.15 468.534 1723.15 467.982C1723.15 467.429 1722.7 466.982 1722.15 466.983L1722.15 468.983ZM1710.38 467.091C1709.83 467.1 1709.39 467.555 1709.4 468.107C1709.4 468.66 1709.86 469.1 1710.41 469.09L1710.38 467.091ZM1694.78 469.516C1695.33 469.496 1695.76 469.031 1695.74 468.479C1695.72 467.928 1695.26 467.497 1694.71 467.518L1694.78 469.516ZM1682.96 468.05C1682.41 468.079 1681.98 468.55 1682.01 469.102C1682.04 469.653 1682.51 470.077 1683.06 470.047L1682.96 468.05ZM1667.45 471.038C1668 470.997 1668.41 470.518 1668.37 469.967C1668.33 469.416 1667.85 469.003 1667.3 469.043L1667.45 471.038ZM1655.57 470C1655.02 470.049 1654.61 470.535 1654.66 471.085C1654.71 471.635 1655.2 472.041 1655.75 471.992L1655.57 470ZM1640.19 473.543C1640.74 473.483 1641.13 472.989 1641.07 472.44C1641.01 471.891 1640.52 471.495 1639.97 471.555L1640.19 473.543ZM1628.29 472.933C1627.74 473.002 1627.35 473.502 1627.42 474.05C1627.49 474.598 1627.99 474.986 1628.54 474.917L1628.29 472.933ZM1613.03 477.029C1613.58 476.949 1613.96 476.441 1613.88 475.894C1613.8 475.348 1613.29 474.97 1612.74 475.05L1613.03 477.029ZM1601.12 476.848C1600.57 476.936 1600.2 477.45 1600.29 477.995C1600.38 478.54 1600.89 478.91 1601.44 478.822L1601.12 476.848ZM1586.03 481.489C1586.57 481.389 1586.93 480.868 1586.83 480.325C1586.73 479.781 1586.21 479.422 1585.67 479.522L1586.03 481.489ZM1574.11 481.737C1573.57 481.845 1573.22 482.371 1573.33 482.913C1573.43 483.455 1573.96 483.806 1574.5 483.698L1574.11 481.737ZM1559.19 486.921C1559.73 486.802 1560.07 486.268 1559.95 485.728C1559.83 485.189 1559.29 484.849 1558.76 484.968L1559.19 486.921ZM1547.3 487.597C1546.76 487.724 1546.43 488.263 1546.55 488.801C1546.68 489.338 1547.22 489.67 1547.76 489.542L1547.3 487.597ZM1532.58 493.314C1533.11 493.175 1533.43 492.629 1533.29 492.095C1533.16 491.56 1532.61 491.239 1532.08 491.378L1532.58 493.314ZM1520.7 494.422C1520.17 494.569 1519.86 495.12 1520.01 495.652C1520.15 496.185 1520.7 496.497 1521.24 496.35L1520.7 494.422ZM1506.2 500.669C1506.73 500.511 1507.03 499.954 1506.87 499.425C1506.71 498.896 1506.16 498.595 1505.63 498.753L1506.2 500.669ZM1494.39 502.201C1493.86 502.367 1493.57 502.929 1493.74 503.455C1493.9 503.982 1494.47 504.274 1494.99 504.108L1494.39 502.201ZM1480.12 508.969C1480.64 508.792 1480.92 508.224 1480.75 507.701C1480.57 507.178 1480 506.897 1479.48 507.074L1480.12 508.969ZM1468.36 510.934C1467.84 511.119 1467.57 511.691 1467.75 512.211C1467.94 512.731 1468.51 513.003 1469.03 512.818L1468.36 510.934ZM1454.35 518.21C1454.87 518.014 1455.13 517.437 1454.93 516.921C1454.74 516.404 1454.16 516.144 1453.64 516.34L1454.35 518.21ZM1442.53 520.615C1442.02 520.812 1441.76 521.391 1441.96 521.906C1442.16 522.422 1442.74 522.68 1443.25 522.482L1442.53 520.615ZM1428.35 528.105C1428.87 527.913 1429.13 527.337 1428.94 526.82C1428.75 526.302 1428.17 526.038 1427.66 526.23L1428.35 528.105ZM1416.56 530.3C1416.04 530.488 1415.77 531.061 1415.96 531.58C1416.14 532.1 1416.72 532.368 1417.24 532.18L1416.56 530.3ZM1402.22 537.522C1402.75 537.339 1403.02 536.769 1402.84 536.248C1402.66 535.726 1402.09 535.451 1401.56 535.634L1402.22 537.522ZM1390.32 539.51C1389.8 539.688 1389.52 540.256 1389.7 540.779C1389.88 541.302 1390.45 541.581 1390.97 541.403L1390.32 539.51ZM1375.96 546.415C1376.48 546.243 1376.77 545.678 1376.6 545.153C1376.43 544.629 1375.86 544.342 1375.34 544.514L1375.96 546.415ZM1363.96 548.186C1363.44 548.353 1363.15 548.916 1363.31 549.442C1363.48 549.968 1364.04 550.259 1364.57 550.092L1363.96 548.186ZM1349.47 554.8C1350 554.639 1350.29 554.08 1350.13 553.551C1349.97 553.023 1349.41 552.726 1348.88 552.887L1349.47 554.8ZM1337.47 556.318C1336.94 556.475 1336.64 557.031 1336.79 557.561C1336.95 558.09 1337.51 558.393 1338.04 558.236L1337.47 556.318ZM1322.77 562.653C1323.3 562.503 1323.61 561.95 1323.46 561.419C1323.31 560.887 1322.76 560.578 1322.23 560.729L1322.77 562.653ZM1310.84 563.897C1310.3 564.042 1309.99 564.592 1310.13 565.125C1310.28 565.658 1310.83 565.972 1311.36 565.826L1310.84 563.897ZM1295.95 569.939C1296.48 569.8 1296.8 569.254 1296.66 568.72C1296.52 568.185 1295.98 567.865 1295.44 568.004L1295.95 569.939ZM1283.96 570.937C1283.43 571.071 1283.1 571.615 1283.24 572.15C1283.37 572.686 1283.91 573.011 1284.45 572.877L1283.96 570.937ZM1269 576.649C1269.54 576.521 1269.87 575.982 1269.74 575.445C1269.61 574.908 1269.07 574.576 1268.54 574.703L1269 576.649ZM1256.95 577.399C1256.42 577.522 1256.08 578.058 1256.2 578.596C1256.32 579.135 1256.86 579.472 1257.4 579.349L1256.95 577.399ZM1241.93 582.774C1242.47 582.658 1242.81 582.127 1242.69 581.587C1242.58 581.047 1242.05 580.703 1241.51 580.819L1241.93 582.774ZM1229.83 583.27C1229.29 583.381 1228.95 583.909 1229.06 584.45C1229.17 584.991 1229.7 585.34 1230.24 585.229L1229.83 583.27ZM1214.73 588.308C1215.27 588.204 1215.63 587.68 1215.52 587.138C1215.42 586.595 1214.9 586.24 1214.35 586.344L1214.73 588.308ZM1202.61 588.543C1202.06 588.643 1201.7 589.163 1201.8 589.707C1201.9 590.25 1202.42 590.61 1202.97 590.511L1202.61 588.543ZM1187.35 593.256C1187.9 593.164 1188.27 592.647 1188.17 592.103C1188.08 591.558 1187.57 591.192 1187.02 591.284L1187.35 593.256ZM1175.28 593.216C1174.73 593.303 1174.36 593.815 1174.45 594.361C1174.53 594.906 1175.05 595.278 1175.59 595.191L1175.28 593.216ZM1159.89 597.595C1160.44 597.515 1160.82 597.007 1160.74 596.461C1160.66 595.914 1160.15 595.536 1159.6 595.617L1159.89 597.595ZM1147.85 597.283C1147.31 597.358 1146.92 597.863 1147 598.41C1147.07 598.957 1147.58 599.34 1148.13 599.265L1147.85 597.283ZM1132.35 601.327C1132.9 601.258 1133.29 600.759 1133.22 600.211C1133.15 599.663 1132.65 599.274 1132.1 599.342L1132.35 601.327ZM1120.35 600.747C1119.8 600.81 1119.4 601.306 1119.47 601.855C1119.53 602.403 1120.03 602.797 1120.58 602.734L1120.35 600.747ZM1104.74 604.451C1105.29 604.395 1105.69 603.904 1105.63 603.355C1105.58 602.806 1105.09 602.406 1104.54 602.462L1104.74 604.451ZM1092.73 603.612C1092.18 603.663 1091.78 604.15 1091.83 604.7C1091.88 605.25 1092.37 605.654 1092.92 605.603L1092.73 603.612ZM1077.07 606.975C1077.62 606.93 1078.03 606.448 1077.99 605.898C1077.94 605.347 1077.46 604.937 1076.91 604.981L1077.07 606.975ZM1065.07 605.878C1064.52 605.917 1064.11 606.395 1064.14 606.946C1064.18 607.497 1064.66 607.912 1065.21 607.873L1065.07 605.878ZM1049.36 608.904C1049.91 608.871 1050.33 608.398 1050.3 607.847C1050.27 607.295 1049.79 606.875 1049.24 606.907L1049.36 608.904ZM1037.37 607.554C1036.82 607.581 1036.4 608.051 1036.42 608.603C1036.45 609.154 1036.92 609.579 1037.47 609.551L1037.37 607.554ZM1021.61 610.25C1022.16 610.229 1022.6 609.765 1022.57 609.213C1022.55 608.661 1022.09 608.23 1021.54 608.252L1021.61 610.25ZM1009.65 608.653C1009.1 608.669 1008.66 609.13 1008.68 609.682C1008.69 610.234 1009.15 610.668 1009.71 610.652L1009.65 608.653ZM993.845 611.027C994.397 611.017 994.837 610.562 994.827 610.01C994.817 609.457 994.361 609.018 993.809 609.028L993.845 611.027ZM981.907 609.191C981.355 609.196 980.912 609.648 980.917 610.2C980.922 610.752 981.374 611.196 981.926 611.191L981.907 609.191ZM966.067 611.253C966.619 611.254 967.068 610.807 967.068 610.255C967.069 609.702 966.622 609.254 966.07 609.253L966.067 611.253ZM954.163 609.186C953.611 609.181 953.159 609.624 953.153 610.176C953.148 610.729 953.591 611.181 954.143 611.186L954.163 609.186ZM938.289 610.948C938.841 610.959 939.298 610.521 939.309 609.969C939.32 609.416 938.882 608.96 938.33 608.948L938.289 610.948ZM926.423 608.661C925.871 608.645 925.411 609.08 925.395 609.632C925.38 610.184 925.815 610.645 926.367 610.66L926.423 608.661ZM910.521 610.136C911.073 610.157 911.538 609.726 911.559 609.175C911.58 608.623 911.149 608.158 910.597 608.137L910.521 610.136ZM898.696 607.64C898.144 607.615 897.677 608.042 897.652 608.594C897.627 609.145 898.053 609.613 898.605 609.638L898.696 607.64ZM882.771 608.843C883.323 608.873 883.794 608.451 883.824 607.899C883.855 607.348 883.432 606.876 882.881 606.846L882.771 608.843ZM870.989 606.151C870.438 606.117 869.964 606.536 869.929 607.088C869.895 607.639 870.314 608.113 870.866 608.147L870.989 606.151ZM855.042 607.098C855.592 607.137 856.071 606.722 856.109 606.171C856.148 605.62 855.734 605.142 855.183 605.103L855.042 607.098ZM843.308 604.225C842.757 604.182 842.276 604.594 842.234 605.145C842.192 605.695 842.603 606.176 843.154 606.219L843.308 604.225ZM827.344 604.933C827.894 604.98 828.378 604.572 828.425 604.022C828.472 603.472 828.064 602.987 827.514 602.94L827.344 604.933ZM815.656 601.893C815.106 601.842 814.62 602.248 814.57 602.797C814.52 603.347 814.925 603.834 815.475 603.884L815.656 601.893ZM799.681 602.382C800.23 602.436 800.72 602.035 800.774 601.485C800.828 600.936 800.427 600.446 799.877 600.392L799.681 602.382ZM788.037 599.189C787.488 599.132 786.996 599.531 786.939 600.08C786.882 600.63 787.281 601.121 787.83 601.179L788.037 599.189ZM772.054 599.48C772.603 599.541 773.098 599.146 773.158 598.597C773.219 598.048 772.824 597.553 772.275 597.492L772.054 599.48ZM760.451 596.151C759.903 596.088 759.406 596.481 759.343 597.029C759.279 597.578 759.672 598.074 760.221 598.138L760.451 596.151ZM744.464 596.265C745.012 596.331 745.511 595.941 745.578 595.393C745.645 594.845 745.254 594.346 744.706 594.279L744.464 596.265ZM732.898 592.815C732.35 592.746 731.85 593.134 731.781 593.682C731.712 594.23 732.1 594.73 732.648 594.799L732.898 592.815ZM716.909 592.773C717.457 592.845 717.959 592.46 718.031 591.912C718.103 591.364 717.717 590.862 717.17 590.79L716.909 592.773ZM705.376 589.22C704.828 589.146 704.325 589.53 704.251 590.078C704.177 590.625 704.561 591.128 705.108 591.202L705.376 589.22ZM689.387 589.046C689.934 589.122 690.439 588.74 690.515 588.193C690.591 587.646 690.21 587.141 689.663 587.065L689.387 589.046ZM677.881 585.406C677.334 585.328 676.828 585.708 676.75 586.255C676.672 586.802 677.053 587.308 677.599 587.386L677.881 585.406ZM661.893 585.122C662.44 585.202 662.947 584.824 663.027 584.277C663.107 583.731 662.728 583.223 662.182 583.143L661.893 585.122ZM650.411 581.413C649.864 581.332 649.356 581.709 649.275 582.255C649.194 582.802 649.571 583.31 650.117 583.391L650.411 581.413ZM634.424 581.044C634.97 581.126 635.479 580.75 635.562 580.204C635.644 579.658 635.268 579.148 634.722 579.066L634.424 581.044ZM622.959 577.281C622.413 577.198 621.903 577.573 621.819 578.119C621.736 578.665 622.111 579.175 622.657 579.258L622.959 577.281ZM606.973 576.851C607.519 576.935 608.03 576.561 608.114 576.015C608.198 575.469 607.824 574.959 607.278 574.874L606.973 576.851ZM595.52 573.053C594.974 572.968 594.463 573.342 594.378 573.888C594.294 574.433 594.667 574.945 595.213 575.029L595.52 573.053ZM579.535 572.586C580.081 572.671 580.592 572.298 580.677 571.752C580.763 571.206 580.39 570.695 579.844 570.61L579.535 572.586ZM568.088 568.77C567.543 568.684 567.031 569.057 566.946 569.603C566.86 570.149 567.233 570.66 567.779 570.746L568.088 568.77ZM552.104 568.289C552.649 568.375 553.161 568.002 553.246 567.456C553.332 566.91 552.959 566.399 552.413 566.313L552.104 568.289ZM540.657 564.473C540.111 564.388 539.6 564.761 539.515 565.306C539.429 565.852 539.802 566.364 540.348 566.449L540.657 564.473ZM524.672 564.004C525.218 564.088 525.729 563.715 525.814 563.169C525.899 562.623 525.525 562.112 524.979 562.027L524.672 564.004ZM513.22 560.204C512.674 560.12 512.163 560.494 512.079 561.04C511.995 561.585 512.369 562.096 512.915 562.181L513.22 560.204ZM497.234 559.77C497.78 559.854 498.29 559.479 498.374 558.933C498.457 558.387 498.082 557.877 497.536 557.793L497.234 559.77ZM485.576 556.047C485.028 555.977 484.528 556.365 484.458 556.913C484.388 557.461 484.775 557.961 485.323 558.031L485.576 556.047ZM469.157 556.464C469.708 556.501 470.185 556.085 470.222 555.534C470.259 554.983 469.843 554.506 469.292 554.469L469.157 556.464ZM457.03 553.891C456.478 553.876 456.018 554.311 456.003 554.863C455.988 555.415 456.423 555.875 456.975 555.89L457.03 553.891ZM440.717 555.84C441.269 555.828 441.708 555.372 441.697 554.82C441.686 554.268 441.229 553.829 440.677 553.84L440.717 555.84ZM428.406 554.279C427.854 554.307 427.43 554.777 427.458 555.328C427.486 555.88 427.956 556.304 428.508 556.276L428.406 554.279ZM412.273 557.401C412.823 557.353 413.231 556.869 413.183 556.318C413.135 555.768 412.651 555.361 412.101 555.408L412.273 557.401ZM399.927 556.602C399.378 556.662 398.981 557.156 399.041 557.705C399.101 558.254 399.595 558.65 400.144 558.59L399.927 556.602ZM383.98 560.563C384.528 560.49 384.912 559.986 384.839 559.439C384.765 558.892 384.262 558.507 383.715 558.581L383.98 560.563ZM371.591 560.302C371.045 560.384 370.668 560.892 370.75 561.439C370.831 561.985 371.34 562.362 371.886 562.28L371.591 560.302ZM355.788 564.818C356.333 564.728 356.702 564.213 356.612 563.668C356.522 563.123 356.007 562.754 355.462 562.844L355.788 564.818ZM343.369 564.897C342.825 564.991 342.461 565.509 342.555 566.053C342.65 566.597 343.168 566.962 343.712 566.867L343.369 564.897ZM327.663 569.725C328.207 569.627 328.567 569.106 328.469 568.563C328.37 568.019 327.849 567.659 327.306 567.757L327.663 569.725ZM315.293 569.959C314.75 570.059 314.391 570.581 314.491 571.124C314.592 571.667 315.113 572.026 315.656 571.926L315.293 569.959ZM299.62 574.896C300.163 574.795 300.522 574.274 300.422 573.731C300.321 573.187 299.799 572.829 299.256 572.929L299.62 574.896ZM287.218 575.149C286.675 575.248 286.315 575.769 286.415 576.312C286.514 576.856 287.035 577.215 287.579 577.116L287.218 575.149ZM271.514 580.017C272.057 579.921 272.42 579.402 272.323 578.858C272.227 578.314 271.708 577.952 271.164 578.048L271.514 580.017ZM259.13 580.147C258.586 580.24 258.22 580.757 258.313 581.301C258.406 581.846 258.923 582.211 259.468 582.118L259.13 580.147ZM243.37 584.785C243.916 584.697 244.287 584.185 244.2 583.639C244.113 583.094 243.6 582.722 243.055 582.81L243.37 584.785ZM230.972 584.678C230.425 584.76 230.049 585.269 230.13 585.815C230.212 586.361 230.721 586.738 231.267 586.656L230.972 584.678ZM215.093 588.943C215.64 588.87 216.025 588.367 215.952 587.82C215.879 587.272 215.377 586.888 214.829 586.961L215.093 588.943ZM202.714 588.489C202.166 588.554 201.774 589.052 201.839 589.6C201.905 590.149 202.402 590.54 202.95 590.475L202.714 588.489ZM186.722 592.242C187.272 592.188 187.674 591.699 187.62 591.149C187.566 590.6 187.076 590.198 186.527 590.252L186.722 592.242ZM174.354 591.346C173.804 591.391 173.394 591.874 173.438 592.424C173.483 592.974 173.966 593.384 174.516 593.34L174.354 591.346ZM158.207 594.467C158.759 594.435 159.18 593.963 159.149 593.412C159.118 592.86 158.646 592.439 158.094 592.47L158.207 594.467ZM145.915 593.039C145.363 593.06 144.932 593.524 144.952 594.076C144.973 594.627 145.437 595.058 145.989 595.038L145.915 593.039ZM129.661 595.412C130.213 595.407 130.657 594.956 130.652 594.403C130.647 593.851 130.196 593.407 129.644 593.412L129.661 595.412ZM117.412 593.383C116.859 593.376 116.406 593.818 116.398 594.37C116.391 594.922 116.833 595.376 117.385 595.383L117.412 593.383ZM101.053 594.911C101.605 594.936 102.072 594.508 102.097 593.956C102.121 593.405 101.694 592.938 101.142 592.913L101.053 594.911ZM88.9802 592.225C88.4292 592.187 87.9519 592.603 87.9141 593.154C87.8762 593.705 88.2922 594.182 88.8433 594.22L88.9802 592.225ZM72.5535 592.83C73.1028 592.887 73.5938 592.487 73.6499 591.937C73.7061 591.388 73.3062 590.897 72.7568 590.841L72.5535 592.83ZM60.6184 589.445C60.0708 589.374 59.5698 589.762 59.4995 590.309C59.4294 590.857 59.8167 591.358 60.3645 591.428L60.6184 589.445ZM44.2173 589.078C44.7622 589.167 45.2764 588.797 45.3652 588.252C45.4543 587.707 45.0847 587.193 44.5396 587.104L44.2173 589.078ZM32.5002 584.975C31.9578 584.872 31.4341 585.228 31.3308 585.77C31.2275 586.313 31.5835 586.836 32.126 586.94L32.5002 584.975ZM16.1128 583.597C16.6514 583.719 17.187 583.382 17.3096 582.843C17.4319 582.305 17.0945 581.769 16.5559 581.646L16.1128 583.597ZM4.73828 578.797C4.20312 578.66 3.65869 578.983 3.52222 579.519C3.38574 580.054 3.70874 580.598 4.2439 580.735L4.73828 578.797ZM-11.5471 576.409C-11.0171 576.564 -10.4614 576.261 -10.3062 575.73C-10.1511 575.2 -10.4548 574.645 -10.9849 574.49L-11.5471 576.409ZM-22.6296 570.914C-23.1555 570.745 -23.7188 571.034 -23.8877 571.56C-24.0566 572.086 -23.7673 572.649 -23.2417 572.818L-22.6296 570.914ZM-38.6978 567.556C-38.1782 567.743 -37.6052 567.473 -37.4185 566.954C-37.2317 566.434 -37.5015 565.861 -38.021 565.674L-38.6978 567.556ZM-49.5063 561.379C-50.021 561.179 -50.6006 561.434 -50.8005 561.949C-51.0005 562.464 -50.7454 563.043 -50.2305 563.243L-49.5063 561.379ZM-65.3008 557.101C-64.7927 557.318 -64.2051 557.082 -63.9885 556.574C-63.7717 556.066 -64.0078 555.479 -64.5156 555.262L-65.3008 557.101ZM-75.7617 550.3C-76.2644 550.071 -76.8574 550.293 -77.0864 550.795C-77.3154 551.298 -77.0938 551.891 -76.5911 552.12L-75.7617 550.3ZM-91.2817 545.147C-90.7864 545.391 -90.1868 545.188 -89.9424 544.693C-89.6978 544.197 -89.9009 543.598 -90.3962 543.353L-91.2817 545.147ZM-101.312 537.807C-101.802 537.551 -102.406 537.741 -102.662 538.23C-102.917 538.72 -102.728 539.324 -102.238 539.58L-101.312 537.807ZM-116.587 531.813C-116.105 532.083 -115.495 531.911 -115.225 531.429C-114.956 530.947 -115.127 530.338 -115.609 530.068L-116.587 531.813ZM-126.22 524.372C-126.715 524.128 -127.315 524.33 -127.56 524.826C-127.805 525.321 -127.602 525.92 -127.107 526.165L-126.22 524.372ZM-141.148 519.567C-140.644 519.792 -140.053 519.566 -139.827 519.062C-139.602 518.558 -139.828 517.966 -140.332 517.741L-141.148 519.567ZM-151.093 513.096C-151.603 512.884 -152.188 513.125 -152.401 513.634C-152.613 514.144 -152.372 514.73 -151.862 514.942L-151.093 513.096ZM-166.276 509.207C-165.76 509.403 -165.183 509.143 -164.987 508.627C-164.791 508.11 -165.05 507.533 -165.566 507.337L-166.276 509.207ZM-176.548 503.312C-177.069 503.128 -177.64 503.401 -177.824 503.921C-178.008 504.442 -177.735 505.014 -177.215 505.198L-176.548 503.312ZM-191.964 500.236C-191.438 500.404 -190.875 500.114 -190.708 499.588C-190.539 499.062 -190.83 498.499 -191.356 498.331L-191.964 500.236ZM-202.528 494.903C-203.058 494.747 -203.614 495.05 -203.77 495.58C-203.926 496.11 -203.623 496.666 -203.093 496.822L-202.528 494.903ZM-218.043 492.677C-217.508 492.816 -216.962 492.495 -216.823 491.961C-216.684 491.426 -217.004 490.88 -217.539 490.741L-218.043 492.677ZM-228.894 487.933C-229.432 487.807 -229.97 488.141 -230.096 488.679C-230.222 489.216 -229.888 489.754 -229.35 489.88L-228.894 487.933ZM-244.533 486.594C-243.991 486.702 -243.465 486.35 -243.357 485.808C-243.25 485.266 -243.602 484.74 -244.144 484.632L-244.533 486.594ZM-255.647 482.51C-256.192 482.417 -256.708 482.783 -256.801 483.328C-256.894 483.872 -256.528 484.389 -255.983 484.482L-255.647 482.51ZM-271.332 482.165C-270.784 482.236 -270.282 481.851 -270.21 481.303C-270.139 480.756 -270.524 480.253 -271.072 480.182L-271.332 482.165ZM-282.696 478.837C-283.245 478.783 -283.735 479.184 -283.79 479.733C-283.845 480.283 -283.444 480.773 -282.895 480.827L-282.696 478.837ZM-298.364 479.622C-297.812 479.653 -297.34 479.23 -297.31 478.679C-297.279 478.128 -297.701 477.656 -298.253 477.625L-298.364 479.622ZM-309.951 477.185C-310.504 477.175 -310.96 477.613 -310.971 478.166C-310.981 478.718 -310.542 479.174 -309.99 479.185L-309.951 477.185ZM-325.496 479.28C-324.944 479.262 -324.511 478.8 -324.529 478.248C-324.547 477.696 -325.009 477.263 -325.561 477.281L-325.496 479.28ZM-337.257 477.906C-337.807 477.948 -338.22 478.428 -338.179 478.978C-338.138 479.529 -337.658 479.942 -337.107 479.901L-337.257 477.906ZM-352.515 481.528C-351.968 481.453 -351.585 480.948 -351.66 480.401C-351.735 479.854 -352.24 479.471 -352.787 479.547L-352.515 481.528ZM-364.354 481.431C-364.896 481.533 -365.253 482.056 -365.15 482.599C-365.048 483.142 -364.525 483.498 -363.982 483.396L-364.354 481.431ZM-379.085 486.82C-378.552 486.678 -378.234 486.131 -378.376 485.597C-378.518 485.063 -379.066 484.746 -379.6 484.888L-379.085 486.82ZM-390.838 488.235C-391.362 488.409 -391.646 488.974 -391.473 489.499C-391.3 490.023 -390.734 490.307 -390.209 490.134L-390.838 488.235ZM-404.678 495.604C-404.17 495.387 -403.935 494.799 -404.152 494.291C-404.37 493.784 -404.957 493.548 -405.465 493.766L-404.678 495.604ZM-416.091 498.744C-416.583 498.996 -416.778 499.598 -416.526 500.09C-416.275 500.582 -415.673 500.777 -415.181 500.525L-416.091 498.744ZM-428.599 508.195C-428.133 507.898 -427.996 507.28 -428.292 506.814C-428.589 506.348 -429.207 506.211 -429.673 506.508L-428.599 508.195ZM-439.338 513.167C-439.781 513.497 -439.873 514.123 -439.543 514.566C-439.213 515.009 -438.587 515.101 -438.144 514.771L-439.338 513.167ZM-450.062 524.589C-449.654 524.218 -449.624 523.585 -449.996 523.177C-450.367 522.768 -451 522.738 -451.408 523.11L-450.062 524.589ZM2342.91 538.693C2341.24 539.917 2339.55 541.105 2337.85 542.259L2338.96 543.916C2340.69 542.748 2342.4 541.545 2344.09 540.306L2342.91 538.693ZM2323.74 550.785C2320.11 552.739 2316.41 554.561 2312.64 556.255L2313.46 558.079C2317.27 556.366 2321.01 554.523 2324.69 552.546L2323.74 550.785ZM2297.3 562.344C2293.41 563.694 2289.47 564.926 2285.48 566.044L2286.02 567.97C2290.05 566.841 2294.03 565.597 2297.96 564.233L2297.3 562.344ZM2269.42 569.893C2265.39 570.704 2261.32 571.413 2257.21 572.025L2257.51 574.003C2261.65 573.387 2265.75 572.672 2269.82 571.853L2269.42 569.893ZM2240.79 573.944C2236.69 574.297 2232.56 574.563 2228.41 574.744L2228.5 576.743C2232.67 576.559 2236.83 576.292 2240.96 575.936L2240.79 573.944ZM2211.87 575.038C2207.74 575.007 2203.6 574.901 2199.46 574.723L2199.37 576.722C2203.54 576.9 2207.7 577.007 2211.85 577.038L2211.87 575.038ZM2182.94 573.654C2178.82 573.299 2174.7 572.88 2170.58 572.4L2170.35 574.387C2174.49 574.869 2178.63 575.29 2182.77 575.646L2182.94 573.654ZM2154.17 570.175C2150.08 569.544 2145.99 568.857 2141.92 568.12L2141.57 570.088C2145.65 570.828 2149.76 571.517 2153.87 572.152L2154.17 570.175ZM2125.67 564.897C2121.61 564.022 2117.57 563.102 2113.55 562.139L2113.09 564.084C2117.12 565.05 2121.17 565.974 2125.25 566.852L2125.67 564.897ZM2097.51 558.037C2093.49 556.945 2089.5 555.814 2085.56 554.65L2084.99 556.569C2088.95 557.736 2092.95 558.871 2096.99 559.967L2097.51 558.037ZM2069.72 549.735C2065.74 548.438 2061.81 547.113 2057.95 545.763L2057.29 547.651C2061.17 549.005 2065.11 550.336 2069.1 551.636L2069.72 549.735ZM2042.37 540.079C2038.44 538.581 2034.58 537.062 2030.81 535.53L2030.05 537.383C2033.84 538.921 2037.71 540.444 2041.66 541.948L2042.37 540.079ZM2015.55 529.07C2013.64 528.229 2011.76 527.386 2009.91 526.542L2009.09 528.362C2010.94 529.209 2012.83 530.055 2014.74 530.9L2015.55 529.07ZM2009.91 526.542C2008.14 525.733 2006.36 524.93 2004.57 524.136L2003.75 525.964C2005.54 526.756 2007.32 527.555 2009.09 528.362L2009.91 526.542ZM1990.14 517.958C1986.53 516.465 1982.88 515.001 1979.21 513.567L1978.48 515.43C1982.14 516.859 1985.77 518.318 1989.38 519.807L1990.14 517.958ZM1964.52 508.043C1960.85 506.714 1957.15 505.414 1953.43 504.145L1952.79 506.037C1956.5 507.303 1960.18 508.599 1963.84 509.924L1964.52 508.043ZM1938.52 499.259C1934.8 498.087 1931.05 496.944 1927.27 495.831L1926.71 497.749C1930.47 498.859 1934.21 499.998 1937.92 501.167L1938.52 499.259ZM1912.17 491.568C1908.39 490.549 1904.59 489.559 1900.78 488.599L1900.29 490.538C1904.1 491.496 1907.88 492.483 1911.65 493.499L1912.17 491.568ZM1885.52 484.948C1881.71 484.082 1877.88 483.246 1874.04 482.44L1873.62 484.397C1877.46 485.201 1881.27 486.035 1885.07 486.898L1885.52 484.948ZM1858.65 479.391C1854.8 478.673 1850.94 477.985 1847.06 477.327L1846.73 479.299C1850.6 479.955 1854.45 480.641 1858.28 481.357L1858.65 479.391ZM1831.57 474.871C1827.7 474.301 1823.81 473.76 1819.91 473.25L1819.65 475.233C1823.54 475.742 1827.42 476.281 1831.27 476.85L1831.57 474.871ZM1804.34 471.381C1800.45 470.957 1796.55 470.562 1792.64 470.198L1792.46 472.189C1796.36 472.552 1800.25 472.946 1804.13 473.369L1804.34 471.381ZM1777.01 468.908C1773.1 468.628 1769.18 468.377 1765.26 468.157L1765.15 470.154C1769.06 470.374 1772.97 470.623 1776.86 470.903L1777.01 468.908ZM1749.59 467.445C1745.68 467.308 1741.77 467.201 1737.84 467.125L1737.8 469.124C1741.72 469.2 1745.62 469.307 1749.52 469.443L1749.59 467.445ZM1722.15 466.983C1718.24 466.988 1714.31 467.024 1710.38 467.091L1710.41 469.09C1714.33 469.024 1718.25 468.988 1722.15 468.983L1722.15 466.983ZM1694.71 467.518C1690.8 467.665 1686.88 467.842 1682.96 468.05L1683.06 470.047C1686.98 469.84 1690.88 469.663 1694.78 469.516L1694.71 467.518ZM1667.3 469.043C1663.4 469.331 1659.49 469.65 1655.57 470L1655.75 471.992C1659.65 471.643 1663.55 471.325 1667.45 471.038L1667.3 469.043ZM1639.97 471.555C1636.08 471.984 1632.19 472.443 1628.29 472.933L1628.54 474.917C1632.42 474.428 1636.31 473.971 1640.19 473.543L1639.97 471.555ZM1612.74 475.05C1608.87 475.618 1604.99 476.217 1601.12 476.848L1601.44 478.822C1605.3 478.193 1609.17 477.596 1613.03 477.029L1612.74 475.05ZM1585.67 479.522C1581.82 480.229 1577.96 480.967 1574.11 481.737L1574.5 483.698C1578.34 482.93 1582.19 482.194 1586.03 481.489L1585.67 479.522ZM1558.76 484.968C1554.94 485.813 1551.12 486.689 1547.3 487.597L1547.76 489.542C1551.57 488.637 1555.38 487.764 1559.19 486.921L1558.76 484.968ZM1532.08 491.378C1528.28 492.361 1524.49 493.376 1520.7 494.422L1521.24 496.35C1525.02 495.307 1528.8 494.295 1532.58 493.314L1532.08 491.378ZM1505.63 498.753C1501.88 499.871 1498.13 501.02 1494.39 502.201L1494.99 504.108C1498.73 502.931 1502.46 501.785 1506.2 500.669L1505.63 498.753ZM1479.48 507.074C1475.77 508.329 1472.06 509.616 1468.36 510.934L1469.03 512.818C1472.72 511.503 1476.42 510.22 1480.12 508.969L1479.48 507.074ZM1453.64 516.34C1451.81 517.036 1449.97 517.741 1448.14 518.452L1448.86 520.317C1450.69 519.607 1452.52 518.905 1454.35 518.21L1453.64 516.34ZM1448.14 518.452C1446.27 519.178 1444.4 519.899 1442.53 520.615L1443.25 522.482C1445.12 521.765 1446.99 521.044 1448.86 520.317L1448.14 518.452ZM1427.66 526.23C1423.95 527.607 1420.25 528.963 1416.56 530.3L1417.24 532.18C1420.93 530.842 1424.64 529.484 1428.35 528.105L1427.66 526.23ZM1401.56 535.634C1397.81 536.946 1394.06 538.238 1390.32 539.51L1390.97 541.403C1394.71 540.13 1398.46 538.836 1402.22 537.522L1401.56 535.634ZM1375.34 544.514C1371.54 545.759 1367.75 546.983 1363.96 548.186L1364.57 550.092C1368.36 548.887 1372.15 547.662 1375.96 546.415L1375.34 544.514ZM1348.88 552.887C1345.07 554.052 1341.26 555.195 1337.47 556.318L1338.04 558.236C1341.84 557.111 1345.65 555.966 1349.47 554.8L1348.88 552.887ZM1322.23 560.729C1318.42 561.805 1314.62 562.861 1310.84 563.897L1311.36 565.826C1315.16 564.789 1318.96 563.732 1322.77 562.653L1322.23 560.729ZM1295.44 568.004C1291.61 569.002 1287.78 569.98 1283.96 570.937L1284.45 572.877C1288.27 571.919 1292.11 570.939 1295.95 569.939L1295.44 568.004ZM1268.54 574.703C1264.67 575.623 1260.81 576.521 1256.95 577.399L1257.4 579.349C1261.26 578.47 1265.12 577.57 1269 576.649L1268.54 574.703ZM1241.51 580.819C1237.61 581.657 1233.72 582.474 1229.83 583.27L1230.24 585.229C1234.12 584.432 1238.02 583.614 1241.93 582.774L1241.51 580.819ZM1214.35 586.344C1210.43 587.098 1206.51 587.831 1202.61 588.543L1202.97 590.511C1206.88 589.798 1210.8 589.063 1214.73 588.308L1214.35 586.344ZM1187.02 591.284C1183.1 591.948 1179.18 592.592 1175.28 593.216L1175.59 595.191C1179.5 594.566 1183.43 593.921 1187.35 593.256L1187.02 591.284ZM1159.6 595.617C1155.68 596.192 1151.76 596.748 1147.85 597.283L1148.13 599.265C1152.04 598.728 1155.96 598.172 1159.89 597.595L1159.6 595.617ZM1132.1 599.342C1128.18 599.83 1124.26 600.298 1120.35 600.747L1120.58 602.734C1124.49 602.284 1128.42 601.815 1132.35 601.327L1132.1 599.342ZM1104.54 602.462C1100.59 602.864 1096.66 603.248 1092.73 603.612L1092.92 605.603C1096.85 605.239 1100.79 604.855 1104.74 604.451L1104.54 602.462ZM1076.91 604.981C1072.96 605.299 1069.01 605.598 1065.07 605.878L1065.21 607.873C1069.16 607.592 1073.11 607.293 1077.07 606.975L1076.91 604.981ZM1049.24 606.907C1045.28 607.141 1041.32 607.357 1037.37 607.554L1037.47 609.551C1041.43 609.354 1045.39 609.138 1049.36 608.904L1049.24 606.907ZM1021.54 608.252C1017.57 608.403 1013.6 608.537 1009.65 608.653L1009.71 610.652C1013.67 610.536 1017.64 610.402 1021.61 610.25L1021.54 608.252ZM993.809 609.028C989.835 609.099 985.868 609.153 981.907 609.191L981.926 611.191C985.892 611.153 989.865 611.099 993.845 611.027L993.809 609.028ZM966.07 609.253C962.094 609.247 958.125 609.224 954.163 609.186L954.143 611.186C958.111 611.224 962.086 611.247 966.067 611.253L966.07 609.253ZM938.33 608.948C934.354 608.868 930.386 608.772 926.423 608.661L926.367 610.66C930.335 610.771 934.309 610.867 938.289 610.948L938.33 608.948ZM910.597 608.137C906.624 607.986 902.657 607.82 898.696 607.64L898.605 609.638C902.571 609.818 906.543 609.984 910.521 610.136L910.597 608.137ZM882.881 606.846C878.911 606.628 874.948 606.396 870.989 606.151L870.866 608.147C874.829 608.393 878.797 608.624 882.771 608.843L882.881 606.846ZM855.183 605.103C851.219 604.823 847.261 604.53 843.308 604.225L843.154 606.219C847.112 606.524 851.074 606.817 855.042 607.098L855.183 605.103ZM827.514 602.94C823.557 602.603 819.604 602.253 815.656 601.893L815.475 603.884C819.426 604.245 823.383 604.595 827.344 604.933L827.514 602.94ZM799.877 600.392C795.927 600.001 791.98 599.6 788.037 599.189L787.83 601.179C791.776 601.59 795.726 601.991 799.681 602.382L799.877 600.392ZM772.275 597.492C768.33 597.054 764.389 596.607 760.451 596.151L760.221 598.138C764.162 598.594 768.106 599.042 772.054 599.48L772.275 597.492ZM744.706 594.279C740.767 593.799 736.831 593.311 732.898 592.815L732.648 594.799C736.583 595.296 740.522 595.784 744.464 596.265L744.706 594.279ZM717.17 590.79C713.236 590.274 709.304 589.75 705.376 589.22L705.108 591.202C709.039 591.733 712.973 592.256 716.909 592.773L717.17 590.79ZM689.663 587.065C685.734 586.518 681.806 585.964 677.881 585.406L677.599 587.386C681.526 587.945 685.456 588.498 689.387 589.046L689.663 587.065ZM662.182 583.143C658.256 582.571 654.333 581.994 650.411 581.413L650.117 583.391C654.041 583.972 657.966 584.55 661.893 585.122L662.182 583.143ZM634.722 579.066C630.8 578.474 626.879 577.879 622.959 577.281L622.657 579.258C626.578 579.857 630.5 580.452 634.424 581.044L634.722 579.066ZM607.278 574.874C603.358 574.269 599.439 573.662 595.52 573.053L595.213 575.029C599.133 575.638 603.052 576.246 606.973 576.851L607.278 574.874ZM579.844 570.61C575.925 569.997 572.007 569.384 568.088 568.77L567.779 570.746C571.698 571.36 575.616 571.973 579.535 572.586L579.844 570.61ZM552.413 566.313C548.495 565.699 544.576 565.086 540.657 564.473L540.348 566.449C544.267 567.062 548.186 567.675 552.104 568.289L552.413 566.313ZM524.979 562.027C521.061 561.418 517.141 560.81 513.22 560.204L512.915 562.181C516.835 562.786 520.754 563.394 524.672 564.004L524.979 562.027ZM497.536 557.793C495.574 557.493 493.613 557.194 491.65 556.896L491.35 558.873C493.312 559.172 495.273 559.471 497.234 559.77L497.536 557.793ZM491.65 556.896C489.63 556.589 487.605 556.306 485.576 556.047L485.323 558.031C487.337 558.288 489.345 558.569 491.35 558.873L491.65 556.896ZM469.292 554.469C465.222 554.194 461.135 554.003 457.03 553.891L456.975 555.89C461.055 556.002 465.115 556.191 469.157 556.464L469.292 554.469ZM440.677 553.84C436.604 553.921 432.514 554.07 428.406 554.279L428.508 556.276C432.597 556.068 436.666 555.92 440.717 555.84L440.677 553.84ZM412.101 555.408C408.06 555.758 404.003 556.157 399.927 556.602L400.144 558.59C404.206 558.147 408.249 557.749 412.273 557.401L412.101 555.408ZM383.715 558.581C379.691 559.12 375.65 559.696 371.591 560.302L371.886 562.28C375.936 561.675 379.968 561.101 383.98 560.563L383.715 558.581ZM355.462 562.844C351.449 563.507 347.418 564.193 343.369 564.897L343.712 566.867C347.756 566.164 351.781 565.479 355.788 564.818L355.462 562.844ZM327.306 567.757C323.319 568.481 319.315 569.217 315.293 569.959L315.656 571.926C319.677 571.184 323.679 570.449 327.663 569.725L327.306 567.757ZM299.256 572.929C295.26 573.669 291.248 574.41 287.218 575.149L287.579 577.116C291.61 576.377 295.624 575.636 299.62 574.896L299.256 572.929ZM271.164 578.048C267.17 578.757 263.159 579.458 259.13 580.147L259.468 582.118C263.5 581.429 267.516 580.727 271.514 580.017L271.164 578.048ZM243.055 582.81C239.044 583.45 235.016 584.074 230.972 584.678L231.267 586.656C235.319 586.051 239.353 585.426 243.37 584.785L243.055 582.81ZM214.829 586.961C210.808 587.495 206.769 588.006 202.714 588.489L202.95 590.475C207.015 589.991 211.063 589.479 215.093 588.943L214.829 586.961ZM186.527 590.252C182.486 590.649 178.428 591.015 174.354 591.346L174.516 593.34C178.602 593.008 182.671 592.641 186.722 592.242L186.527 590.252ZM158.094 592.47C154.051 592.699 149.991 592.889 145.915 593.039L145.989 595.038C150.078 594.888 154.151 594.696 158.207 594.467L158.094 592.47ZM129.644 593.412C125.583 593.447 121.506 593.439 117.412 593.383L117.385 595.383C121.494 595.439 125.586 595.447 129.661 595.412L129.644 593.412ZM101.142 592.913C97.1045 592.733 93.0505 592.505 88.9802 592.225L88.8433 594.22C92.9297 594.501 96.9998 594.73 101.053 594.911L101.142 592.913ZM72.7568 590.841C68.7266 590.429 64.6804 589.965 60.6184 589.445L60.3645 591.428C64.4436 591.951 68.5066 592.417 72.5535 592.83L72.7568 590.841ZM44.5396 587.104C40.542 586.451 36.5288 585.742 32.5002 584.975L32.126 586.94C36.1721 587.71 40.2024 588.422 44.2173 589.078L44.5396 587.104ZM16.5559 581.646C12.6313 580.755 8.69214 579.805 4.73828 578.797L4.2439 580.735C8.21484 581.748 12.1711 582.701 16.1128 583.597L16.5559 581.646ZM-10.9849 574.49C-14.8523 573.357 -18.7339 572.166 -22.6296 570.914L-23.2417 572.818C-19.3293 574.075 -15.4312 575.271 -11.5471 576.409L-10.9849 574.49ZM-38.021 565.674C-41.8359 564.303 -45.6643 562.871 -49.5063 561.379L-50.2305 563.243C-46.3728 564.742 -42.5286 566.179 -38.6978 567.556L-38.021 565.674ZM-64.5156 555.262C-68.2517 553.668 -72.0002 552.014 -75.7617 550.3L-76.5911 552.12C-72.8149 553.841 -69.0515 555.501 -65.3008 557.101L-64.5156 555.262ZM-90.3962 543.353C-94.0229 541.562 -97.6616 539.714 -101.312 537.807L-102.238 539.58C-98.5742 541.494 -94.9221 543.349 -91.2817 545.147L-90.3962 543.353ZM-115.609 530.068C-117.404 529.063 -119.201 528.043 -121.002 527.008L-121.998 528.742C-120.191 529.78 -118.388 530.804 -116.587 531.813L-115.609 530.068ZM-121.042 526.986C-122.718 526.122 -124.445 525.25 -126.22 524.372L-127.107 526.165C-125.341 527.038 -123.625 527.905 -121.958 528.764L-121.042 526.986ZM-140.332 517.741C-143.793 516.193 -147.384 514.641 -151.093 513.096L-151.862 514.942C-148.169 516.481 -144.594 518.026 -141.148 519.567L-140.332 517.741ZM-165.566 507.337C-169.145 505.978 -172.808 504.634 -176.548 503.312L-177.215 505.198C-173.49 506.514 -169.841 507.853 -166.276 509.207L-165.566 507.337ZM-191.356 498.331C-195.024 497.159 -198.75 496.015 -202.528 494.903L-203.093 496.822C-199.329 497.929 -195.618 499.069 -191.964 500.236L-191.356 498.331ZM-217.539 490.741C-221.285 489.766 -225.073 488.828 -228.894 487.933L-229.35 489.88C-225.545 490.772 -221.774 491.706 -218.043 492.677L-217.539 490.741ZM-244.144 484.632C-247.954 483.876 -251.79 483.167 -255.647 482.51L-255.983 484.482C-252.144 485.136 -248.326 485.842 -244.533 486.594L-244.144 484.632ZM-271.072 480.182C-274.934 479.675 -278.811 479.225 -282.696 478.837L-282.895 480.827C-279.031 481.213 -275.175 481.661 -271.332 482.165L-271.072 480.182ZM-298.253 477.625C-302.152 477.409 -306.053 477.261 -309.951 477.185L-309.99 479.185C-306.117 479.26 -302.24 479.408 -298.364 479.622L-298.253 477.625ZM-325.561 477.281C-329.471 477.408 -333.371 477.615 -337.257 477.906L-337.107 479.901C-333.251 479.611 -329.379 479.406 -325.496 479.28L-325.561 477.281ZM-352.787 479.547C-356.667 480.08 -360.524 480.706 -364.354 481.431L-363.982 483.396C-360.187 482.678 -356.362 482.057 -352.515 481.528L-352.787 479.547ZM-379.6 484.888C-383.383 485.895 -387.131 487.009 -390.838 488.235L-390.209 490.134C-386.542 488.92 -382.832 487.818 -379.085 486.82L-379.6 484.888ZM-405.465 493.766C-409.058 495.304 -412.602 496.962 -416.091 498.744L-415.181 500.525C-411.733 498.764 -408.23 497.125 -404.678 495.604L-405.465 493.766ZM-429.673 506.508C-432.957 508.598 -436.18 510.817 -439.338 513.167L-438.144 514.771C-435.026 512.45 -431.842 510.26 -428.599 508.195L-429.673 506.508ZM-451.408 523.11C-452.856 524.427 -454.287 525.777 -455.7 527.161L-454.3 528.59C-452.905 527.223 -451.492 525.89 -450.062 524.589L-451.408 523.11Z" fill="black" fill-opacity="0.3"/>
<path d="M2068.5 165L2069.18 165.736L2069.17 165.743L2068.5 165ZM-104.5 103.385L-104.009 102.514C-103.971 102.535 -103.934 102.559 -103.899 102.585L-104.5 103.385ZM997.5 92.1768L997.289 93.1544L997.5 92.1768ZM286.5 98.9724L286.031 99.8555L286.5 98.9724ZM1577 98.9724L1576.74 98.0068L1577 98.9724ZM-445.579 44.407C-446.08 44.6396 -446.675 44.422 -446.907 43.9211C-447.14 43.4201 -446.922 42.8255 -446.421 42.593L-445.579 44.407ZM2466.94 15.6019C2467.44 15.8448 2467.64 16.4438 2467.4 16.9398C2467.16 17.4358 2466.56 17.6409 2466.06 17.398L2466.94 15.6019ZM2460.67 14.9005C2460.16 14.6791 2459.93 14.0895 2460.15 13.5835C2460.38 13.0775 2460.97 12.8468 2461.47 13.0681L2460.67 14.9005ZM2446.46 7.48286C2446.98 7.64648 2447.28 8.20673 2447.11 8.73422C2446.95 9.26171 2446.39 9.55669 2445.86 9.39307L2446.46 7.48286ZM2434.41 6.33593C2433.87 6.21454 2433.53 5.67937 2433.65 5.14059C2433.77 4.60181 2434.31 4.26345 2434.85 4.38484L2434.41 6.33593ZM2419.06 1.64423C2419.61 1.71242 2420 2.212 2419.93 2.76006C2419.86 3.30811 2419.36 3.69712 2418.82 3.62892L2419.06 1.64423ZM2406.99 2.5633C2406.44 2.53186 2406.02 2.05939 2406.05 1.508C2406.08 0.956607 2406.56 0.535102 2407.11 0.566538L2406.99 2.5633ZM2391.09 0.312708C2391.65 0.299654 2392.1 0.736663 2392.12 1.28879C2392.13 1.84092 2391.69 2.2991 2391.14 2.31215L2391.09 0.312708ZM2379.28 2.91923C2378.73 2.96214 2378.25 2.55057 2378.2 1.99996C2378.16 1.44934 2378.57 0.96819 2379.12 0.925276L2379.28 2.91923ZM2363.22 2.69551C2363.77 2.61703 2364.27 2.99658 2364.35 3.54326C2364.43 4.08994 2364.05 4.59673 2363.5 4.67521L2363.22 2.69551ZM2351.78 6.62374C2351.23 6.7259 2350.71 6.36873 2350.61 5.82598C2350.51 5.28322 2350.86 4.76042 2351.41 4.65826L2351.78 6.62374ZM2335.78 8.03271C2336.32 7.90239 2336.86 8.23182 2336.99 8.7685C2337.12 9.30519 2336.79 9.84591 2336.25 9.97623L2335.78 8.03271ZM2324.75 12.9884C2324.21 13.1375 2323.66 12.8273 2323.51 12.2955C2323.36 11.7638 2323.67 11.2118 2324.21 11.0627L2324.75 12.9884ZM2308.92 15.708C2309.45 15.5364 2310.01 15.8229 2310.18 16.3478C2310.36 16.8728 2310.07 17.4374 2309.54 17.609L2308.92 15.708ZM2298.28 21.4741C2297.76 21.6608 2297.19 21.3908 2297 20.8711C2296.82 20.3513 2297.09 19.7786 2297.61 19.5919L2298.28 21.4741ZM2282.68 25.2592C2283.2 25.0542 2283.78 25.3037 2283.98 25.8166C2284.19 26.3294 2283.94 26.9113 2283.42 27.1163L2282.68 25.2592ZM2272.41 31.6764C2271.91 31.8938 2271.32 31.6585 2271.1 31.1508C2270.88 30.6432 2271.12 30.0553 2271.63 29.8379L2272.41 31.6764ZM2257.05 36.3434C2257.55 36.1108 2258.15 36.3284 2258.38 36.8293C2258.61 37.3302 2258.4 37.9249 2257.89 38.1574L2257.05 36.3434ZM2247.13 43.2936C2246.63 43.5366 2246.04 43.3315 2245.79 42.8355C2245.55 42.3396 2245.75 41.7406 2246.25 41.4976L2247.13 43.2936ZM2232.02 48.7047C2232.51 48.4489 2233.11 48.6384 2233.37 49.1278C2233.62 49.6173 2233.43 50.2215 2232.94 50.4773L2232.02 48.7047ZM2222.42 56.0985C2221.94 56.3632 2221.33 56.1848 2221.07 55.7001C2220.8 55.2154 2220.98 54.6079 2221.46 54.3432L2222.42 56.0985ZM2207.55 62.1501C2208.03 61.8743 2208.64 62.0387 2208.92 62.5172C2209.2 62.9957 2209.03 63.6072 2208.55 63.8829L2207.55 62.1501ZM2198.27 69.9202C2197.8 70.2037 2197.18 70.0494 2196.9 69.5754C2196.62 69.1015 2196.77 68.4874 2197.25 68.2039L2198.27 69.9202ZM2183.65 76.5346C2184.12 76.2413 2184.73 76.3828 2185.03 76.8507C2185.32 77.3186 2185.18 77.9357 2184.71 78.2291L2183.65 76.5346ZM2174.64 84.6476C2174.18 84.948 2173.56 84.8158 2173.26 84.3523C2172.96 83.8889 2173.09 83.2697 2173.56 82.9693L2174.64 84.6476ZM2160.26 91.7692C2160.72 91.4599 2161.34 91.5801 2161.65 92.0377C2161.96 92.4952 2161.84 93.1169 2161.38 93.4262L2160.26 91.7692ZM2151.53 100.187C2151.08 100.503 2150.46 100.392 2150.14 99.9385C2149.83 99.4854 2149.94 98.8621 2150.39 98.5464L2151.53 100.187ZM2137.4 107.781C2137.85 107.456 2138.47 107.556 2138.8 108.003C2139.12 108.45 2139.02 109.076 2138.57 109.4L2137.4 107.781ZM2128.95 116.479C2128.51 116.809 2127.88 116.718 2127.55 116.275C2127.22 115.833 2127.31 115.206 2127.75 114.876L2128.95 116.479ZM2115.08 124.522C2115.51 124.183 2116.14 124.263 2116.48 124.699C2116.82 125.135 2116.74 125.764 2116.3 126.102L2115.08 124.522ZM2106.92 133.491C2106.49 133.836 2105.86 133.766 2105.51 133.334C2105.17 132.903 2105.24 132.274 2105.67 131.929L2106.92 133.491ZM2093.34 141.978C2093.77 141.625 2094.4 141.683 2094.75 142.107C2095.1 142.532 2095.05 143.162 2094.62 143.516L2093.34 141.978ZM2085.52 151.218C2085.1 151.578 2084.47 151.53 2084.11 151.111C2083.75 150.692 2083.79 150.061 2084.21 149.701L2085.52 151.218ZM2072.18 160.293C2072.59 159.923 2073.22 159.955 2073.59 160.365C2073.96 160.775 2073.93 161.407 2073.52 161.777L2072.18 160.293ZM2064.32 169.784C2063.88 170.12 2063.25 170.037 2062.91 169.598C2062.58 169.16 2062.66 168.532 2063.1 168.196L2064.32 169.784ZM2049.33 176.34C2049.84 176.122 2050.43 176.356 2050.65 176.864C2050.87 177.371 2050.63 177.959 2050.12 178.177L2049.33 176.34ZM2038.27 181.912C2037.73 182.024 2037.2 181.677 2037.09 181.136C2036.98 180.595 2037.32 180.066 2037.86 179.953L2038.27 181.912ZM2021.87 181.274C2022.42 181.291 2022.85 181.752 2022.84 182.304C2022.82 182.856 2022.36 183.29 2021.81 183.273L2021.87 181.274ZM2009.51 182.052C2008.96 181.963 2008.59 181.449 2008.68 180.904C2008.77 180.359 2009.28 179.989 2009.83 180.078L2009.51 182.052ZM1993.97 176.409C1994.5 176.563 1994.8 177.118 1994.65 177.649C1994.49 178.179 1993.94 178.483 1993.41 178.329L1993.97 176.409ZM1981.71 174.508C1981.19 174.321 1980.92 173.749 1981.11 173.229C1981.3 172.709 1981.87 172.439 1982.39 172.625L1981.71 174.508ZM1967.27 166.709C1967.78 166.923 1968.02 167.509 1967.8 168.018C1967.59 168.527 1967 168.767 1966.49 168.554L1967.27 166.709ZM1955.22 163.651C1954.72 163.425 1954.49 162.833 1954.72 162.329C1954.95 161.825 1955.54 161.6 1956.04 161.826L1955.22 163.651ZM1941.22 154.989C1941.72 155.224 1941.93 155.82 1941.7 156.32C1941.46 156.819 1940.87 157.033 1940.37 156.798L1941.22 154.989ZM1929.28 151.53C1928.78 151.292 1928.57 150.695 1928.81 150.197C1929.05 149.698 1929.65 149.488 1930.14 149.726L1929.28 151.53ZM1915.4 142.668C1915.9 142.906 1916.11 143.503 1915.87 144.001C1915.63 144.5 1915.04 144.711 1914.54 144.473L1915.4 142.668ZM1903.45 139.215C1902.95 138.98 1902.74 138.384 1902.97 137.884C1903.21 137.385 1903.8 137.17 1904.3 137.405L1903.45 139.215ZM1889.46 130.53C1889.96 130.759 1890.18 131.352 1889.95 131.855C1889.73 132.357 1889.13 132.58 1888.63 132.351L1889.46 130.53ZM1877.41 127.339C1876.91 127.117 1876.68 126.527 1876.9 126.021C1877.12 125.515 1877.71 125.285 1878.22 125.507L1877.41 127.339ZM1863.15 119.088C1863.67 119.299 1863.91 119.883 1863.7 120.394C1863.49 120.904 1862.9 121.147 1862.39 120.936L1863.15 119.088ZM1851.06 116.381C1850.55 116.18 1850.29 115.6 1850.5 115.086C1850.7 114.571 1851.28 114.317 1851.79 114.518L1851.06 116.381ZM1836.46 108.771C1836.98 108.957 1837.26 109.53 1837.07 110.05C1836.88 110.57 1836.31 110.84 1835.79 110.653L1836.46 108.771ZM1824.23 106.657C1823.71 106.483 1823.42 105.917 1823.6 105.393C1823.77 104.869 1824.34 104.585 1824.86 104.759L1824.23 106.657ZM1809.23 99.8454C1809.76 100.002 1810.06 100.558 1809.9 101.088C1809.75 101.618 1809.19 101.92 1808.66 101.763L1809.23 99.8454ZM1796.85 98.439C1796.32 98.2965 1796 97.7485 1796.14 97.2149C1796.29 96.6813 1796.83 96.3643 1797.37 96.5068L1796.85 98.439ZM1781.49 92.5772C1782.03 92.6999 1782.37 93.2358 1782.24 93.7743C1782.12 94.3128 1781.58 94.6499 1781.05 94.5273L1781.49 92.5772ZM1769.11 91.9877C1768.56 91.8806 1768.21 91.3546 1768.32 90.8128C1768.43 90.271 1768.95 89.9186 1769.49 90.0256L1769.11 91.9877ZM1753.35 87.1648C1753.89 87.2503 1754.27 87.7619 1754.18 88.3076C1754.09 88.8532 1753.58 89.2262 1753.04 89.1407L1753.35 87.1648ZM1740.91 87.4271C1740.36 87.3582 1739.97 86.8581 1740.04 86.3102C1740.11 85.7622 1740.61 85.3739 1741.16 85.4428L1740.91 87.4271ZM1724.9 83.7325C1725.45 83.7791 1725.86 84.2629 1725.81 84.8132C1725.76 85.3635 1725.28 85.7719 1724.73 85.7254L1724.9 83.7325ZM1712.52 84.8816C1711.97 84.852 1711.54 84.3809 1711.57 83.8294C1711.6 83.2779 1712.07 82.8549 1712.62 82.8844L1712.52 84.8816ZM1696.18 82.3413C1696.73 82.3482 1697.18 82.8015 1697.17 83.3537C1697.16 83.906 1696.71 84.3481 1696.16 84.3412L1696.18 82.3413ZM1684.02 84.3734C1683.47 84.3832 1683.02 83.9435 1683.01 83.3913C1683 82.8391 1683.44 82.3835 1683.99 82.3737L1684.02 84.3734ZM1667.6 82.9945C1668.15 82.9626 1668.63 83.3836 1668.66 83.935C1668.69 84.4864 1668.27 84.9592 1667.72 84.9912L1667.6 82.9945ZM1655.5 85.8807C1654.95 85.929 1654.46 85.522 1654.42 84.9719C1654.37 84.4217 1654.78 83.9366 1655.33 83.8884L1655.5 85.8807ZM1639.09 85.6272C1639.63 85.5579 1640.14 85.946 1640.2 86.4939C1640.27 87.0418 1639.89 87.5421 1639.34 87.6114L1639.09 85.6272ZM1627.1 89.3349C1626.56 89.4197 1626.05 89.046 1625.96 88.5003C1625.88 87.9545 1626.25 87.4434 1626.8 87.3586L1627.1 89.3349ZM1610.78 90.1453C1611.32 90.0409 1611.84 90.396 1611.95 90.9383C1612.05 91.4807 1611.7 92.0049 1611.15 92.1093L1610.78 90.1453ZM1599.12 94.5908C1598.58 94.7094 1598.05 94.3683 1597.93 93.8289C1597.81 93.2896 1598.15 92.7561 1598.69 92.6375L1599.12 94.5908ZM1582.79 96.4197C1583.32 96.283 1583.87 96.6058 1584.01 97.1409C1584.14 97.676 1583.82 98.2206 1583.29 98.3574L1582.79 96.4197ZM1571.44 101.49C1570.9 101.631 1570.35 101.312 1570.21 100.778C1570.07 100.244 1570.39 99.6968 1570.93 99.556L1571.44 101.49ZM1555.52 103.512C1556.05 103.378 1556.59 103.704 1556.73 104.24C1556.86 104.776 1556.54 105.319 1556 105.452L1555.52 103.512ZM1544.35 108.297C1543.81 108.425 1543.27 108.094 1543.14 107.557C1543.01 107.019 1543.35 106.48 1543.88 106.352L1544.35 108.297ZM1528.35 109.941C1528.89 109.821 1529.43 110.16 1529.55 110.699C1529.67 111.238 1529.33 111.772 1528.79 111.893L1528.35 109.941ZM1517.12 114.436C1516.58 114.55 1516.04 114.205 1515.93 113.665C1515.82 113.125 1516.16 112.594 1516.7 112.479L1517.12 114.436ZM1501.1 115.664C1501.65 115.557 1502.17 115.91 1502.28 116.452C1502.38 116.994 1502.03 117.52 1501.49 117.626L1501.1 115.664ZM1489.7 119.869C1489.15 119.969 1488.63 119.61 1488.53 119.066C1488.43 118.523 1488.79 118.002 1489.33 117.902L1489.7 119.869ZM1473.64 120.661C1474.19 120.57 1474.7 120.938 1474.8 121.482C1474.89 122.027 1474.52 122.543 1473.97 122.634L1473.64 120.661ZM1462.17 124.538C1461.63 124.622 1461.12 124.249 1461.03 123.703C1460.95 123.157 1461.32 122.646 1461.87 122.561L1462.17 124.538ZM1446.12 124.87C1446.66 124.795 1447.17 125.177 1447.24 125.724C1447.32 126.271 1446.94 126.776 1446.39 126.851L1446.12 124.87ZM1434.49 128.416C1433.95 128.485 1433.45 128.096 1433.38 127.548C1433.31 127 1433.7 126.5 1434.25 126.431L1434.49 128.416ZM1418.42 128.273C1418.97 128.214 1419.46 128.611 1419.52 129.16C1419.58 129.709 1419.19 130.202 1418.64 130.261L1418.42 128.273ZM1406.73 131.465C1406.18 131.517 1405.69 131.113 1405.64 130.563C1405.59 130.013 1405.99 129.525 1406.54 129.474L1406.73 131.465ZM1390.68 130.833C1391.23 130.791 1391.71 131.203 1391.75 131.754C1391.79 132.304 1391.38 132.785 1390.83 132.827L1390.68 130.833ZM1378.88 133.667C1378.33 133.702 1377.86 133.284 1377.82 132.733C1377.79 132.181 1378.2 131.706 1378.76 131.671L1378.88 133.667ZM1362.85 132.544C1363.4 132.519 1363.87 132.945 1363.89 133.497C1363.92 134.049 1363.49 134.516 1362.94 134.542L1362.85 132.544ZM1350.98 135.015C1350.42 135.033 1349.96 134.6 1349.94 134.048C1349.92 133.497 1350.36 133.034 1350.91 133.016L1350.98 135.015ZM1334.99 133.403C1335.54 133.395 1335.99 133.835 1336 134.388C1336.01 134.94 1335.57 135.395 1335.02 135.403L1334.99 133.403ZM1323.05 135.514C1322.5 135.516 1322.05 135.07 1322.05 134.517C1322.04 133.965 1322.49 133.516 1323.04 133.514L1323.05 135.514ZM1307.11 133.427C1307.66 133.434 1308.1 133.888 1308.1 134.44C1308.09 134.993 1307.64 135.434 1307.08 135.426L1307.11 133.427ZM1295.11 135.186C1294.56 135.172 1294.13 134.713 1294.14 134.161C1294.15 133.609 1294.61 133.173 1295.17 133.187L1295.11 135.186ZM1279.25 132.642C1279.8 132.665 1280.23 133.131 1280.2 133.683C1280.18 134.235 1279.71 134.663 1279.16 134.64L1279.25 132.642ZM1267.2 134.065C1266.65 134.035 1266.23 133.564 1266.26 133.013C1266.29 132.461 1266.76 132.038 1267.31 132.068L1267.2 134.065ZM1251.41 131.09C1251.96 131.128 1252.37 131.606 1252.34 132.157C1252.3 132.708 1251.82 133.123 1251.27 133.085L1251.41 131.09ZM1239.33 132.196C1238.78 132.152 1238.37 131.67 1238.41 131.12C1238.46 130.569 1238.94 130.159 1239.49 130.203L1239.33 132.196ZM1223.62 128.823C1224.17 128.875 1224.57 129.362 1224.52 129.912C1224.47 130.462 1223.98 130.866 1223.43 130.814L1223.62 128.823ZM1211.52 129.637C1210.98 129.58 1210.58 129.088 1210.63 128.539C1210.69 127.989 1211.18 127.59 1211.73 127.647L1211.52 129.637ZM1195.89 125.9C1196.44 125.964 1196.83 126.461 1196.77 127.009C1196.71 127.558 1196.21 127.951 1195.66 127.887L1195.89 125.9ZM1183.76 126.445C1183.22 126.376 1182.83 125.876 1182.9 125.328C1182.97 124.78 1183.47 124.391 1184.01 124.46L1183.76 126.445ZM1168.21 122.383C1168.76 122.458 1169.14 122.962 1169.07 123.509C1168.99 124.056 1168.49 124.439 1167.94 124.364L1168.21 122.383ZM1156.11 122.693C1155.56 122.613 1155.18 122.106 1155.26 121.559C1155.34 121.013 1155.85 120.634 1156.4 120.714L1156.11 122.693ZM1140.64 118.344C1141.18 118.429 1141.56 118.94 1141.47 119.486C1141.39 120.031 1140.88 120.405 1140.33 120.32L1140.64 118.344ZM1128.5 118.439C1127.95 118.351 1127.58 117.837 1127.67 117.292C1127.76 116.747 1128.27 116.376 1128.82 116.465L1128.5 118.439ZM1113.08 113.838C1113.63 113.931 1113.99 114.448 1113.9 114.993C1113.81 115.537 1113.29 115.903 1112.74 115.809L1113.08 113.838ZM1100.98 113.758C1100.44 113.662 1100.08 113.143 1100.17 112.599C1100.27 112.055 1100.79 111.693 1101.33 111.789L1100.98 113.758ZM1085.65 108.947C1086.2 109.047 1086.55 109.569 1086.45 110.112C1086.35 110.655 1085.83 111.014 1085.29 110.913L1085.65 108.947ZM1073.5 108.702C1072.96 108.599 1072.61 108.075 1072.71 107.533C1072.81 106.99 1073.34 106.634 1073.88 106.737L1073.5 108.702ZM1058.23 103.709C1058.77 103.816 1059.12 104.342 1059.01 104.883C1058.91 105.425 1058.38 105.778 1057.84 105.672L1058.23 103.709ZM1046.13 103.345C1045.59 103.236 1045.24 102.709 1045.35 102.167C1045.46 101.626 1045.98 101.275 1046.53 101.384L1046.13 103.345ZM1030.9 98.2023C1031.44 98.3139 1031.79 98.8428 1031.68 99.3837C1031.57 99.9246 1031.04 100.273 1030.5 100.161L1030.9 98.2023ZM1018.76 97.7197C1018.22 97.6063 1017.87 97.0762 1017.98 96.5357C1018.1 95.9952 1018.63 95.6489 1019.17 95.7622L1018.76 97.7197ZM1003.59 92.4624C1004.13 92.5779 1004.48 93.1094 1004.36 93.6495C1004.25 94.1895 1003.72 94.5336 1003.18 94.4181L1003.59 92.4624ZM991.449 91.9569C990.907 91.8513 990.553 91.3262 990.659 90.7841C990.765 90.242 991.29 89.8882 991.832 89.9938L991.449 91.9569ZM976.071 87.3413C976.618 87.4193 976.998 87.9257 976.92 88.4725C976.842 89.0192 976.335 89.3993 975.789 89.3213L976.071 87.3413ZM963.967 87.8549C963.418 87.7967 963.02 87.3043 963.078 86.755C963.136 86.2058 963.628 85.8078 964.178 85.866L963.967 87.8549ZM948.259 84.5451C948.81 84.5785 949.23 85.0525 949.197 85.6038C949.163 86.1551 948.689 86.5749 948.138 86.5414L948.259 84.5451ZM936.216 86.0076C935.664 85.9914 935.229 85.5308 935.245 84.9788C935.261 84.4267 935.722 83.9923 936.274 84.0084L936.216 86.0076ZM920.309 83.8538C920.862 83.8487 921.314 84.2922 921.319 84.8445C921.324 85.3968 920.88 85.8486 920.328 85.8537L920.309 83.8538ZM908.417 86.123C907.865 86.1427 907.401 85.7112 907.382 85.1592C907.362 84.6073 907.793 84.1439 908.345 84.1243L908.417 86.123ZM892.389 84.9535C892.94 84.9162 893.417 85.3326 893.454 85.8837C893.491 86.4347 893.075 86.9116 892.524 86.9489L892.389 84.9535ZM880.636 87.885C880.086 87.9342 879.6 87.5282 879.551 86.9781C879.502 86.428 879.908 85.9422 880.458 85.893L880.636 87.885ZM864.587 87.5237C865.135 87.4603 865.632 87.8537 865.695 88.4023C865.758 88.951 865.365 89.4471 864.816 89.5105L864.587 87.5237ZM852.948 90.9866C852.4 91.0594 851.897 90.6746 851.824 90.1271C851.752 89.5797 852.136 89.0769 852.684 89.0041L852.948 90.9866ZM836.902 91.2679C837.448 91.1842 837.958 91.5588 838.042 92.1047C838.126 92.6506 837.751 93.161 837.206 93.2448L836.902 91.2679ZM825.424 95.1332C824.879 95.2241 824.364 94.8561 824.273 94.3114C824.182 93.7666 824.55 93.2513 825.095 93.1604L825.424 95.1332ZM809.363 95.9102C809.906 95.8112 810.427 96.1714 810.526 96.7147C810.625 97.258 810.265 97.7788 809.722 97.8778L809.363 95.9102ZM798 100.073C797.457 100.177 796.933 99.8215 796.829 99.2792C796.725 98.7368 797.08 98.2127 797.623 98.1086L798 100.073ZM781.976 101.199C782.517 101.089 783.045 101.439 783.154 101.981C783.264 102.522 782.914 103.05 782.373 103.159L781.976 101.199ZM770.658 105.571C770.117 105.684 769.588 105.338 769.475 104.797C769.362 104.256 769.708 103.727 770.249 103.614L770.658 105.571ZM754.666 106.921C755.206 106.805 755.737 107.148 755.854 107.688C755.97 108.228 755.626 108.76 755.086 108.876L754.666 106.921ZM743.397 111.411C742.857 111.528 742.324 111.186 742.206 110.647C742.089 110.107 742.431 109.574 742.97 109.457L743.397 111.411ZM727.402 112.873C727.942 112.754 728.475 113.095 728.594 113.635C728.713 114.174 728.372 114.707 727.832 114.826L727.402 112.873ZM716.166 117.398C715.627 117.517 715.093 117.176 714.974 116.636C714.855 116.097 715.196 115.563 715.736 115.445L716.166 117.398ZM700.161 118.865C700.7 118.747 701.233 119.089 701.351 119.628C701.469 120.168 701.127 120.701 700.587 120.818L700.161 118.865ZM688.912 123.353C688.373 123.47 687.841 123.126 687.724 122.586C687.608 122.047 687.951 121.515 688.491 121.398L688.912 123.353ZM672.906 124.717C673.446 124.603 673.976 124.949 674.09 125.49C674.203 126.03 673.857 126.56 673.316 126.674L672.906 124.717ZM661.604 129.1C661.063 129.211 660.535 128.862 660.424 128.321C660.314 127.779 660.663 127.251 661.204 127.141L661.604 129.1ZM645.587 130.26C646.129 130.154 646.654 130.508 646.759 131.05C646.865 131.592 646.511 132.117 645.969 132.223L645.587 130.26ZM634.214 134.466C633.671 134.567 633.149 134.209 633.048 133.666C632.947 133.123 633.305 132.601 633.848 132.499L634.214 134.466ZM618.179 135.323C618.723 135.228 619.241 135.593 619.335 136.137C619.429 136.681 619.065 137.199 618.521 137.293L618.179 135.323ZM606.722 139.277C606.177 139.365 605.663 138.995 605.575 138.45C605.486 137.905 605.856 137.391 606.401 137.303L606.722 139.277ZM590.665 139.733C591.212 139.653 591.719 140.031 591.799 140.578C591.879 141.124 591.5 141.632 590.954 141.712L590.665 139.733ZM579.105 143.362C578.557 143.434 578.054 143.049 577.982 142.502C577.91 141.954 578.295 141.452 578.842 141.379L579.105 143.362ZM563.042 143.315C563.591 143.253 564.086 143.648 564.148 144.197C564.209 144.746 563.814 145.241 563.266 145.303L563.042 143.315ZM551.362 146.545C550.813 146.598 550.324 146.195 550.271 145.645C550.219 145.095 550.621 144.607 551.171 144.554L551.362 146.545ZM535.316 145.896C535.866 145.856 536.345 146.27 536.385 146.82C536.426 147.371 536.011 147.85 535.461 147.89L535.316 145.896ZM523.511 148.649C522.959 148.678 522.488 148.255 522.458 147.704C522.429 147.153 522.852 146.681 523.403 146.652L523.511 148.649ZM507.511 147.299C508.063 147.284 508.523 147.72 508.538 148.272C508.553 148.824 508.118 149.284 507.566 149.299L507.511 147.299ZM495.59 149.498C495.037 149.502 494.587 149.057 494.584 148.504C494.581 147.952 495.026 147.502 495.578 147.498L495.59 149.498ZM479.676 147.357C480.228 147.37 480.665 147.829 480.651 148.381C480.638 148.933 480.18 149.37 479.628 149.356L479.676 147.357ZM467.665 148.928C467.113 148.902 466.687 148.433 466.714 147.882C466.74 147.33 467.208 146.904 467.76 146.93L467.665 148.928ZM451.876 145.912C452.426 145.956 452.836 146.438 452.792 146.989C452.747 147.539 452.265 147.95 451.714 147.905L451.876 145.912ZM439.811 146.789C439.262 146.73 438.865 146.238 438.923 145.688C438.982 145.139 439.474 144.742 440.024 144.8L439.811 146.789ZM424.237 142.832C424.784 142.91 425.164 143.416 425.086 143.963C425.008 144.51 424.501 144.89 423.954 144.812L424.237 142.832ZM412.131 142.957C411.586 142.864 411.221 142.347 411.314 141.803C411.407 141.259 411.924 140.893 412.468 140.986L412.131 142.957ZM396.856 138.017C397.397 138.13 397.743 138.66 397.63 139.201C397.517 139.741 396.986 140.088 396.446 139.974L396.856 138.017ZM384.742 137.345C384.205 137.216 383.874 136.677 384.002 136.139C384.131 135.602 384.671 135.271 385.208 135.4L384.742 137.345ZM369.852 131.406C370.383 131.555 370.693 132.107 370.544 132.639C370.395 133.17 369.843 133.48 369.311 133.331L369.852 131.406ZM357.772 129.909C357.245 129.744 356.952 129.183 357.116 128.656C357.281 128.129 357.842 127.835 358.369 128L357.772 129.909ZM343.349 122.984C343.87 123.169 344.141 123.741 343.956 124.261C343.771 124.781 343.199 125.053 342.679 124.868L343.349 122.984ZM331.409 120.675C330.894 120.475 330.639 119.895 330.839 119.38C331.04 118.866 331.619 118.611 332.134 118.811L331.409 120.675ZM317.47 112.785C317.977 113.004 318.21 113.593 317.99 114.1C317.77 114.607 317.181 114.839 316.675 114.62L317.47 112.785ZM305.736 109.692C305.235 109.458 305.02 108.863 305.253 108.363C305.487 107.863 306.083 107.647 306.583 107.881L305.736 109.692ZM292.322 100.886C292.813 101.138 293.006 101.741 292.754 102.232C292.502 102.723 291.899 102.917 291.408 102.665L292.322 100.886ZM280.592 97.0857C280.095 96.8436 279.889 96.245 280.131 95.7486C280.374 95.2522 280.972 95.046 281.469 95.2881L280.592 97.0857ZM266.424 88.7708C266.94 88.9677 267.198 89.5456 267.001 90.0616C266.804 90.5776 266.227 90.8363 265.711 90.6393L266.424 88.7708ZM254.209 86.6655C253.682 86.5015 253.387 85.9411 253.551 85.4137C253.715 84.8863 254.275 84.5917 254.803 84.7556L254.209 86.6655ZM238.97 80.5188C239.509 80.6409 239.847 81.1764 239.725 81.7151C239.603 82.2537 239.067 82.5914 238.528 82.4694L238.97 80.5188ZM226.579 80.1035C226.035 80.0107 225.669 79.4942 225.761 78.9497C225.854 78.4053 226.371 78.0392 226.915 78.132L226.579 80.1035ZM210.685 75.9186C211.234 75.9757 211.633 76.4672 211.576 77.0166C211.519 77.5659 211.028 77.965 210.478 77.9079L210.685 75.9186ZM198.325 76.9195C197.774 76.8866 197.353 76.4131 197.386 75.8618C197.419 75.3105 197.893 74.8902 198.444 74.923L198.325 76.9195ZM182.082 74.388C182.634 74.3919 183.079 74.8428 183.075 75.395C183.071 75.9473 182.62 76.3918 182.068 76.388L182.082 74.388ZM169.864 76.5186C169.311 76.534 168.851 76.099 168.836 75.5469C168.821 74.9948 169.256 74.5348 169.808 74.5194L169.864 76.5186ZM153.466 75.3191C154.017 75.2811 154.494 75.6969 154.532 76.2478C154.57 76.7988 154.155 77.2763 153.604 77.3143L153.466 75.3191ZM141.431 78.3235C140.881 78.3764 140.392 77.9737 140.339 77.424C140.287 76.8742 140.689 76.3857 141.239 76.3327L141.431 78.3235ZM124.988 78.1618C125.536 78.0917 126.037 78.4789 126.107 79.0267C126.177 79.5745 125.79 80.0755 125.242 80.1456L124.988 78.1618ZM113.136 81.8233C112.59 81.9046 112.081 81.5275 112 80.9813C111.918 80.435 112.295 79.9263 112.842 79.8451L113.136 81.8233ZM96.7026 82.4402C97.2468 82.3465 97.7642 82.7118 97.8579 83.2561C97.9514 83.8003 97.5862 84.3175 97.042 84.4112L96.7026 82.4402ZM85.0071 86.574C84.4641 86.6754 83.9417 86.3175 83.8403 85.7746C83.739 85.2317 84.0967 84.7094 84.6396 84.608L85.0071 86.574ZM68.6011 87.7353C69.1426 87.6257 69.6702 87.9757 69.7798 88.517C69.8892 89.0583 69.5393 89.586 68.9978 89.6955L68.6011 87.7353ZM57.0186 92.1744C56.4783 92.2885 55.9478 91.9428 55.8337 91.4025C55.7197 90.8621 56.0652 90.3316 56.6057 90.2175L57.0186 92.1744ZM40.6367 93.6513C41.1763 93.5335 41.709 93.8755 41.8269 94.4151C41.9446 94.9547 41.6025 95.4876 41.063 95.6053L40.6367 93.6513ZM29.1055 98.2279C28.5662 98.3465 28.0327 98.0054 27.9141 97.466C27.7954 96.9266 28.1365 96.3932 28.676 96.2746L29.1055 98.2279ZM12.7349 99.7645C13.2744 99.6475 13.8069 99.9902 13.9238 100.53C14.041 101.07 13.6982 101.602 13.1584 101.719L12.7349 99.7645ZM1.17505 104.278C0.634521 104.391 0.104736 104.045 -0.00854492 103.504C-0.121826 102.964 0.224609 102.434 0.765137 102.32L1.17505 104.278ZM-15.1819 105.531C-14.6394 105.427 -14.1155 105.783 -14.0117 106.325C-13.9077 106.868 -14.2632 107.392 -14.8057 107.495L-15.1819 105.531ZM-26.8611 109.681C-27.4058 109.773 -27.9219 109.407 -28.0144 108.862C-28.1067 108.318 -27.7402 107.801 -27.1958 107.709L-26.8611 109.681ZM-43.353 110.117C-42.8049 110.049 -42.3052 110.438 -42.2368 110.986C-42.1685 111.534 -42.5571 112.034 -43.1052 112.102L-43.353 110.117ZM-55.3313 113.335C-55.8821 113.376 -56.3616 112.962 -56.4021 112.412C-56.4429 111.861 -56.0293 111.381 -55.4785 111.341L-55.3313 113.335ZM-71.679 111.739C-71.127 111.758 -70.6951 112.221 -70.7141 112.773C-70.7332 113.325 -71.196 113.757 -71.7478 113.738L-71.679 111.739ZM-84.0222 112.549C-84.5667 112.457 -84.9326 111.94 -84.8398 111.396C-84.7471 110.851 -84.2305 110.485 -83.686 110.578L-84.0222 112.549ZM-98.8618 105.744C-98.3718 105.999 -98.1809 106.602 -98.4358 107.092C-98.6904 107.583 -99.2942 107.773 -99.7842 107.518L-98.8618 105.744ZM-110.085 101.429C-110.569 101.164 -110.747 100.556 -110.482 100.072C-110.217 99.587 -109.61 99.409 -109.125 99.6739L-110.085 101.429ZM-123.041 92.3359C-122.549 92.5866 -122.354 93.1887 -122.604 93.6809C-122.855 94.173 -123.457 94.3687 -123.949 94.1181L-123.041 92.3359ZM-134.51 88.8671C-135.007 88.6259 -135.214 88.0276 -134.973 87.5308C-134.732 87.0339 -134.134 86.8267 -133.637 87.0679L-134.51 88.8671ZM-147.851 80.3727C-147.349 80.6023 -147.128 81.1956 -147.358 81.6979C-147.587 82.2002 -148.18 82.4213 -148.683 82.1917L-147.851 80.3727ZM-159.429 77.3894C-159.935 77.1682 -160.166 76.5787 -159.945 76.0726C-159.724 75.5665 -159.134 75.3355 -158.628 75.5567L-159.429 77.3894ZM-173.146 69.4014C-172.635 69.6115 -172.391 70.1958 -172.601 70.7066C-172.811 71.2174 -173.395 71.4612 -173.906 71.2512L-173.146 69.4014ZM-184.819 66.8675C-185.333 66.6658 -185.587 66.0855 -185.385 65.5714C-185.183 65.0572 -184.603 64.8039 -184.089 65.0056L-184.819 66.8675ZM-198.781 59.4281C-198.262 59.6184 -197.996 60.193 -198.187 60.7114C-198.377 61.2299 -198.951 61.496 -199.47 61.3057L-198.781 59.4281ZM-210.552 57.3441C-211.074 57.1626 -211.35 56.5926 -211.168 56.071C-210.987 55.5494 -210.417 55.2736 -209.895 55.4551L-210.552 57.3441ZM-224.822 50.4564C-224.296 50.6256 -224.007 51.1889 -224.176 51.7147C-224.345 52.2404 -224.909 52.5295 -225.434 52.3603L-224.822 50.4564ZM-236.667 48.8589C-237.196 48.6994 -237.495 48.1415 -237.336 47.6128C-237.176 47.084 -236.618 46.7846 -236.09 46.9441L-236.667 48.8589ZM-251.221 42.5917C-250.688 42.7374 -250.374 43.2874 -250.52 43.8201C-250.666 44.3528 -251.216 44.6665 -251.748 44.5208L-251.221 42.5917ZM-263.124 41.5339C-263.66 41.3992 -263.985 40.8559 -263.85 40.3202C-263.715 39.7846 -263.172 39.4596 -262.636 39.5943L-263.124 41.5339ZM-277.955 35.9779C-277.416 36.0967 -277.075 36.6303 -277.194 37.1697C-277.313 37.709 -277.846 38.0499 -278.386 37.931L-277.955 35.9779ZM-289.899 35.5352C-290.441 35.4292 -290.795 34.9039 -290.689 34.3619C-290.583 33.8198 -290.057 33.4664 -289.515 33.5724L-289.899 35.5352ZM-305.02 30.8116C-304.474 30.8989 -304.103 31.4118 -304.19 31.9571C-304.278 32.5025 -304.791 32.8738 -305.336 32.7865L-305.02 30.8116ZM-316.969 31.0892C-317.517 31.0172 -317.903 30.515 -317.831 29.9674C-317.759 29.4198 -317.256 29.0343 -316.709 29.1062L-316.969 31.0892ZM-332.362 27.3703C-331.812 27.4197 -331.406 27.9056 -331.456 28.4557C-331.505 29.0058 -331.991 29.4117 -332.541 29.3623L-332.362 27.3703ZM-344.26 28.5084C-344.811 28.4778 -345.233 28.0059 -345.203 27.4545C-345.172 26.9031 -344.7 26.4809 -344.149 26.5115L-344.26 28.5084ZM-359.893 26.0263C-359.341 26.0291 -358.896 26.4791 -358.898 27.0314C-358.901 27.5837 -359.351 28.0291 -359.904 28.0262L-359.893 26.0263ZM-371.643 28.2091C-372.195 28.2295 -372.659 27.7986 -372.679 27.2467C-372.7 26.6948 -372.269 26.2309 -371.717 26.2105L-371.643 28.2091ZM-387.466 27.2783C-386.916 27.2233 -386.426 27.6241 -386.371 28.1737C-386.316 28.7232 -386.717 29.2133 -387.266 29.2683L-387.466 27.2783ZM-398.902 30.7396C-399.448 30.8236 -399.959 30.4491 -400.043 29.9033C-400.127 29.3574 -399.752 28.8468 -399.207 28.7629L-398.902 30.7396ZM-414.692 31.7602C-414.154 31.6335 -413.615 31.9665 -413.489 32.5041C-413.362 33.0416 -413.695 33.5801 -414.233 33.7068L-414.692 31.7602ZM-425.537 36.7626C-426.065 36.9245 -426.625 36.6278 -426.787 36.0997C-426.948 35.5717 -426.652 35.0124 -426.124 34.8505L-425.537 36.7626ZM-441.001 40.2062C-440.492 39.9935 -439.906 40.2343 -439.694 40.744C-439.481 41.2537 -439.722 41.8393 -440.231 42.052L-441.001 40.2062ZM2466.06 17.398C2464.28 16.5249 2462.48 15.6927 2460.67 14.9005L2461.47 13.0681C2463.31 13.8718 2465.13 14.7161 2466.94 15.6019L2466.06 17.398ZM2445.86 9.39307C2442.09 8.22407 2438.27 7.20706 2434.41 6.33593L2434.85 4.38484C2438.76 5.26725 2442.63 6.2978 2446.46 7.48286L2445.86 9.39307ZM2418.82 3.62892C2414.91 3.14333 2410.97 2.79003 2406.99 2.5633L2407.11 0.566538C2411.13 0.79572 2415.11 1.15294 2419.06 1.64423L2418.82 3.62892ZM2391.14 2.31215C2387.21 2.405 2383.26 2.60909 2379.28 2.91923L2379.12 0.925276C2383.14 0.612447 2387.13 0.406447 2391.09 0.312708L2391.14 2.31215ZM2363.5 4.67521C2359.61 5.23401 2355.7 5.88508 2351.78 6.62374L2351.41 4.65826C2355.36 3.91445 2359.3 3.25858 2363.22 2.69551L2363.5 4.67521ZM2336.25 9.97623C2332.42 10.9055 2328.59 11.911 2324.75 12.9884L2324.21 11.0627C2328.07 9.9792 2331.93 8.96776 2335.78 8.03271L2336.25 9.97623ZM2309.54 17.609C2305.79 18.8358 2302.04 20.1255 2298.28 21.4741L2297.61 19.5919C2301.38 18.237 2305.15 16.941 2308.92 15.708L2309.54 17.609ZM2283.42 27.1163C2279.75 28.5859 2276.08 30.1072 2272.41 31.6764L2271.63 29.8379C2275.3 28.2625 2278.99 26.735 2282.68 25.2592L2283.42 27.1163ZM2257.89 38.1574C2254.29 39.8287 2250.71 41.542 2247.13 43.2936L2246.25 41.4976C2249.84 39.74 2253.44 38.0207 2257.05 36.3434L2257.89 38.1574ZM2232.94 50.4773C2229.42 52.3189 2225.91 54.1939 2222.42 56.0985L2221.46 54.3432C2224.96 52.4329 2228.48 50.5522 2232.02 48.7047L2232.94 50.4773ZM2208.55 63.8829C2205.1 65.8715 2201.67 67.8851 2198.27 69.9202L2197.25 68.2039C2200.66 66.1634 2204.09 64.1442 2207.55 62.1501L2208.55 63.8829ZM2184.71 78.2291C2181.32 80.3529 2177.97 82.4937 2174.64 84.6476L2173.56 82.9693C2176.89 80.81 2180.25 78.6638 2183.65 76.5346L2184.71 78.2291ZM2161.38 93.4262C2158.06 95.6729 2154.78 97.928 2151.53 100.187L2150.39 98.5464C2153.64 96.2818 2156.93 94.0213 2160.26 91.7692L2161.38 93.4262ZM2138.57 109.4C2135.31 111.763 2132.1 114.124 2128.95 116.479L2127.75 114.876C2130.92 112.516 2134.13 110.149 2137.4 107.781L2138.57 109.4ZM2116.3 126.102C2113.11 128.582 2109.98 131.047 2106.92 133.491L2105.67 131.929C2108.74 129.479 2111.87 127.008 2115.08 124.522L2116.3 126.102ZM2094.62 143.516C2091.49 146.121 2088.45 148.69 2085.52 151.218L2084.21 149.701C2087.16 147.167 2090.2 144.59 2093.34 141.978L2094.62 143.516ZM2073.52 161.777C2072.04 163.114 2070.59 164.434 2069.18 165.736L2067.82 164.264C2069.24 162.958 2070.69 161.634 2072.18 160.293L2073.52 161.777ZM2069.17 165.743C2067.57 167.187 2065.95 168.533 2064.32 169.784L2063.1 168.196C2064.69 166.979 2066.27 165.667 2067.83 164.257L2069.17 165.743ZM2050.12 178.177C2046.26 179.842 2042.31 181.073 2038.27 181.912L2037.86 179.953C2041.77 179.141 2045.59 177.95 2049.33 176.34L2050.12 178.177ZM2021.81 183.273C2017.79 183.153 2013.69 182.734 2009.51 182.052L2009.83 180.078C2013.94 180.748 2017.95 181.157 2021.87 181.274L2021.81 183.273ZM1993.41 178.329C1989.58 177.213 1985.68 175.932 1981.71 174.508L1982.39 172.625C1986.33 174.038 1990.19 175.306 1993.97 176.409L1993.41 178.329ZM1966.49 168.554C1962.8 167.005 1959.05 165.366 1955.22 163.651L1956.04 161.826C1959.85 163.536 1963.59 165.169 1967.27 166.709L1966.49 168.554ZM1940.37 156.798C1936.73 155.085 1933.04 153.325 1929.28 151.53L1930.14 149.726C1933.9 151.52 1937.59 153.278 1941.22 154.989L1940.37 156.798ZM1914.54 144.473C1910.9 142.735 1907.2 140.98 1903.45 139.215L1904.3 137.405C1908.06 139.172 1911.76 140.93 1915.4 142.668L1914.54 144.473ZM1888.63 132.351C1884.94 130.675 1881.21 129.002 1877.41 127.339L1878.22 125.507C1882.02 127.174 1885.77 128.851 1889.46 130.53L1888.63 132.351ZM1862.39 120.936C1858.67 119.398 1854.89 117.877 1851.06 116.381L1851.79 114.518C1855.63 116.02 1859.42 117.545 1863.15 119.088L1862.39 120.936ZM1835.79 110.653C1831.99 109.289 1828.13 107.955 1824.23 106.657L1824.86 104.759C1828.78 106.062 1832.65 107.402 1836.46 108.771L1835.79 110.653ZM1808.66 101.763C1804.77 100.613 1800.84 99.5031 1796.85 98.439L1797.37 96.5068C1801.37 97.5756 1805.32 98.6902 1809.23 99.8454L1808.66 101.763ZM1781.05 94.5273C1777.11 93.6313 1773.13 92.7833 1769.11 91.9877L1769.49 90.0256C1773.54 90.825 1777.54 91.6771 1781.49 92.5772L1781.05 94.5273ZM1753.04 89.1407C1749.04 88.5139 1745 87.9414 1740.91 87.4271L1741.16 85.4428C1745.27 85.9596 1749.33 86.5349 1753.35 87.1648L1753.04 89.1407ZM1724.73 85.7254C1720.7 85.3846 1716.63 85.1022 1712.52 84.8816L1712.62 82.8844C1716.76 83.1062 1720.85 83.39 1724.9 83.7325L1724.73 85.7254ZM1696.16 84.3412C1692.15 84.2912 1688.11 84.3009 1684.02 84.3734L1683.99 82.3737C1688.09 82.3009 1692.16 82.2911 1696.18 82.3413L1696.16 84.3412ZM1667.72 84.9912C1663.68 85.2249 1659.61 85.5205 1655.5 85.8807L1655.33 83.8884C1659.46 83.5264 1663.55 83.2294 1667.6 82.9945L1667.72 84.9912ZM1639.34 87.6114C1635.3 88.1223 1631.22 88.696 1627.1 89.3349L1626.8 87.3586C1630.93 86.7168 1635.03 86.1405 1639.09 85.6272L1639.34 87.6114ZM1611.15 92.1093C1607.18 92.8747 1603.16 93.7012 1599.12 94.5908L1598.69 92.6375C1602.75 91.7441 1606.78 90.9141 1610.78 90.1453L1611.15 92.1093ZM1583.29 98.3574C1581.28 98.8688 1579.28 99.3956 1577.26 99.9381L1576.74 98.0068C1578.76 97.4621 1580.78 96.9332 1582.79 96.4197L1583.29 98.3574ZM1577.26 99.9381C1575.31 100.462 1573.37 100.979 1571.44 101.49L1570.93 99.556C1572.86 99.0459 1574.8 98.5295 1576.74 98.0068L1577.26 99.9381ZM1556 105.452C1552.1 106.426 1548.21 107.375 1544.35 108.297L1543.88 106.352C1547.74 105.431 1551.62 104.484 1555.52 103.512L1556 105.452ZM1528.79 111.893C1524.88 112.767 1520.99 113.614 1517.12 114.436L1516.7 112.479C1520.57 111.659 1524.45 110.813 1528.35 109.941L1528.79 111.893ZM1501.49 117.626C1497.54 118.401 1493.61 119.148 1489.7 119.869L1489.33 117.902C1493.24 117.182 1497.16 116.436 1501.1 115.664L1501.49 117.626ZM1473.97 122.634C1470.03 123.296 1466.09 123.93 1462.17 124.538L1461.87 122.561C1465.78 121.955 1469.7 121.322 1473.64 120.661L1473.97 122.634ZM1446.39 126.851C1442.41 127.4 1438.45 127.922 1434.49 128.416L1434.25 126.431C1438.19 125.938 1442.15 125.418 1446.12 124.87L1446.39 126.851ZM1418.64 130.261C1414.66 130.69 1410.69 131.091 1406.73 131.465L1406.54 129.474C1410.49 129.1 1414.45 128.7 1418.42 128.273L1418.64 130.261ZM1390.83 132.827C1386.84 133.134 1382.86 133.414 1378.88 133.667L1378.76 131.671C1382.72 131.419 1386.69 131.139 1390.68 130.833L1390.83 132.827ZM1362.94 134.542C1358.95 134.726 1354.96 134.884 1350.98 135.015L1350.91 133.016C1354.88 132.885 1358.86 132.728 1362.85 132.544L1362.94 134.542ZM1335.02 135.403C1331.03 135.466 1327.04 135.503 1323.05 135.514L1323.04 133.514C1327.02 133.503 1331 133.466 1334.99 133.403L1335.02 135.403ZM1307.08 135.426C1303.09 135.371 1299.1 135.291 1295.11 135.186L1295.17 133.187C1299.15 133.291 1303.13 133.371 1307.11 133.427L1307.08 135.426ZM1279.16 134.64C1275.18 134.472 1271.19 134.28 1267.2 134.065L1267.31 132.068C1271.29 132.283 1275.27 132.474 1279.25 132.642L1279.16 134.64ZM1251.27 133.085C1247.29 132.811 1243.31 132.515 1239.33 132.196L1239.49 130.203C1243.47 130.52 1247.44 130.816 1251.41 131.09L1251.27 133.085ZM1223.43 130.814C1219.47 130.442 1215.5 130.05 1211.52 129.637L1211.73 127.647C1215.7 128.06 1219.66 128.452 1223.62 128.823L1223.43 130.814ZM1195.66 127.887C1191.71 127.425 1187.74 126.945 1183.76 126.445L1184.01 124.46C1187.98 124.959 1191.94 125.44 1195.89 125.9L1195.66 127.887ZM1167.94 124.364C1164.01 123.825 1160.06 123.267 1156.11 122.693L1156.4 120.714C1160.35 121.287 1164.29 121.844 1168.21 122.383L1167.94 124.364ZM1140.33 120.32C1136.4 119.71 1132.45 119.082 1128.5 118.439L1128.82 116.465C1132.77 117.108 1136.71 117.734 1140.64 118.344L1140.33 120.32ZM1112.74 115.809C1108.84 115.14 1104.92 114.457 1100.98 113.758L1101.33 111.789C1105.27 112.487 1109.18 113.17 1113.08 113.838L1112.74 115.809ZM1085.29 110.913C1081.38 110.19 1077.45 109.453 1073.5 108.702L1073.88 106.737C1077.82 107.487 1081.74 108.224 1085.65 108.947L1085.29 110.913ZM1057.84 105.672C1053.95 104.908 1050.05 104.132 1046.13 103.345L1046.53 101.384C1050.44 102.171 1054.34 102.946 1058.23 103.709L1057.84 105.672ZM1030.5 100.161C1026.6 99.3582 1022.69 98.5443 1018.76 97.7197L1019.17 95.7622C1023.1 96.5864 1027.01 97.3999 1030.9 98.2023L1030.5 100.161ZM1003.18 94.4181C1001.22 93.9993 999.256 93.5781 997.289 93.1544L997.711 91.1992C999.677 91.6228 1001.64 92.0438 1003.59 92.4624L1003.18 94.4181ZM997.289 93.1544C995.346 92.7357 993.399 92.3367 991.449 91.9569L991.832 89.9938C993.794 90.376 995.754 90.7777 997.711 91.1992L997.289 93.1544ZM975.789 89.3213C971.86 88.7613 967.919 88.2737 963.967 87.8549L964.178 85.866C968.153 86.2873 972.118 86.7779 976.071 87.3413L975.789 89.3213ZM948.138 86.5414C944.175 86.3009 940.201 86.1241 936.216 86.0076L936.274 84.0084C940.28 84.1256 944.275 84.3033 948.259 84.5451L948.138 86.5414ZM920.328 85.8537C916.368 85.8903 912.398 85.9811 908.417 86.123L908.345 84.1243C912.343 83.9818 916.331 83.8905 920.309 83.8538L920.328 85.8537ZM892.524 86.9489C888.571 87.2166 884.609 87.5297 880.636 87.885L880.458 85.893C884.444 85.5364 888.421 85.2222 892.389 84.9535L892.524 86.9489ZM864.816 89.5105C860.869 89.9663 856.913 90.4594 852.948 90.9866L852.684 89.0041C856.66 88.4754 860.628 87.9809 864.587 87.5237L864.816 89.5105ZM837.206 93.2448C833.287 93.8461 829.36 94.4765 825.424 95.1332L825.095 93.1604C829.039 92.5024 832.974 91.8706 836.902 91.2679L837.206 93.2448ZM809.722 97.8778C805.822 98.5885 801.915 99.3211 798 100.073L797.623 98.1086C801.544 97.3558 805.457 96.6221 809.363 95.9102L809.722 97.8778ZM782.373 103.159C778.475 103.949 774.57 104.754 770.658 105.571L770.249 103.614C774.165 102.795 778.074 101.99 781.976 101.199L782.373 103.159ZM755.086 108.876C751.197 109.713 747.3 110.559 743.397 111.411L742.97 109.457C746.875 108.604 750.774 107.758 754.666 106.921L755.086 108.876ZM727.832 114.826C723.949 115.682 720.062 116.539 716.166 117.398L715.736 115.445C719.63 114.587 723.52 113.728 727.402 112.873L727.832 114.826ZM700.587 120.818C696.702 121.667 692.81 122.513 688.912 123.353L688.491 121.398C692.387 120.558 696.276 119.713 700.161 118.865L700.587 120.818ZM673.316 126.674C669.418 127.492 665.514 128.302 661.604 129.1L661.204 127.141C665.11 126.343 669.01 125.534 672.906 124.717L673.316 126.674ZM645.969 132.223C642.056 132.985 638.138 133.734 634.214 134.466L633.848 132.499C637.766 131.769 641.679 131.021 645.587 130.26L645.969 132.223ZM618.521 137.293C614.593 137.975 610.66 138.637 606.722 139.277L606.401 137.303C610.332 136.664 614.258 136.003 618.179 135.323L618.521 137.293ZM590.954 141.712C587.009 142.288 583.059 142.838 579.105 143.362L578.842 141.379C582.788 140.857 586.729 140.307 590.665 139.733L590.954 141.712ZM563.266 145.303C559.302 145.748 555.335 146.163 551.362 146.545L551.171 144.554C555.132 144.173 559.089 143.759 563.042 143.315L563.266 145.303ZM535.461 147.89C531.482 148.18 527.498 148.433 523.511 148.649L523.403 146.652C527.378 146.437 531.349 146.184 535.316 145.896L535.461 147.89ZM507.566 149.299C503.578 149.407 499.586 149.475 495.59 149.498L495.578 147.498C499.559 147.475 503.537 147.408 507.511 147.299L507.566 149.299ZM479.628 149.356C475.644 149.261 471.656 149.119 467.665 148.928L467.76 146.93C471.735 147.12 475.707 147.262 479.676 147.357L479.628 149.356ZM451.714 147.905C447.75 147.584 443.782 147.213 439.811 146.789L440.024 144.8C443.977 145.223 447.928 145.592 451.876 145.912L451.714 147.905ZM423.954 144.812C420.016 144.249 416.075 143.631 412.131 142.957L412.468 140.986C416.394 141.657 420.317 142.272 424.237 142.832L423.954 144.812ZM396.446 139.974C392.547 139.157 388.646 138.281 384.742 137.345L385.208 135.4C389.093 136.332 392.976 137.203 396.856 138.017L396.446 139.974ZM369.311 133.331C365.467 132.252 361.621 131.112 357.772 129.909L358.369 128C362.199 129.197 366.026 130.331 369.852 131.406L369.311 133.331ZM342.679 124.868C338.924 123.533 335.167 122.136 331.409 120.675L332.134 118.811C335.874 120.265 339.613 121.655 343.349 122.984L342.679 124.868ZM316.675 114.62C313.03 113.04 309.384 111.398 305.736 109.692L306.583 107.881C310.214 109.578 313.843 111.212 317.47 112.785L316.675 114.62ZM291.408 102.665C289.616 101.744 287.823 100.808 286.031 99.8555L286.969 98.0893C288.754 99.0373 290.538 99.9693 292.322 100.886L291.408 102.665ZM286.031 99.8555C284.229 98.8985 282.416 97.9755 280.592 97.0857L281.469 95.2881C283.313 96.1879 285.147 97.1213 286.969 98.0893L286.031 99.8555ZM265.711 90.6393C261.916 89.191 258.081 87.8687 254.209 86.6655L254.803 84.7556C258.713 85.9709 262.588 87.307 266.424 88.7708L265.711 90.6393ZM238.528 82.4694C234.575 81.5736 230.59 80.7872 226.579 80.1035L226.915 78.132C230.961 78.8215 234.98 79.6148 238.97 80.5188L238.528 82.4694ZM210.478 77.9079C206.447 77.4891 202.394 77.1618 198.325 76.9195L198.444 74.923C202.541 75.167 206.623 75.4966 210.685 75.9186L210.478 77.9079ZM182.068 76.388C178.01 76.3594 173.94 76.4051 169.864 76.5186L169.808 74.5194C173.907 74.4052 177.999 74.3592 182.082 74.388L182.068 76.388ZM153.604 77.3143C149.547 77.5945 145.488 77.9329 141.431 78.3235L141.239 76.3327C145.313 75.9405 149.39 75.6005 153.466 75.3191L153.604 77.3143ZM125.242 80.1456C121.199 80.6633 117.162 81.2246 113.136 81.8233L112.842 79.8451C116.881 79.2445 120.931 78.6814 124.988 78.1618L125.242 80.1456ZM97.042 84.4112C93.0134 85.1048 89.0005 85.8279 85.0071 86.574L84.6396 84.608C88.6416 83.8604 92.6638 83.1356 96.7026 82.4402L97.042 84.4112ZM68.9978 89.6955C64.9778 90.5092 60.9832 91.3378 57.0186 92.1744L56.6057 90.2175C60.5747 89.38 64.5747 88.5502 68.6011 87.7353L68.9978 89.6955ZM41.063 95.6053C37.0374 96.4836 33.0503 97.3603 29.1055 98.2279L28.676 96.2746C32.6206 95.407 36.6091 94.5299 40.6367 93.6513L41.063 95.6053ZM13.1584 101.719C9.10718 102.597 5.11084 103.453 1.17505 104.278L0.765137 102.32C4.69482 101.497 8.68652 100.642 12.7349 99.7645L13.1584 101.719ZM-14.8057 107.495C-18.9075 108.281 -22.9285 109.013 -26.8611 109.681L-27.1958 107.709C-23.2791 107.044 -19.2722 106.314 -15.1819 105.531L-14.8057 107.495ZM-43.1052 112.102C-47.3123 112.627 -51.3914 113.045 -55.3313 113.335L-55.4785 111.341C-51.5771 111.053 -47.532 110.639 -43.353 110.117L-43.1052 112.102ZM-71.7478 113.738C-76.0771 113.589 -80.1763 113.205 -84.0222 112.549L-83.686 110.578C-79.9434 111.216 -75.9351 111.593 -71.679 111.739L-71.7478 113.738ZM-99.7842 107.518C-101.67 106.538 -103.444 105.43 -105.101 104.184L-103.899 102.585C-102.335 103.761 -100.655 104.812 -98.8618 105.744L-99.7842 107.518ZM-104.991 104.256C-106.637 103.328 -108.336 102.385 -110.085 101.429L-109.125 99.6739C-107.369 100.634 -105.663 101.582 -104.009 102.514L-104.991 104.256ZM-123.949 94.1181C-127.34 92.3907 -130.864 90.6373 -134.51 88.8671L-133.637 87.0679C-129.979 88.8436 -126.444 90.6026 -123.041 92.3359L-123.949 94.1181ZM-148.683 82.1917C-152.181 80.5932 -155.765 78.9903 -159.429 77.3894L-158.628 75.5567C-154.954 77.1621 -151.359 78.7696 -147.851 80.3727L-148.683 82.1917ZM-173.906 71.2512C-177.485 69.7795 -181.125 68.3166 -184.819 66.8675L-184.089 65.0056C-180.384 66.4587 -176.735 67.9257 -173.146 69.4014L-173.906 71.2512ZM-199.47 61.3057C-203.123 59.9651 -206.818 58.6431 -210.552 57.3441L-209.895 55.4551C-206.15 56.7579 -202.444 58.0837 -198.781 59.4281L-199.47 61.3057ZM-225.434 52.3603C-229.15 51.1646 -232.896 49.9962 -236.667 48.8589L-236.09 46.9441C-232.306 48.085 -228.549 49.2571 -224.822 50.4564L-225.434 52.3603ZM-251.748 44.5208C-255.523 43.4884 -259.316 42.4915 -263.124 41.5339L-262.636 39.5943C-258.815 40.5553 -255.008 41.5557 -251.221 42.5917L-251.748 44.5208ZM-278.386 37.931C-282.216 37.0868 -286.056 36.2869 -289.899 35.5352L-289.515 33.5724C-285.656 34.3272 -281.801 35.1303 -277.955 35.9779L-278.386 37.931ZM-305.336 32.7865C-309.217 32.1651 -313.096 31.5981 -316.969 31.0892L-316.709 29.1062C-312.816 29.6176 -308.918 30.1874 -305.02 30.8116L-305.336 32.7865ZM-332.541 29.3623C-336.461 29.0105 -340.369 28.7245 -344.26 28.5084L-344.149 26.5115C-340.235 26.7288 -336.304 27.0165 -332.362 27.3703L-332.541 29.3623ZM-359.904 28.0262C-363.843 28.006 -367.758 28.0655 -371.643 28.2091L-371.717 26.2105C-367.803 26.0658 -363.86 26.0059 -359.893 26.0263L-359.904 28.0262ZM-387.266 29.2683C-391.186 29.6609 -395.067 30.1497 -398.902 30.7396L-399.207 28.7629C-395.335 28.1674 -391.419 27.6742 -387.466 27.2783L-387.266 29.2683ZM-414.233 33.7068C-418.059 34.6087 -421.829 35.6255 -425.537 36.7626L-426.124 34.8505C-422.372 33.6999 -418.559 32.6717 -414.692 31.7602L-414.233 33.7068ZM-440.231 42.052C-442.032 42.8035 -443.815 43.5883 -445.579 44.407L-446.421 42.593C-444.633 41.763 -442.826 40.9677 -441.001 40.2062L-440.231 42.052Z" fill="black" fill-opacity="0.3"/>
<circle cx="1721.32" cy="469" r="8" fill="#E13914" stroke="white" stroke-width="4"/>
<path d="M1693.37 491.963C1695.98 491.855 1700.48 493.077 1700.74 495.908C1701.11 499.93 1697.32 503.286 1695.36 506.529C1694.17 508.496 1692.83 510.423 1691.71 512.416C1691.4 512.959 1691.44 512.642 1691.63 512.571C1692.82 512.136 1694.62 512.245 1695.91 512.298C1697.21 512.352 1698.59 512.44 1699.88 512.666C1700.06 512.697 1700.23 512.784 1700.39 512.681C1700.61 512.53 1700.88 512.414 1701.14 512.366" stroke="#E13914" stroke-width="5" stroke-linecap="round"/>
<path d="M1711.85 508.893C1709.12 505.212 1709.1 498.958 1709.81 494.612C1711.67 491.299 1715.27 495.385 1716.45 497.872C1717.64 500.359 1719.63 507.909 1716.35 510.839C1715.82 511.312 1714.13 511.147 1713.59 510.769C1712.76 510.179 1712.46 509.717 1711.85 508.893Z" stroke="#E13914" stroke-width="5" stroke-linecap="round"/>
<path d="M1747.04 508.893C1744.31 505.212 1744.28 498.958 1745 494.612C1746.85 491.299 1750.46 495.385 1751.64 497.872C1752.82 500.359 1754.81 507.909 1751.53 510.839C1751 511.312 1749.31 511.147 1748.78 510.769C1747.95 510.179 1747.65 509.717 1747.04 508.893Z" stroke="#E13914" stroke-width="5" stroke-linecap="round"/>
<path d="M1725.33 492.362C1727.92 492.092 1732.5 492.977 1732.98 495.67C1733.66 499.496 1730.15 502.948 1728.45 506.176C1727.42 508.134 1726.23 510.064 1725.27 512.042C1725.01 512.582 1725.03 512.275 1725.21 512.195C1726.36 511.704 1728.16 511.694 1729.44 511.663C1730.75 511.632 1732.13 511.63 1733.43 511.763C1733.62 511.782 1733.79 511.854 1733.94 511.746C1734.15 511.587 1734.4 511.46 1734.66 511.397" stroke="#E13914" stroke-width="5" stroke-linecap="round"/>
<circle cx="179" cy="592" r="8" fill="#E13914" stroke="white" stroke-width="4"/>
<path d="M158.259 624.279C160.75 623.476 165.41 623.452 166.416 626.111C167.845 629.888 165.096 634.133 164.073 637.782C163.453 639.996 162.672 642.212 162.123 644.432C161.973 645.038 161.929 644.72 162.095 644.601C163.119 643.865 164.887 643.488 166.138 643.196C167.408 642.9 168.76 642.617 170.069 642.488C170.25 642.47 170.438 642.508 170.557 642.368C170.732 642.163 170.958 641.981 171.198 641.864" stroke="#E13914" stroke-width="5" stroke-linecap="round"/>
<path d="M180.019 638.132C176.894 634.783 176.16 628.572 176.378 624.173C177.846 620.672 181.89 624.323 183.346 626.66C184.803 628.998 187.633 636.274 184.705 639.557C184.232 640.087 182.534 640.114 181.962 639.799C181.07 639.306 180.719 638.881 180.019 638.132Z" stroke="#E13914" stroke-width="5" stroke-linecap="round"/>
<path d="M193.531 617.919C193.914 620.334 194.298 622.748 194.681 625.162C195.481 630.204 197.135 634.753 198.771 639.589" stroke="#E13914" stroke-width="5" stroke-linecap="round"/>
<path d="M214.579 616.274C213.389 615.276 211.585 614.833 209.356 615.468C208.314 615.414 205.872 616.73 205.712 617.5C205.456 617.835 206.056 618.37 206.233 618.618C206.605 619.135 206.844 619.715 207.485 620.131C208.128 620.548 208.886 620.937 209.57 621.333C210.149 621.669 210.881 621.918 211.461 622.258C212.012 622.58 212.454 622.992 213.024 623.294C214.119 623.871 215.472 624.297 216.568 624.871C218.539 625.902 219.574 627.713 220.476 629.148C221.075 630.103 220.526 630.844 220.393 631.884C220.274 632.818 219.983 633.833 218.855 634.671C217.318 635.815 214.277 635.802 212.544 635.459C211.581 635.268 210.48 635.073 209.889 634.597C209.293 634.117 209.318 633.168 209.222 632.563C208.668 629.077 209.648 625.574 211.655 621.989C212.293 620.849 214.147 619.587 214.927 618.463C215.274 617.964 215.77 617.272 214.579 616.274Z" stroke="#E13914" stroke-width="5" stroke-linecap="round"/>
<circle cx="1497" cy="120" r="8" fill="#E13914" stroke="white" stroke-width="4"/>
<path d="M1451.17 68.7524C1453.75 68.3497 1458.36 69.056 1458.93 71.8397C1459.75 75.7949 1456.37 79.5559 1454.79 82.9994C1453.83 85.0887 1452.71 87.1552 1451.82 89.2619C1451.58 89.8365 1451.59 89.5159 1451.77 89.4242C1452.9 88.8579 1454.7 88.7628 1455.98 88.6707C1457.28 88.5771 1458.66 88.5094 1459.98 88.5873C1460.16 88.5981 1460.34 88.6653 1460.48 88.5455C1460.68 88.3704 1460.93 88.2256 1461.19 88.1479" stroke="#E13914" stroke-width="5" stroke-linecap="round"/>
<path d="M1470.49 85.8445C1467.92 82.0468 1468.17 75.7977 1469.08 71.4875C1471.08 68.2596 1474.5 72.4999 1475.57 75.0366C1476.64 77.5734 1478.3 85.2035 1474.89 87.987C1474.34 88.4362 1472.66 88.1966 1472.14 87.7952C1471.34 87.1694 1471.06 86.6945 1470.49 85.8445Z" stroke="#E13914" stroke-width="5" stroke-linecap="round"/>
<path d="M1487 68C1487 70.4445 1487 72.8891 1487 75.3336C1487 80.4386 1487.92 85.19 1488.78 90.2232" stroke="#E13914" stroke-width="5" stroke-linecap="round"/>
<path d="M1499.04 68C1499.04 70.3354 1499.04 72.6708 1499.04 75.0062C1499.04 78.251 1498.84 81.5838 1499.37 84.7986C1499.27 86.0574 1500.36 88.2178 1501.09 89.2106C1501.91 89.9313 1502.98 91.1179 1504.18 91.1179C1504.95 91.1179 1505.56 90.3821 1505.95 89.7951C1506.25 89.3396 1506.44 88.7867 1506.52 88.2505C1506.66 87.3388 1506.77 86.238 1506.55 85.332C1506.32 84.4159 1505.83 83.9616 1505.06 83.51C1504.25 83.0273 1503.29 82.8264 1502.36 82.7633C1501.65 82.7162 1500.94 82.7463 1500.24 82.7463C1500.09 82.7463 1499.8 82.6789 1499.73 82.8231" stroke="#E13914" stroke-width="5" stroke-linecap="round"/>
<circle cx="969" cy="88" r="8" fill="#E13914" stroke="white" stroke-width="4"/>
<path d="M975.143 38.1036C977.759 38.1832 982.157 39.7243 982.211 42.5665C982.289 46.6049 978.276 49.6804 976.088 52.7743C974.76 54.6516 973.281 56.4773 972.018 58.3843C971.674 58.9044 971.739 58.5905 971.935 58.5339C973.147 58.1844 974.938 58.4228 976.215 58.5678C977.511 58.715 978.88 58.9021 980.156 59.22C980.333 59.2641 980.496 59.3631 980.656 59.2711C980.889 59.1365 981.164 59.0406 981.429 59.0112" stroke="#E13914" stroke-width="5" stroke-linecap="round"/>
<path d="M990.992 58.4569C989.172 54.2529 990.565 48.156 992.248 44.0857C994.806 41.2803 997.389 46.0773 997.977 48.7679C998.564 51.4585 998.788 59.2628 994.927 61.3726C994.305 61.713 992.695 61.1683 992.262 60.679C991.588 59.9161 991.4 59.3978 990.992 58.4569Z" stroke="#E13914" stroke-width="5" stroke-linecap="round"/>
<path d="M1009.7 42.7852C1008.93 46.9403 1009.55 51.2106 1008.79 55.2995C1008.5 56.8134 1008.64 58.2486 1008.35 59.8122C1008.11 61.1021 1008.06 62.4228 1007.81 63.7949" stroke="#E13914" stroke-width="5" stroke-linecap="round"/>
<path d="M1022.77 44.5362C1025.39 44.6158 1029.79 46.1569 1029.84 48.9991C1029.92 53.0375 1025.9 56.1131 1023.72 59.207C1022.39 61.0842 1020.91 62.9099 1019.65 64.817C1019.3 65.337 1019.37 65.0231 1019.56 64.9665C1020.78 64.617 1022.57 64.8554 1023.84 65.0004C1025.14 65.1476 1026.51 65.3347 1027.78 65.6526C1027.96 65.6967 1028.13 65.7958 1028.28 65.7037C1028.52 65.5692 1028.79 65.4732 1029.06 65.4438" stroke="#E13914" stroke-width="5" stroke-linecap="round"/>
<circle cx="418.34" cy="144" r="8" fill="#E13914" stroke="white" stroke-width="4"/>
<path d="M423.569 96.0596C426.186 96.0683 430.624 97.4898 430.756 100.33C430.943 104.364 427.014 107.547 424.911 110.699C423.634 112.612 422.205 114.477 420.995 116.417C420.664 116.947 420.721 116.631 420.915 116.569C422.117 116.187 423.915 116.377 425.195 116.487C426.494 116.599 427.868 116.749 429.152 117.033C429.33 117.072 429.496 117.166 429.653 117.07C429.882 116.929 430.154 116.826 430.419 116.789" stroke="#E13914" stroke-width="5" stroke-linecap="round"/>
<path d="M439.967 115.976C438.033 111.823 439.261 105.691 440.832 101.576C443.314 98.7027 446.026 103.428 446.686 106.102C447.346 108.775 447.781 116.571 443.979 118.784C443.366 119.141 441.742 118.64 441.296 118.163C440.601 117.419 440.399 116.906 439.967 115.976Z" stroke="#E13914" stroke-width="5" stroke-linecap="round"/>
<path d="M454.444 109.083C454.879 106.365 453.887 101.483 456.69 101.502C459.493 101.52 460.113 103.811 460.684 104.747C462.068 107.018 462.579 109.658 462.958 112.326C463.247 114.36 463.348 116.656 461.745 118.206C460.945 118.98 459.449 120.025 458.261 119.968C455.508 119.836 454.087 117.095 453.753 114.666C453.507 112.883 454.164 110.836 454.444 109.083Z" stroke="#E13914" stroke-width="5" stroke-linecap="round"/>
<path d="M473.254 101.179C472.887 103.486 472.52 105.792 472.153 108.099C471.643 111.303 470.925 114.564 470.942 117.822C470.65 119.05 471.384 121.354 471.947 122.449C472.641 123.289 473.519 124.63 474.702 124.819C475.46 124.939 476.183 124.309 476.655 123.79C477.021 123.387 477.297 122.871 477.462 122.355C477.743 121.476 478.028 120.407 477.95 119.477C477.872 118.537 477.452 118.01 476.77 117.444C476.042 116.84 475.13 116.491 474.212 116.281C473.526 116.124 472.819 116.042 472.124 115.932C471.976 115.908 471.701 115.796 471.607 115.927" stroke="#E13914" stroke-width="5" stroke-linecap="round"/>
</svg>
