<svg width="199" height="199" viewBox="0 0 199 199" fill="none" xmlns="http://www.w3.org/2000/svg">
<circle cx="99.2277" cy="98.8107" r="76.9953" fill="#E13914"/>
<g clip-path="url(#clip0_360_1455)">
<path d="M62.8474 22.1362L60.4092 16.939L58.741 17.709L58.356 24.2536L56.0461 25.3443C56.1745 23.9969 56.2386 22.6495 56.3028 21.3662C56.3669 20.0188 56.4953 18.7356 56.5594 17.3881L50.2715 12.8326L52.5813 11.7418L57.971 15.7841L59.5109 15.0783L57.0086 9.68862L59.0618 8.72617L61.5641 14.1158L63.1682 13.4101L63.5532 6.67297L65.863 5.64636L65.2214 13.2817L71.7018 18.0298L69.392 19.1205L64.1948 15.2066L62.5266 15.9766L64.9648 21.1737L62.8474 22.1362Z" fill="black"/>
<path d="M72.7921 17.8373L69.584 4.49146L72.343 3.84983L77.9893 9.68864L80.2992 1.92495L82.994 1.28333L86.2021 14.6292L84.0206 15.1425L81.5183 4.74811L79.2084 12.6401L78.246 12.8968L72.5355 6.92965L75.0378 17.324L72.7921 17.8373Z" fill="black"/>
<path d="M88.7687 14.3725L87.9346 0.70579L90.1803 0.577465L90.7577 10.5869L97.174 0.128325L99.2272 0L100.061 13.6667L97.8156 13.795L97.174 3.84976L90.7577 14.2441L88.7687 14.3725Z" fill="black"/>
<path d="M107.762 14.0516L109.943 0.513306L112.189 0.898282L110.585 10.8435L119.119 1.98905L121.108 2.30986L118.926 15.8482L116.68 15.4632L118.284 5.64632L109.751 14.3725L107.762 14.0516Z" fill="black"/>
<path d="M136.634 22.0721L134.516 21.238L138.879 10.3944L132.72 7.8921L128.357 18.7356L126.239 17.9015L131.372 5.19727L141.702 9.36784L136.634 22.0721Z" fill="black"/>
<path d="M143.885 26.4352C142.987 25.8578 142.281 25.2161 141.767 24.5103C141.254 23.8046 140.933 23.0346 140.741 22.2005C140.612 21.3664 140.612 20.5323 140.805 19.634C140.997 18.7357 141.382 17.9016 141.896 17.0033C142.409 16.105 143.051 15.3992 143.756 14.8218C144.462 14.2443 145.232 13.8593 146.002 13.6027C146.836 13.346 147.67 13.2819 148.504 13.4743C149.403 13.6027 150.301 13.9235 151.199 14.501C152.098 15.0784 152.803 15.72 153.317 16.4258C153.83 17.1316 154.151 17.9016 154.343 18.7357C154.536 19.5698 154.472 20.4039 154.279 21.3022C154.087 22.2005 153.702 23.0346 153.188 23.9329C152.675 24.767 152.033 25.5369 151.328 26.1144C150.622 26.6919 149.852 27.0769 149.082 27.3335C148.312 27.5902 147.414 27.6543 146.515 27.526C145.745 27.3335 144.847 26.9485 143.885 26.4352ZM150.173 16.1692C149.531 15.7842 148.954 15.5917 148.312 15.5276C147.735 15.4634 147.157 15.5276 146.58 15.7842C146.066 15.9767 145.553 16.2975 145.04 16.7466C144.591 17.1958 144.141 17.6449 143.821 18.2224C143.5 18.7999 143.243 19.3773 143.051 19.9548C142.858 20.5323 142.858 21.1739 142.922 21.7513C142.987 22.3288 143.179 22.9063 143.5 23.4196C143.821 23.9329 144.27 24.382 144.911 24.767C145.553 25.152 146.13 25.3445 146.708 25.4086C147.285 25.4728 147.863 25.4086 148.44 25.2161C149.018 25.0236 149.467 24.7028 149.916 24.2537C150.365 23.8046 150.814 23.3554 151.135 22.7138C151.456 22.1363 151.713 21.5589 151.905 20.9172C152.098 20.3398 152.098 19.6981 152.033 19.1207C151.969 18.5432 151.777 18.0299 151.456 17.5166C151.263 17.0033 150.814 16.5542 150.173 16.1692Z" fill="black"/>
<path d="M151.136 31.0548L159.926 20.5321L166.984 26.3709L165.701 27.9108L160.375 23.4836L152.868 32.4664L151.136 31.0548Z" fill="black"/>
<path d="M166.598 34.4554L171.025 39.3318L175.452 35.3537L176.928 37.0219L166.726 46.1972L165.251 44.529L169.485 40.6792L165.058 35.8028L160.823 39.6526L159.348 37.9844L169.55 28.8091L171.025 30.4773L166.598 34.4554Z" fill="black"/>
<path d="M183.345 46.3254L174.683 58.1314L173.336 56.0782L175.132 53.7042L171.732 48.507L168.844 49.1486L167.497 47.0954L181.805 43.9514L183.345 46.3254ZM176.48 52.0359L180.779 46.3896L173.849 47.9937L176.48 52.0359Z" fill="black"/>
<path d="M178.661 66.8576L189.312 62.0454L187.259 57.4899C186.874 57.6182 186.553 57.8107 186.232 57.939C185.911 58.0673 185.591 58.2598 185.206 58.3881C184.821 58.5806 184.371 58.7731 183.858 58.9656C183.345 59.1581 182.767 59.4147 182.062 59.7356C181.741 59.8639 181.42 59.9922 181.099 60.1205C180.778 60.2489 180.393 60.3772 180.073 60.5055C179.752 60.6338 179.367 60.698 179.046 60.7622C178.725 60.8263 178.404 60.8263 178.148 60.8263C177.378 60.8263 176.672 60.5697 176.159 60.1847C175.645 59.7997 175.132 59.0939 174.747 58.1957L176.608 57.3615C176.8 57.8107 177.121 58.1315 177.506 58.2598C177.891 58.3881 178.34 58.4523 178.789 58.3881C179.238 58.324 179.816 58.1957 180.329 58.0032C180.843 57.8107 181.42 57.6182 181.997 57.3615C182.767 57.0407 183.409 56.7199 183.987 56.4633C184.564 56.2066 185.141 56.0141 185.591 55.7575C186.04 55.5008 186.553 55.3725 186.938 55.18C187.387 54.9875 187.772 54.795 188.221 54.6025L192.071 63.2003L179.559 68.8467L178.661 66.8576Z" fill="black"/>
<path d="M180.521 71.4131L193.739 67.8199L194.316 70.0015L184.628 72.6322L196.177 76.8027L196.69 78.7276L183.473 82.3207L182.895 80.1392L192.52 77.5727L181.099 73.4021L180.521 71.4131Z" fill="black"/>
<path d="M184.693 105.997L190.403 106.51L190.596 104.649L185.142 101.056L185.399 98.4899C186.489 99.2598 187.644 100.03 188.735 100.736C189.826 101.441 190.981 102.211 192.072 102.981L199.065 99.7731L198.809 102.275L192.585 104.906L192.457 106.639L198.36 107.216L198.167 109.462L192.264 108.884L192.072 110.617L197.654 114.338L197.397 116.84L191.109 112.413L183.73 115.621L183.987 113.055L190.018 110.488L190.211 108.628L184.5 108.114L184.693 105.997Z" fill="black"/>
<path d="M183.408 116.84L196.562 120.69L195.792 123.385L187.9 125.31L193.482 131.213L192.712 133.844L179.559 129.994L180.2 127.876L190.466 130.892L184.82 124.925L185.077 123.963L193.097 122.038L182.831 119.022L183.408 116.84Z" fill="black"/>
<path d="M178.403 132.368L190.658 138.527L189.696 140.516L180.713 136.025L186.552 146.804L185.654 148.601L173.398 142.441L174.425 140.452L183.344 144.944L177.569 134.164L178.403 132.368Z" fill="black"/>
<path d="M169.165 148.922L179.752 157.584L178.34 159.316L170.577 152.964L173.913 164.77L172.63 166.31L162.043 157.648L163.455 155.915L171.154 162.203L167.946 150.462L169.165 148.922Z" fill="black"/>
<path d="M147.735 169.903L149.532 168.491L156.718 177.667L161.915 173.56L154.729 164.385L156.526 162.973L164.931 173.753L156.141 180.618L147.735 169.903Z" fill="black"/>
<path d="M140.292 174.074C141.254 173.56 142.153 173.239 143.051 173.175C143.949 173.111 144.783 173.175 145.553 173.496C146.323 173.817 147.093 174.202 147.735 174.844C148.376 175.485 148.954 176.191 149.467 177.089C149.98 177.988 150.301 178.886 150.43 179.784C150.558 180.682 150.558 181.516 150.365 182.351C150.173 183.185 149.788 183.891 149.21 184.596C148.633 185.302 147.927 185.88 146.965 186.393C146.066 186.906 145.104 187.227 144.27 187.291C143.436 187.355 142.538 187.291 141.768 187.034C140.998 186.778 140.228 186.329 139.586 185.687C138.944 185.045 138.367 184.34 137.854 183.441C137.34 182.543 137.084 181.645 136.891 180.747C136.763 179.848 136.763 179.014 136.955 178.18C137.148 177.346 137.533 176.576 138.11 175.87C138.688 175.164 139.394 174.587 140.292 174.074ZM146.066 184.596C146.708 184.275 147.221 183.826 147.542 183.313C147.863 182.8 148.12 182.286 148.184 181.709C148.312 181.132 148.248 180.554 148.12 179.912C147.991 179.271 147.735 178.693 147.414 178.116C147.093 177.538 146.708 177.025 146.259 176.576C145.81 176.127 145.361 175.806 144.783 175.549C144.27 175.293 143.692 175.229 143.051 175.229C142.473 175.229 141.832 175.421 141.19 175.806C140.548 176.127 140.035 176.576 139.714 177.089C139.394 177.603 139.137 178.116 139.073 178.693C139.009 179.271 139.009 179.848 139.137 180.49C139.265 181.131 139.522 181.709 139.843 182.286C140.163 182.864 140.548 183.377 140.998 183.826C141.447 184.275 141.896 184.596 142.473 184.853C142.987 185.11 143.564 185.174 144.142 185.174C144.783 185.11 145.361 184.917 146.066 184.596Z" fill="black"/>
<path d="M132.721 177.988L137.405 190.82L128.807 193.964L128.102 192.103L134.582 189.729L130.54 178.758L132.721 177.988Z" fill="black"/>
<path d="M121.942 189.665L115.526 191.013L116.745 196.851L114.563 197.301L111.74 183.891L113.922 183.441L115.077 189.088L121.493 187.74L120.338 182.158L122.52 181.709L125.343 195.119L123.161 195.568L121.942 189.665Z" fill="black"/>
<path d="M103.269 198.199L97.4307 184.789L99.8689 184.66L101.024 187.355L107.248 187.034L108.146 184.211L110.584 184.083L106.093 198.006L103.269 198.199ZM101.858 189.344L104.617 195.889L106.67 189.088L101.858 189.344Z" fill="black"/>
<path d="M87.9352 183.762L86.7803 195.375L91.785 195.889C91.8491 195.504 91.9133 195.119 91.9133 194.798C91.9133 194.477 91.9775 194.092 92.0416 193.643C92.1058 193.194 92.17 192.681 92.2341 192.167C92.2983 191.59 92.3624 190.948 92.4908 190.242C92.5549 189.922 92.5549 189.537 92.6191 189.152C92.6832 188.767 92.7474 188.446 92.8116 188.061C92.8757 187.676 93.0041 187.355 93.0682 187.034C93.1965 186.713 93.3249 186.457 93.4532 186.2C93.9023 185.559 94.4156 185.045 94.9931 184.789C95.6347 184.532 96.4047 184.468 97.4313 184.532L97.2388 186.585C96.7255 186.521 96.3405 186.649 96.0197 186.906C95.6989 187.163 95.4423 187.483 95.2498 187.933C95.0573 188.382 94.929 188.895 94.8006 189.472C94.6723 190.05 94.6081 190.627 94.544 191.269C94.4798 192.103 94.3515 192.809 94.2873 193.451C94.2232 194.092 94.159 194.67 94.0948 195.183C94.0307 195.696 93.9665 196.21 93.9023 196.659C93.8382 197.108 93.774 197.557 93.774 198.006L84.4062 197.044L85.8178 183.441L87.9352 183.762Z" fill="black"/>
<path d="M83.0597 183.12L79.5307 196.338L77.3492 195.761L79.9157 186.072L70.5479 193.964L68.623 193.451L72.152 180.233L74.3335 180.811L71.767 190.435L81.1348 182.607L83.0597 183.12Z" fill="black"/>
<path d="M51.0413 169.39L47.7048 174.074L49.1806 175.164L55.0194 172.277L57.0726 173.753C55.8535 174.33 54.6344 174.908 53.4795 175.485C52.3245 176.063 51.1054 176.64 49.8863 177.218L49.1164 184.853L47.0632 183.377L47.8973 176.704L46.4857 175.678L43.0209 180.49L41.1602 179.207L44.625 174.394L43.2134 173.368L37.1821 176.319L35.1289 174.844L42.1226 171.635L43.0851 163.679L45.1383 165.155L44.3042 171.635L45.8441 172.726L49.1806 168.042L51.0413 169.39Z" fill="black"/>
<path d="M42.3147 162.845L32.3694 172.277L30.4445 170.224L32.7544 162.46L24.7982 164.257L22.9375 162.268L32.8827 152.836L34.4226 154.44L26.6589 161.754L34.6793 159.894L35.3851 160.599L33.0752 168.491L40.8389 161.177L42.3147 162.845Z" fill="black"/>
<path d="M31.3443 150.718L19.9233 158.225L18.7042 156.365L27.1095 150.847L14.8544 150.526L13.7637 148.858L25.1846 141.351L26.4037 143.211L18.0626 148.665L30.2535 149.05L31.3443 150.718Z" fill="black"/>
<path d="M21.6563 134.421L8.82379 139.233L8.05384 137.116L17.4858 133.587L5.55149 130.571L4.8457 128.711L17.6783 123.898L18.4482 126.016L9.14461 129.48L20.9506 132.56L21.6563 134.421Z" fill="black"/>
<path d="M14.2763 105.355L14.5971 107.601L3.04785 109.205L3.94613 115.75L15.4954 114.146L15.8162 116.391L2.21373 118.252L0.673828 107.216L14.2763 105.355Z" fill="black"/>
<path d="M14.4045 96.8857C14.4045 97.9764 14.1478 98.8747 13.827 99.7088C13.442 100.543 12.9287 101.185 12.2871 101.762C11.6455 102.275 10.8755 102.724 10.0414 102.981C9.20729 103.238 8.24485 103.366 7.21824 103.366C6.19164 103.366 5.29336 103.174 4.39508 102.853C3.56097 102.532 2.79101 102.083 2.21355 101.505C1.63608 100.928 1.12278 100.222 0.801969 99.388C0.545318 98.4897 0.416992 97.5273 0.416992 96.5007C0.416992 95.4099 0.60948 94.5117 0.994457 93.6775C1.37943 92.8434 1.82857 92.2018 2.4702 91.6243C3.11183 91.111 3.88178 90.6619 4.7159 90.4052C5.61417 90.1486 6.51245 90.0203 7.53906 90.0203C8.56566 90.0203 9.46394 90.2128 10.2981 90.5336C11.1322 90.8544 11.9021 91.3035 12.4796 91.881C13.0571 92.4584 13.5704 93.1642 13.8912 93.9984C14.212 94.8325 14.4686 95.7949 14.4045 96.8857ZM2.40604 96.5649C2.40604 97.2707 2.53436 97.9123 2.79101 98.4897C3.04766 99.003 3.36848 99.5164 3.81762 99.8372C4.26676 100.222 4.78006 100.479 5.35752 100.671C5.93499 100.864 6.57662 100.992 7.21824 100.992C7.85987 100.992 8.5015 100.928 9.14313 100.8C9.72059 100.671 10.2981 100.415 10.7472 100.03C11.1963 99.7088 11.5813 99.2597 11.9021 98.6822C12.2229 98.1048 12.3513 97.5273 12.3513 96.7574C12.3513 96.0516 12.2229 95.4099 12.0305 94.8325C11.7738 94.255 11.453 93.8059 11.0038 93.485C10.5547 93.1001 10.0414 92.8434 9.46394 92.6509C8.88648 92.4584 8.24485 92.3301 7.53906 92.3301C6.89743 92.3301 6.2558 92.3943 5.61418 92.5226C4.97255 92.6509 4.45925 92.9076 4.01011 93.2926C3.56097 93.6134 3.17599 94.0625 2.85518 94.5758C2.59853 95.1533 2.4702 95.7949 2.40604 96.5649Z" fill="black"/>
<path d="M14.8541 88.3521L1.37988 85.9781L2.98395 76.9312L4.973 77.252L3.7539 84.0532L15.239 86.0423L14.8541 88.3521Z" fill="black"/>
<path d="M10.1041 73.2096L12.1573 66.9858L6.51095 65.1251L7.21674 63.0077L20.2418 67.3066L19.536 69.424L14.0822 67.6274L12.0289 73.8512L17.4828 75.6478L16.777 77.7651L3.75195 73.4662L4.45774 71.3489L10.1041 73.2096Z" fill="black"/>
<path d="M12.0938 52.7417L26.6587 54.4099L25.5038 56.5915L22.5523 56.2065L19.7292 61.7245L21.7182 63.906L20.6274 66.0876L10.8105 55.1799L12.0938 52.7417ZM20.4991 55.9498L13.4412 55.0516L18.2534 60.2487L20.4991 55.9498Z" fill="black"/>
<path d="M32.305 46.6463L22.8089 39.7809L19.8574 43.8231C20.1783 44.0798 20.4349 44.2723 20.7557 44.4648C21.0765 44.6573 21.3332 44.9139 21.654 45.1706C21.9748 45.4272 22.424 45.748 22.8731 46.0688C23.3222 46.3897 23.8355 46.7746 24.413 47.2238C24.6697 47.4163 24.9905 47.6729 25.2471 47.8654C25.5038 48.122 25.8246 48.3145 26.0812 48.5712C26.3379 48.8278 26.5945 49.0845 26.787 49.3411C26.9795 49.5978 27.172 49.8544 27.3003 50.1111C27.6853 50.8169 27.8136 51.5227 27.6853 52.1643C27.6211 52.8059 27.2362 53.5759 26.6587 54.3458L24.9905 53.1267C25.3113 52.7418 25.3754 52.3568 25.3113 51.9077C25.2471 51.5227 25.0546 51.1377 24.798 50.6886C24.5413 50.3036 24.1563 49.9186 23.7072 49.5336C23.2581 49.1487 22.8089 48.7637 22.2956 48.3787C21.654 47.8654 21.0765 47.4163 20.5632 47.0313C20.0499 46.6463 19.6008 46.2613 19.1517 45.9405C18.7025 45.6197 18.3175 45.2989 17.9326 45.0422C17.5476 44.7856 17.1626 44.4648 16.8418 44.2081L22.3598 36.5728L33.4599 44.6573L32.305 46.6463Z" fill="black"/>
<path d="M35.3224 42.7964L25.6338 33.1078L27.2379 31.5037L34.3599 38.6258L32.2426 26.5632L33.6541 25.1516L43.3427 34.8402L41.7386 36.4443L34.6807 29.3864L36.7339 41.3848L35.3224 42.7964Z" fill="black"/>
<ellipse cx="45.9709" cy="23.0985" rx="3.84976" ry="3.84976" fill="black"/>
<ellipse cx="192.263" cy="90.4694" rx="3.84976" ry="3.84977" fill="black"/>
<ellipse cx="61.3712" cy="183.505" rx="3.84976" ry="3.84977" fill="black"/>
</g>
<defs>
<clipPath id="clip0_360_1455">
<rect width="198.584" height="198.199" fill="white" transform="translate(0.416016)"/>
</clipPath>
</defs>
</svg>
